<svg xmlns="http://www.w3.org/2000/svg" width="1024" height="1024" viewBox="58.393 93.842 401.316 401.316" role="img" aria-label="발리노" data-species="bali" data-form="bali-0" data-source="original-vector-paths" preserveAspectRatio="xMidYMid meet" data-safe-fraction=".12"><title>발리노</title><defs><linearGradient id="body" x1="0" y1="0" x2=".3" y2="1"><stop stop-color="#a7cfcc"></stop><stop offset=".72" stop-color="#91c3c1"></stop><stop offset="1" stop-color="#a8bfa8"></stop></linearGradient><linearGradient id="eye" x1="0" y1="0" x2="0" y2="1"><stop stop-color="#253646"></stop><stop offset=".55" stop-color="#988a66"></stop><stop offset="1" stop-color="#d6b777"></stop></linearGradient></defs><g transform="translate(-4.1 0) scale(1.02 1)"><ellipse cx="213" cy="421" rx="31" ry="18" fill="#d6b777" stroke="#253646" stroke-width="4.3"></ellipse><path d="M225 420l-1 9 M213 421l-1 10" fill="none" stroke="#8f8363" stroke-width="2.6" stroke-linejoin="round" stroke-linecap="round"></path><ellipse cx="299" cy="421" rx="31" ry="18" fill="#d6b777" stroke="#253646" stroke-width="4.3"></ellipse><path d="M287 420l-1 9 M299 421l-1 10" fill="none" stroke="#8f8363" stroke-width="2.6" stroke-linejoin="round" stroke-linecap="round"></path><path d="M153 285C127 337 157 390 209 404C260 430 332 409 356 381Q390 333 354 281Z" fill="url(#body)" stroke="#253646" stroke-width="4.4" stroke-linejoin="round" stroke-linecap="round"></path><path d="M225 323C209 345 213 377 233 391Q256 409 283 390C301 373 300 348 283 324Q254 307 225 323Z" fill="#e1eeeb" stroke="#253646" stroke-width="3.0" stroke-linejoin="round" stroke-linecap="round"></path><path d="M244 385Q257 391 269 383" fill="none" stroke="#dcd7ba" stroke-width="2.5" stroke-linejoin="round" stroke-linecap="round"></path><path d="M158 240C146 185 208 181 218 216Q256 207 294 216C305 182 367 185 355 240C384 287 351 343 256 346C160 347 127 290 158 240Z" fill="url(#body)" stroke="#253646" stroke-width="4.4" stroke-linejoin="round" stroke-linecap="round"></path><path d="M182 283Q256 260 331 281Q352 326 279 337Q203 348 177 319Z" fill="#e1eeeb" stroke="#253646" stroke-width="2.7" stroke-linejoin="round" stroke-linecap="round"></path><g transform="rotate(-3 211 272)"><ellipse cx="211" cy="272" rx="28" ry="36" fill="#fffefa" stroke="#253646" stroke-width="3.8"></ellipse><ellipse cx="210" cy="273" rx="21" ry="29" fill="url(#eye)" stroke="#253646" stroke-width="2.7"></ellipse><ellipse cx="209" cy="274" rx="11.27" ry="24.0" fill="#253646" stroke="none" stroke-width="0"></ellipse><ellipse cx="206" cy="259" rx="7.5" ry="10.2" fill="#fffefa" stroke="none" stroke-width="0"></ellipse><ellipse cx="218" cy="285" rx="4.2" ry="5.0" fill="#fffefa" stroke="none" stroke-width="0"></ellipse><path d="M182 261Q207 229 238 254" fill="none" stroke="#253646" stroke-width="4.6" stroke-linejoin="round" stroke-linecap="round"></path></g><ellipse cx="194" cy="309" rx="15" ry="5.5" fill="#eea0ac" stroke="none" stroke-width="0"></ellipse><path d="M205 227q6 -5 13 -2" fill="none" stroke="#c1a871" stroke-width="4" stroke-linejoin="round" stroke-linecap="round"></path><g transform="rotate(3 301 272)"><ellipse cx="301" cy="272" rx="28" ry="36" fill="#fffefa" stroke="#253646" stroke-width="3.8"></ellipse><ellipse cx="302" cy="273" rx="21" ry="29" fill="url(#eye)" stroke="#253646" stroke-width="2.7"></ellipse><ellipse cx="303" cy="274" rx="11.27" ry="24.0" fill="#253646" stroke="none" stroke-width="0"></ellipse><ellipse cx="296" cy="259" rx="7.5" ry="10.2" fill="#fffefa" stroke="none" stroke-width="0"></ellipse><ellipse cx="308" cy="285" rx="4.2" ry="5.0" fill="#fffefa" stroke="none" stroke-width="0"></ellipse><path d="M272 261Q297 229 328 254" fill="none" stroke="#253646" stroke-width="4.6" stroke-linejoin="round" stroke-linecap="round"></path></g><ellipse cx="318" cy="309" rx="15" ry="5.5" fill="#eea0ac" stroke="none" stroke-width="0"></ellipse><path d="M295 227q6 -5 13 -2" fill="none" stroke="#c1a871" stroke-width="4" stroke-linejoin="round" stroke-linecap="round"></path><path d="M250 298Q257 294 263 298Q258 305 254 303Z" fill="#253646" stroke="#253646" stroke-width="2" stroke-linejoin="round" stroke-linecap="round"></path><path d="M240 309Q249 320 256 311Q264 320 274 307" fill="none" stroke="#253646" stroke-width="3.2" stroke-linejoin="round" stroke-linecap="round"></path><path d="M200 295Q211 301 221 294" fill="none" stroke="#e4cfa4" stroke-width="2.1" stroke-linejoin="round" stroke-linecap="round"></path><path d="M196 233Q204 229 211 231" fill="none" stroke="#e0edea" stroke-width="2.5" stroke-linejoin="round" stroke-linecap="round"></path><ellipse cx="194" cy="299" rx="1.35" ry="1.35" fill="#bba470" stroke="none" stroke-width="0"></ellipse><ellipse cx="190" cy="304" rx="1.35" ry="1.35" fill="#bba470" stroke="none" stroke-width="0"></ellipse><ellipse cx="186" cy="299" rx="1.35" ry="1.35" fill="#bba470" stroke="none" stroke-width="0"></ellipse><path d="M183 306q-4 -2 -7 -6" fill="none" stroke="#c8e0de" stroke-width="1.8" stroke-linejoin="round" stroke-linecap="round"></path><path d="M180 313q-4 -2 -7 -6" fill="none" stroke="#c8e0de" stroke-width="1.8" stroke-linejoin="round" stroke-linecap="round"></path><path d="M177 320q-4 -2 -7 -6" fill="none" stroke="#c8e0de" stroke-width="1.8" stroke-linejoin="round" stroke-linecap="round"></path><path d="M201 350q-6 9 -5 20" fill="none" stroke="#d3e6e3" stroke-width="3" stroke-linejoin="round" stroke-linecap="round"></path><path d="M211 407q-9 -2 -13 3" fill="none" stroke="#eadab8" stroke-width="3" stroke-linejoin="round" stroke-linecap="round"></path><ellipse cx="217" cy="416" rx="2.2" ry="2.2" fill="#f3e9d3" stroke="none" stroke-width="0"></ellipse><path d="M194 386q-7 -4 -9 -12" fill="none" stroke="#78a3a5" stroke-width="2.1" stroke-linejoin="round" stroke-linecap="round"></path><path d="M198 332q-5 -8 -8 -6" fill="none" stroke="#adbea3" stroke-width="2.6" stroke-linejoin="round" stroke-linecap="round"></path><path d="M290 295Q301 301 311 294" fill="none" stroke="#e4cfa4" stroke-width="2.1" stroke-linejoin="round" stroke-linecap="round"></path><path d="M286 233Q294 229 301 231" fill="none" stroke="#e0edea" stroke-width="2.5" stroke-linejoin="round" stroke-linecap="round"></path><ellipse cx="318" cy="299" rx="1.35" ry="1.35" fill="#bba470" stroke="none" stroke-width="0"></ellipse><ellipse cx="322" cy="304" rx="1.35" ry="1.35" fill="#bba470" stroke="none" stroke-width="0"></ellipse><ellipse cx="326" cy="299" rx="1.35" ry="1.35" fill="#bba470" stroke="none" stroke-width="0"></ellipse><path d="M329 306q4 -2 7 -6" fill="none" stroke="#c8e0de" stroke-width="1.8" stroke-linejoin="round" stroke-linecap="round"></path><path d="M332 313q4 -2 7 -6" fill="none" stroke="#c8e0de" stroke-width="1.8" stroke-linejoin="round" stroke-linecap="round"></path><path d="M335 320q4 -2 7 -6" fill="none" stroke="#c8e0de" stroke-width="1.8" stroke-linejoin="round" stroke-linecap="round"></path><path d="M311 350q6 9 5 20" fill="none" stroke="#d3e6e3" stroke-width="3" stroke-linejoin="round" stroke-linecap="round"></path><path d="M301 407q9 -2 13 3" fill="none" stroke="#eadab8" stroke-width="3" stroke-linejoin="round" stroke-linecap="round"></path><ellipse cx="295" cy="416" rx="2.2" ry="2.2" fill="#f3e9d3" stroke="none" stroke-width="0"></ellipse><path d="M318 386q7 -4 9 -12" fill="none" stroke="#78a3a5" stroke-width="2.1" stroke-linejoin="round" stroke-linecap="round"></path><path d="M314 332q5 -8 8 -6" fill="none" stroke="#adbea3" stroke-width="2.6" stroke-linejoin="round" stroke-linecap="round"></path><path d="M240 364q-2 8 0 12q2 -6 0 -12Z" fill="#f3f8f4" stroke="none" stroke-width="0" stroke-linejoin="round" stroke-linecap="round"></path><path d="M236 400q4 3 8 0" fill="none" stroke="#dedec8" stroke-width="1.8" stroke-linejoin="round" stroke-linecap="round"></path><path d="M253 364q-2 8 0 12q2 -6 0 -12Z" fill="#f3f8f4" stroke="none" stroke-width="0" stroke-linejoin="round" stroke-linecap="round"></path><path d="M253 400q4 3 8 0" fill="none" stroke="#dedec8" stroke-width="1.8" stroke-linejoin="round" stroke-linecap="round"></path><path d="M266 364q-2 8 0 12q2 -6 0 -12Z" fill="#f3f8f4" stroke="none" stroke-width="0" stroke-linejoin="round" stroke-linecap="round"></path><path d="M270 400q4 3 8 0" fill="none" stroke="#dedec8" stroke-width="1.8" stroke-linejoin="round" stroke-linecap="round"></path><path d="M257 150V204M220 166H292" fill="none" stroke="#d6b777" stroke-width="5" stroke-linejoin="round" stroke-linecap="round"></path><path d="M208 188L220 166L232 188Z" fill="#f3cb78" stroke="#253646" stroke-width="2.5" stroke-linejoin="round" stroke-linecap="round"></path><path d="M280 188L292 166L304 188Z" fill="#f3cb78" stroke="#253646" stroke-width="2.5" stroke-linejoin="round" stroke-linecap="round"></path><ellipse cx="183" cy="357" rx="21" ry="27" fill="#91c3c1" stroke="#253646" stroke-width="4.3" transform="rotate(28 183 357)"></ellipse><ellipse cx="183" cy="364" rx="10" ry="11" fill="#e1eeeb" stroke="#253646" stroke-width="2.2"></ellipse><path d="M176 348l-1 6M185 347v7" fill="none" stroke="#668b90" stroke-width="2" stroke-linejoin="round" stroke-linecap="round"></path><path d="M172 354q-3 7 1 12" fill="none" stroke="#d8e9e6" stroke-width="2.5" stroke-linejoin="round" stroke-linecap="round"></path><ellipse cx="186" cy="361" rx="2.0" ry="2.0" fill="#f6f9f6" stroke="none" stroke-width="0"></ellipse><ellipse cx="329" cy="357" rx="21" ry="27" fill="#91c3c1" stroke="#253646" stroke-width="4.3" transform="rotate(-28 329 357)"></ellipse><ellipse cx="329" cy="364" rx="10" ry="11" fill="#e1eeeb" stroke="#253646" stroke-width="2.2"></ellipse><path d="M322 348l-1 6M331 347v7" fill="none" stroke="#668b90" stroke-width="2" stroke-linejoin="round" stroke-linecap="round"></path><path d="M318 354q-3 7 1 12" fill="none" stroke="#d8e9e6" stroke-width="2.5" stroke-linejoin="round" stroke-linecap="round"></path><ellipse cx="332" cy="361" rx="2.0" ry="2.0" fill="#f6f9f6" stroke="none" stroke-width="0"></ellipse><path d="M270 381L257 395L266 396L256 410L276 391H267Z" fill="#d6b777" stroke="#253646" stroke-width="2" stroke-linejoin="round" stroke-linecap="round"></path></g></svg>