<svg xmlns="http://www.w3.org/2000/svg" width="1024" height="1024" viewBox="41.259 86.239 431.522 431.522" role="img" aria-label="꽃가루보람" data-species="boram" data-form="boram-1" data-source="original-vector-paths" preserveAspectRatio="xMidYMid meet" data-safe-fraction=".12"><title>꽃가루보람</title><defs><linearGradient id="body" x1="0" y1="0" x2=".3" y2="1"><stop stop-color="#edc7e1"></stop><stop offset=".72" stop-color="#e9b9db"></stop><stop offset="1" stop-color="#d2a3d5"></stop></linearGradient><linearGradient id="eye" x1="0" y1="0" x2="0" y2="1"><stop stop-color="#253646"></stop><stop offset=".55" stop-color="#79629a"></stop><stop offset="1" stop-color="#a679c8"></stop></linearGradient></defs><g transform="translate(16.38 0) scale(0.94 1)"><g transform="translate(256 0) scale(-1 1) translate(-256 0)"><path d="M320 275 C350 189 412 165 414 190 C433 231 402 281 349 292 C395 284 415 313 396 343 C372 371 335 332 315 308Z" fill="#a679c8" stroke="#253646" stroke-width="4.4" stroke-linejoin="round" stroke-linecap="round"></path><path d="M344 270 C371 218 396 200 404 205 C404 237 378 261 344 270Z" fill="#f9ebf2" stroke="#253646" stroke-width="2.5" stroke-linejoin="round" stroke-linecap="round"></path><ellipse cx="373" cy="313" rx="15" ry="20" fill="#e9b9db" stroke="#253646" stroke-width="2.5"></ellipse><path d="M381 217 L389.4 226.6 387.96 237.4 381 241 374.04 237.4 372.6 226.6Z" fill="#f3cb78" stroke="#253646" stroke-width="3.5" stroke-linejoin="round" stroke-linecap="round"></path><path d="M381 217 L382.2 232.36 389.4 226.6Z" fill="#f8e2b2" stroke="none" stroke-width="0" stroke-linejoin="round" stroke-linecap="round"></path><path d="M372.6 226.6 L381 232.0 389.4 226.6 M381 232.0 L381 241" fill="none" stroke="#c0a66c" stroke-width="2" stroke-linejoin="round" stroke-linecap="round"></path><g transform="translate(345 330) rotate(63)"><path d="M0 0 C-20 -24.0 -12.6 -59.2 0 -80 C16.0 -56.0 17.2 -24.0 0 0Z" fill="#e9b9db" stroke="#253646" stroke-width="4.4" stroke-linejoin="round" stroke-linecap="round"></path><path d="M0 -7 Q11.0 -25.6 0 -71 L0 -7Z" fill="#caa4c3" stroke="none" stroke-width="0" stroke-linejoin="round" stroke-linecap="round"></path><path d="M0 -5 Q-3 -36.0 0 -66" fill="none" stroke="#a28aa5" stroke-width="2.2" stroke-linejoin="round" stroke-linecap="round"></path><path d="M-4.4 -22.400000000000002 Q-8.0 -44.800000000000004 -3 -60.0" fill="none" stroke="#f5dfec" stroke-width="3.5" stroke-linejoin="round" stroke-linecap="round"></path></g></g><g transform="translate(256 0) scale(1 1) translate(-256 0)"><path d="M320 275 C350 189 412 165 414 190 C433 231 402 281 349 292 C395 284 415 313 396 343 C372 371 335 332 315 308Z" fill="#a679c8" stroke="#253646" stroke-width="4.4" stroke-linejoin="round" stroke-linecap="round"></path><path d="M344 270 C371 218 396 200 404 205 C404 237 378 261 344 270Z" fill="#f9ebf2" stroke="#253646" stroke-width="2.5" stroke-linejoin="round" stroke-linecap="round"></path><ellipse cx="373" cy="313" rx="15" ry="20" fill="#e9b9db" stroke="#253646" stroke-width="2.5"></ellipse><path d="M381 217 L389.4 226.6 387.96 237.4 381 241 374.04 237.4 372.6 226.6Z" fill="#f3cb78" stroke="#253646" stroke-width="3.5" stroke-linejoin="round" stroke-linecap="round"></path><path d="M381 217 L382.2 232.36 389.4 226.6Z" fill="#f8e2b2" stroke="none" stroke-width="0" stroke-linejoin="round" stroke-linecap="round"></path><path d="M372.6 226.6 L381 232.0 389.4 226.6 M381 232.0 L381 241" fill="none" stroke="#c0a66c" stroke-width="2" stroke-linejoin="round" stroke-linecap="round"></path><g transform="translate(345 330) rotate(63)"><path d="M0 0 C-20 -24.0 -12.6 -59.2 0 -80 C16.0 -56.0 17.2 -24.0 0 0Z" fill="#e9b9db" stroke="#253646" stroke-width="4.4" stroke-linejoin="round" stroke-linecap="round"></path><path d="M0 -7 Q11.0 -25.6 0 -71 L0 -7Z" fill="#caa4c3" stroke="none" stroke-width="0" stroke-linejoin="round" stroke-linecap="round"></path><path d="M0 -5 Q-3 -36.0 0 -66" fill="none" stroke="#a28aa5" stroke-width="2.2" stroke-linejoin="round" stroke-linecap="round"></path><path d="M-4.4 -22.400000000000002 Q-8.0 -44.800000000000004 -3 -60.0" fill="none" stroke="#f5dfec" stroke-width="3.5" stroke-linejoin="round" stroke-linecap="round"></path></g></g><path d="M186 286 L139 278 L126 338 L171 365Z" fill="#a679c8" stroke="#253646" stroke-width="4.4" stroke-linejoin="round" stroke-linecap="round"></path><path d="M326 286 L373 278 L386 338 L341 365Z" fill="#a679c8" stroke="#253646" stroke-width="4.4" stroke-linejoin="round" stroke-linecap="round"></path><ellipse cx="213" cy="421" rx="33" ry="18" fill="#a679c8" stroke="#253646" stroke-width="4.3"></ellipse><path d="M225 420l-1 9 M213 421l-1 10" fill="none" stroke="#725e94" stroke-width="2.6" stroke-linejoin="round" stroke-linecap="round"></path><ellipse cx="299" cy="421" rx="33" ry="18" fill="#a679c8" stroke="#253646" stroke-width="4.3"></ellipse><path d="M287 420l-1 9 M299 421l-1 10" fill="none" stroke="#725e94" stroke-width="2.6" stroke-linejoin="round" stroke-linecap="round"></path><path d="M188 287 C166 327 175 381 204 408 C228 428 294 427 316 405 C341 378 345 322 320 284Z" fill="url(#body)" stroke="#253646" stroke-width="4.4" stroke-linejoin="round" stroke-linecap="round"></path><path d="M225 323C209 345 213 377 233 391Q256 409 283 390C301 373 300 348 283 324Q254 307 225 323Z" fill="#f9ebf2" stroke="#253646" stroke-width="3.0" stroke-linejoin="round" stroke-linecap="round"></path><path d="M244 385Q257 391 269 383" fill="none" stroke="#d6bbe0" stroke-width="2.5" stroke-linejoin="round" stroke-linecap="round"></path><path d="M163 239C176 195 219 192 258 195C304 184 350 208 359 254C375 302 342 340 297 350C230 367 182 342 159 314C145 289 145 268 163 239Z" fill="url(#body)" stroke="#253646" stroke-width="4.4" stroke-linejoin="round" stroke-linecap="round"></path><g transform="rotate(0 211 272)"><ellipse cx="211" cy="272" rx="26" ry="34" fill="#fffefa" stroke="#253646" stroke-width="3.8"></ellipse><ellipse cx="210" cy="273" rx="19" ry="27" fill="url(#eye)" stroke="#253646" stroke-width="2.7"></ellipse><ellipse cx="209" cy="274" rx="10.29" ry="22.4" fill="#253646" stroke="none" stroke-width="0"></ellipse><ellipse cx="206" cy="259" rx="7.5" ry="10.2" fill="#fffefa" stroke="none" stroke-width="0"></ellipse><ellipse cx="218" cy="285" rx="4.2" ry="5.0" fill="#fffefa" stroke="none" stroke-width="0"></ellipse><path d="M184 261Q207 231 236 254" fill="none" stroke="#253646" stroke-width="4.6" stroke-linejoin="round" stroke-linecap="round"></path></g><ellipse cx="194" cy="309" rx="15" ry="5.5" fill="#eea0ac" stroke="none" stroke-width="0"></ellipse><g transform="rotate(0 301 272)"><ellipse cx="301" cy="272" rx="26" ry="34" fill="#fffefa" stroke="#253646" stroke-width="3.8"></ellipse><ellipse cx="302" cy="273" rx="19" ry="27" fill="url(#eye)" stroke="#253646" stroke-width="2.7"></ellipse><ellipse cx="303" cy="274" rx="10.29" ry="22.4" fill="#253646" stroke="none" stroke-width="0"></ellipse><ellipse cx="296" cy="259" rx="7.5" ry="10.2" fill="#fffefa" stroke="none" stroke-width="0"></ellipse><ellipse cx="308" cy="285" rx="4.2" ry="5.0" fill="#fffefa" stroke="none" stroke-width="0"></ellipse><path d="M274 261Q297 231 326 254" fill="none" stroke="#253646" stroke-width="4.6" stroke-linejoin="round" stroke-linecap="round"></path></g><ellipse cx="318" cy="309" rx="15" ry="5.5" fill="#eea0ac" stroke="none" stroke-width="0"></ellipse><path d="M250 298Q257 294 263 298Q258 305 254 303Z" fill="#253646" stroke="#253646" stroke-width="2" stroke-linejoin="round" stroke-linecap="round"></path><path d="M240 309Q249 320 256 311Q264 320 274 307" fill="none" stroke="#253646" stroke-width="3.2" stroke-linejoin="round" stroke-linecap="round"></path><path d="M200 293Q211 299 221 292" fill="none" stroke="#c4a6d9" stroke-width="2.1" stroke-linejoin="round" stroke-linecap="round"></path><path d="M196 235Q204 231 211 233" fill="none" stroke="#f9ebf1" stroke-width="2.5" stroke-linejoin="round" stroke-linecap="round"></path><ellipse cx="194" cy="299" rx="1.35" ry="1.35" fill="#936fb4" stroke="none" stroke-width="0"></ellipse><ellipse cx="190" cy="304" rx="1.35" ry="1.35" fill="#936fb4" stroke="none" stroke-width="0"></ellipse><ellipse cx="186" cy="299" rx="1.35" ry="1.35" fill="#936fb4" stroke="none" stroke-width="0"></ellipse><path d="M183 306q-4 -2 -7 -6" fill="none" stroke="#f4dcea" stroke-width="1.8" stroke-linejoin="round" stroke-linecap="round"></path><path d="M180 313q-4 -2 -7 -6" fill="none" stroke="#f4dcea" stroke-width="1.8" stroke-linejoin="round" stroke-linecap="round"></path><path d="M177 320q-4 -2 -7 -6" fill="none" stroke="#f4dcea" stroke-width="1.8" stroke-linejoin="round" stroke-linecap="round"></path><path d="M201 350q-6 9 -5 20" fill="none" stroke="#f6e2ee" stroke-width="3" stroke-linejoin="round" stroke-linecap="round"></path><path d="M211 407q-9 -2 -13 3" fill="none" stroke="#d2bce1" stroke-width="3" stroke-linejoin="round" stroke-linecap="round"></path><ellipse cx="217" cy="416" rx="2.2" ry="2.2" fill="#e4d6eb" stroke="none" stroke-width="0"></ellipse><path d="M194 386q-7 -4 -9 -12" fill="none" stroke="#bc9bb9" stroke-width="2.1" stroke-linejoin="round" stroke-linecap="round"></path><path d="M196 327l-5 -6l-4 5l5 6Z" fill="#d5a6d5" stroke="none" stroke-width="0" stroke-linejoin="round" stroke-linecap="round"></path><path d="M290 293Q301 299 311 292" fill="none" stroke="#c4a6d9" stroke-width="2.1" stroke-linejoin="round" stroke-linecap="round"></path><path d="M286 235Q294 231 301 233" fill="none" stroke="#f9ebf1" stroke-width="2.5" stroke-linejoin="round" stroke-linecap="round"></path><ellipse cx="318" cy="299" rx="1.35" ry="1.35" fill="#936fb4" stroke="none" stroke-width="0"></ellipse><ellipse cx="322" cy="304" rx="1.35" ry="1.35" fill="#936fb4" stroke="none" stroke-width="0"></ellipse><ellipse cx="326" cy="299" rx="1.35" ry="1.35" fill="#936fb4" stroke="none" stroke-width="0"></ellipse><path d="M329 306q4 -2 7 -6" fill="none" stroke="#f4dcea" stroke-width="1.8" stroke-linejoin="round" stroke-linecap="round"></path><path d="M332 313q4 -2 7 -6" fill="none" stroke="#f4dcea" stroke-width="1.8" stroke-linejoin="round" stroke-linecap="round"></path><path d="M335 320q4 -2 7 -6" fill="none" stroke="#f4dcea" stroke-width="1.8" stroke-linejoin="round" stroke-linecap="round"></path><path d="M311 350q6 9 5 20" fill="none" stroke="#f6e2ee" stroke-width="3" stroke-linejoin="round" stroke-linecap="round"></path><path d="M301 407q9 -2 13 3" fill="none" stroke="#d2bce1" stroke-width="3" stroke-linejoin="round" stroke-linecap="round"></path><ellipse cx="295" cy="416" rx="2.2" ry="2.2" fill="#e4d6eb" stroke="none" stroke-width="0"></ellipse><path d="M318 386q7 -4 9 -12" fill="none" stroke="#bc9bb9" stroke-width="2.1" stroke-linejoin="round" stroke-linecap="round"></path><path d="M316 327l5 -6l4 5l-5 6Z" fill="#d5a6d5" stroke="none" stroke-width="0" stroke-linejoin="round" stroke-linecap="round"></path><path d="M240 364q-2 8 0 12q2 -6 0 -12Z" fill="#fdf6f7" stroke="none" stroke-width="0" stroke-linejoin="round" stroke-linecap="round"></path><path d="M236 400q4 3 8 0" fill="none" stroke="#e0c9e5" stroke-width="1.8" stroke-linejoin="round" stroke-linecap="round"></path><path d="M253 364q-2 8 0 12q2 -6 0 -12Z" fill="#fdf6f7" stroke="none" stroke-width="0" stroke-linejoin="round" stroke-linecap="round"></path><path d="M253 400q4 3 8 0" fill="none" stroke="#e0c9e5" stroke-width="1.8" stroke-linejoin="round" stroke-linecap="round"></path><path d="M266 364q-2 8 0 12q2 -6 0 -12Z" fill="#fdf6f7" stroke="none" stroke-width="0" stroke-linejoin="round" stroke-linecap="round"></path><path d="M270 400q4 3 8 0" fill="none" stroke="#e0c9e5" stroke-width="1.8" stroke-linejoin="round" stroke-linecap="round"></path><path d="M257.0 165.0 L262.36 176.62 L275.07 178.13 L265.67 186.82 L268.17 199.37 L257.0 193.12 L245.83 199.37 L248.33 186.82 L238.93 178.13 L251.64 176.62Z" fill="#f3cb78" stroke="#253646" stroke-width="3.7" stroke-linejoin="round" stroke-linecap="round"></path><path d="M253.58 177.35L257 172.6L259.85 181.15" fill="none" stroke="#fbefd3" stroke-width="3" stroke-linejoin="round" stroke-linecap="round"></path><path d="M191 337L223 324L254 345L285 324L320 337L298 363L271 353L254 376L235 353L209 365Z" fill="#a679c8" stroke="#253646" stroke-width="3.8" stroke-linejoin="round" stroke-linecap="round"></path><path d="M221 331L254 354L285 331L273 349L254 369L235 350Z" fill="#f9ebf2" stroke="#253646" stroke-width="2.2" stroke-linejoin="round" stroke-linecap="round"></path><path d="M256 342 L267.2 354.8 265.28 369.2 256 374 246.72 369.2 244.8 354.8Z" fill="#f3cb78" stroke="#253646" stroke-width="3.5" stroke-linejoin="round" stroke-linecap="round"></path><path d="M256 342 L257.6 362.48 267.2 354.8Z" fill="#f8e2b2" stroke="none" stroke-width="0" stroke-linejoin="round" stroke-linecap="round"></path><path d="M244.8 354.8 L256 362.0 267.2 354.8 M256 362.0 L256 374" fill="none" stroke="#c0a66c" stroke-width="2" stroke-linejoin="round" stroke-linecap="round"></path><ellipse cx="177" cy="357" rx="23" ry="27" fill="#e9b9db" stroke="#253646" stroke-width="4.3" transform="rotate(28 177 357)"></ellipse><ellipse cx="177" cy="364" rx="10" ry="11" fill="#f9ebf2" stroke="#253646" stroke-width="2.2"></ellipse><path d="M170 348l-1 6M179 347v7" fill="none" stroke="#9b859f" stroke-width="2" stroke-linejoin="round" stroke-linecap="round"></path><path d="M166 354q-3 7 1 12" fill="none" stroke="#f7e6ef" stroke-width="2.5" stroke-linejoin="round" stroke-linecap="round"></path><ellipse cx="180" cy="361" rx="2.0" ry="2.0" fill="#fdf8f8" stroke="none" stroke-width="0"></ellipse><ellipse cx="335" cy="357" rx="23" ry="27" fill="#e9b9db" stroke="#253646" stroke-width="4.3" transform="rotate(-28 335 357)"></ellipse><ellipse cx="335" cy="364" rx="10" ry="11" fill="#f9ebf2" stroke="#253646" stroke-width="2.2"></ellipse><path d="M328 348l-1 6M337 347v7" fill="none" stroke="#9b859f" stroke-width="2" stroke-linejoin="round" stroke-linecap="round"></path><path d="M324 354q-3 7 1 12" fill="none" stroke="#f7e6ef" stroke-width="2.5" stroke-linejoin="round" stroke-linecap="round"></path><ellipse cx="338" cy="361" rx="2.0" ry="2.0" fill="#fdf8f8" stroke="none" stroke-width="0"></ellipse><path d="M247 381L265 381L270 394Q261 407 255 408Q244 401 242 393Z" fill="#a679c8" stroke="#253646" stroke-width="2.2" stroke-linejoin="round" stroke-linecap="round"></path><path d="M252 386L255 400L263 388" fill="none" stroke="#f9ebf2" stroke-width="2" stroke-linejoin="round" stroke-linecap="round"></path></g></svg>