<svg xmlns="http://www.w3.org/2000/svg" width="1024" height="1024" viewBox="13.779 59.775 482.450 482.450" role="img" aria-label="페이지아" data-species="duru" data-form="duru-2b" data-source="original-vector-paths" preserveAspectRatio="xMidYMid meet" data-safe-fraction=".12"><title>페이지아</title><defs><linearGradient id="body" x1="0" y1="0" x2=".3" y2="1"><stop stop-color="#cabfe0"></stop><stop offset=".72" stop-color="#bdafd9"></stop><stop offset="1" stop-color="#ac9ccc"></stop></linearGradient><linearGradient id="eye" x1="0" y1="0" x2="0" y2="1"><stop stop-color="#253646"></stop><stop offset=".55" stop-color="#67608d"></stop><stop offset="1" stop-color="#8a76b3"></stop></linearGradient></defs><g transform="translate(4.1 0) scale(0.98 1)"><g transform="translate(191 333) rotate(-65)"><path d="M0 0 C-30 -35.1 -18.9 -86.58 0 -117 C24.0 -81.89999999999999 25.8 -35.1 0 0Z" fill="#ede9f1" stroke="#253646" stroke-width="4.4" stroke-linejoin="round" stroke-linecap="round"></path><path d="M0 -7 Q16.5 -37.44 0 -108 L0 -7Z" fill="#cdccd6" stroke="none" stroke-width="0" stroke-linejoin="round" stroke-linecap="round"></path><path d="M0 -5 Q-3 -52.65 0 -103" fill="none" stroke="#a5a9b3" stroke-width="2.2" stroke-linejoin="round" stroke-linecap="round"></path><path d="M-6.6 -32.760000000000005 Q-12.0 -65.52000000000001 -3 -87.75" fill="none" stroke="#f7f5f6" stroke-width="3.5" stroke-linejoin="round" stroke-linecap="round"></path></g><g transform="translate(191 333) rotate(-89)"><path d="M0 0 C-30 -32.699999999999996 -18.9 -80.66 0 -109 C24.0 -76.3 25.8 -32.699999999999996 0 0Z" fill="#8a76b3" stroke="#253646" stroke-width="4.4" stroke-linejoin="round" stroke-linecap="round"></path><path d="M0 -7 Q16.5 -34.88 0 -100 L0 -7Z" fill="#7a6ca2" stroke="none" stroke-width="0" stroke-linejoin="round" stroke-linecap="round"></path><path d="M0 -5 Q-3 -49.050000000000004 0 -95" fill="none" stroke="#665f8c" stroke-width="2.2" stroke-linejoin="round" stroke-linecap="round"></path><path d="M-6.6 -30.520000000000003 Q-12.0 -61.040000000000006 -3 -81.75" fill="none" stroke="#cac1da" stroke-width="3.5" stroke-linejoin="round" stroke-linecap="round"></path></g><g transform="translate(191 333) rotate(-113)"><path d="M0 0 C-30 -30.299999999999997 -18.9 -74.74 0 -101 C24.0 -70.69999999999999 25.8 -30.299999999999997 0 0Z" fill="#ede9f1" stroke="#253646" stroke-width="4.4" stroke-linejoin="round" stroke-linecap="round"></path><path d="M0 -7 Q16.5 -32.32 0 -92 L0 -7Z" fill="#cdccd6" stroke="none" stroke-width="0" stroke-linejoin="round" stroke-linecap="round"></path><path d="M0 -5 Q-3 -45.45 0 -87" fill="none" stroke="#a5a9b3" stroke-width="2.2" stroke-linejoin="round" stroke-linecap="round"></path><path d="M-6.6 -28.28 Q-12.0 -56.56 -3 -75.75" fill="none" stroke="#f7f5f6" stroke-width="3.5" stroke-linejoin="round" stroke-linecap="round"></path></g><g transform="translate(321 333) rotate(65)"><path d="M0 0 C-30 -35.1 -18.9 -86.58 0 -117 C24.0 -81.89999999999999 25.8 -35.1 0 0Z" fill="#ede9f1" stroke="#253646" stroke-width="4.4" stroke-linejoin="round" stroke-linecap="round"></path><path d="M0 -7 Q16.5 -37.44 0 -108 L0 -7Z" fill="#cdccd6" stroke="none" stroke-width="0" stroke-linejoin="round" stroke-linecap="round"></path><path d="M0 -5 Q-3 -52.65 0 -103" fill="none" stroke="#a5a9b3" stroke-width="2.2" stroke-linejoin="round" stroke-linecap="round"></path><path d="M-6.6 -32.760000000000005 Q-12.0 -65.52000000000001 -3 -87.75" fill="none" stroke="#f7f5f6" stroke-width="3.5" stroke-linejoin="round" stroke-linecap="round"></path></g><g transform="translate(321 333) rotate(89)"><path d="M0 0 C-30 -32.699999999999996 -18.9 -80.66 0 -109 C24.0 -76.3 25.8 -32.699999999999996 0 0Z" fill="#8a76b3" stroke="#253646" stroke-width="4.4" stroke-linejoin="round" stroke-linecap="round"></path><path d="M0 -7 Q16.5 -34.88 0 -100 L0 -7Z" fill="#7a6ca2" stroke="none" stroke-width="0" stroke-linejoin="round" stroke-linecap="round"></path><path d="M0 -5 Q-3 -49.050000000000004 0 -95" fill="none" stroke="#665f8c" stroke-width="2.2" stroke-linejoin="round" stroke-linecap="round"></path><path d="M-6.6 -30.520000000000003 Q-12.0 -61.040000000000006 -3 -81.75" fill="none" stroke="#cac1da" stroke-width="3.5" stroke-linejoin="round" stroke-linecap="round"></path></g><g transform="translate(321 333) rotate(113)"><path d="M0 0 C-30 -30.299999999999997 -18.9 -74.74 0 -101 C24.0 -70.69999999999999 25.8 -30.299999999999997 0 0Z" fill="#ede9f1" stroke="#253646" stroke-width="4.4" stroke-linejoin="round" stroke-linecap="round"></path><path d="M0 -7 Q16.5 -32.32 0 -92 L0 -7Z" fill="#cdccd6" stroke="none" stroke-width="0" stroke-linejoin="round" stroke-linecap="round"></path><path d="M0 -5 Q-3 -45.45 0 -87" fill="none" stroke="#a5a9b3" stroke-width="2.2" stroke-linejoin="round" stroke-linecap="round"></path><path d="M-6.6 -28.28 Q-12.0 -56.56 -3 -75.75" fill="none" stroke="#f7f5f6" stroke-width="3.5" stroke-linejoin="round" stroke-linecap="round"></path></g><ellipse cx="213" cy="421" rx="35" ry="18" fill="#8a76b3" stroke="#253646" stroke-width="4.3"></ellipse><path d="M225 420l-1 9 M213 421l-1 10" fill="none" stroke="#625c87" stroke-width="2.6" stroke-linejoin="round" stroke-linecap="round"></path><ellipse cx="299" cy="421" rx="35" ry="18" fill="#8a76b3" stroke="#253646" stroke-width="4.3"></ellipse><path d="M287 420l-1 9 M299 421l-1 10" fill="none" stroke="#625c87" stroke-width="2.6" stroke-linejoin="round" stroke-linecap="round"></path><path d="M195 306Q183 313 185 339L190 390Q191 416 219 416L298 416Q320 412 322 391L326 325Q325 303 303 303Z" fill="url(#body)" stroke="#253646" stroke-width="4.4" stroke-linejoin="round" stroke-linecap="round"></path><path d="M195 388Q236 404 320 377L318 398Q303 418 216 413Z" fill="#ac9ccc" stroke="none" stroke-width="0" stroke-linejoin="round" stroke-linecap="round"></path><path d="M225 323C209 345 213 377 233 391Q256 409 283 390C301 373 300 348 283 324Q254 307 225 323Z" fill="#ede9f1" stroke="#253646" stroke-width="3.0" stroke-linejoin="round" stroke-linecap="round"></path><path d="M244 385Q257 391 269 383" fill="none" stroke="#c3b9d7" stroke-width="2.5" stroke-linejoin="round" stroke-linecap="round"></path><path d="M154 202Q204 179 256 200Q303 176 354 197L354 323Q303 308 256 336Q201 315 154 329Z" fill="#8a76b3" stroke="#253646" stroke-width="4.4" stroke-linejoin="round" stroke-linecap="round"></path><path d="M166 213Q208 193 250 211L250 321Q206 301 166 315Z" fill="#ede9f1" stroke="#253646" stroke-width="2.8" stroke-linejoin="round" stroke-linecap="round"></path><path d="M261 211Q304 192 342 210L342 312Q298 304 261 322Z" fill="#f3f0f4" stroke="#253646" stroke-width="2.8" stroke-linejoin="round" stroke-linecap="round"></path><path d="M178 208L178 299 M332 211L332 298" fill="none" stroke="#cfc6de" stroke-width="2.3" stroke-linejoin="round" stroke-linecap="round"></path><g transform="rotate(0 208 265)"><ellipse cx="208" cy="265" rx="26" ry="31" fill="#fffefa" stroke="#253646" stroke-width="3.8"></ellipse><ellipse cx="207" cy="266" rx="19" ry="24" fill="url(#eye)" stroke="#253646" stroke-width="2.7"></ellipse><ellipse cx="206" cy="267" rx="10.29" ry="20.0" fill="#253646" stroke="none" stroke-width="0"></ellipse><ellipse cx="203" cy="252" rx="7.5" ry="10.2" fill="#fffefa" stroke="none" stroke-width="0"></ellipse><ellipse cx="215" cy="278" rx="4.2" ry="5.0" fill="#fffefa" stroke="none" stroke-width="0"></ellipse><path d="M181 254Q204 227 233 247" fill="none" stroke="#253646" stroke-width="5.4" stroke-linejoin="round" stroke-linecap="round"></path></g><ellipse cx="191" cy="302" rx="15" ry="5.5" fill="#eea0ac" stroke="none" stroke-width="0"></ellipse><g transform="rotate(0 304 265)"><ellipse cx="304" cy="265" rx="26" ry="31" fill="#fffefa" stroke="#253646" stroke-width="3.8"></ellipse><ellipse cx="305" cy="266" rx="19" ry="24" fill="url(#eye)" stroke="#253646" stroke-width="2.7"></ellipse><ellipse cx="306" cy="267" rx="10.29" ry="20.0" fill="#253646" stroke="none" stroke-width="0"></ellipse><ellipse cx="299" cy="252" rx="7.5" ry="10.2" fill="#fffefa" stroke="none" stroke-width="0"></ellipse><ellipse cx="311" cy="278" rx="4.2" ry="5.0" fill="#fffefa" stroke="none" stroke-width="0"></ellipse><path d="M277 254Q300 227 329 247" fill="none" stroke="#253646" stroke-width="5.4" stroke-linejoin="round" stroke-linecap="round"></path></g><ellipse cx="321" cy="302" rx="15" ry="5.5" fill="#eea0ac" stroke="none" stroke-width="0"></ellipse><path d="M250 291Q257 287 263 291Q258 298 254 296Z" fill="#253646" stroke="#253646" stroke-width="2" stroke-linejoin="round" stroke-linecap="round"></path><path d="M240 302Q249 313 256 304Q264 313 274 300" fill="none" stroke="#253646" stroke-width="3.2" stroke-linejoin="round" stroke-linecap="round"></path><path d="M197 283Q208 289 218 282" fill="none" stroke="#b2a4cb" stroke-width="2.1" stroke-linejoin="round" stroke-linecap="round"></path><path d="M193 231Q201 227 208 229" fill="none" stroke="#ede8f1" stroke-width="2.5" stroke-linejoin="round" stroke-linecap="round"></path><ellipse cx="191" cy="292" rx="1.35" ry="1.35" fill="#7b6ca3" stroke="none" stroke-width="0"></ellipse><ellipse cx="187" cy="297" rx="1.35" ry="1.35" fill="#7b6ca3" stroke="none" stroke-width="0"></ellipse><ellipse cx="183" cy="292" rx="1.35" ry="1.35" fill="#7b6ca3" stroke="none" stroke-width="0"></ellipse><path d="M183 306q-4 -2 -7 -6" fill="none" stroke="#ded6ea" stroke-width="1.8" stroke-linejoin="round" stroke-linecap="round"></path><path d="M180 313q-4 -2 -7 -6" fill="none" stroke="#ded6ea" stroke-width="1.8" stroke-linejoin="round" stroke-linecap="round"></path><path d="M177 320q-4 -2 -7 -6" fill="none" stroke="#ded6ea" stroke-width="1.8" stroke-linejoin="round" stroke-linecap="round"></path><path d="M201 350q-6 9 -5 20" fill="none" stroke="#e5deed" stroke-width="3" stroke-linejoin="round" stroke-linecap="round"></path><path d="M211 407q-9 -2 -13 3" fill="none" stroke="#c4bad6" stroke-width="3" stroke-linejoin="round" stroke-linecap="round"></path><ellipse cx="217" cy="416" rx="2.2" ry="2.2" fill="#dcd5e5" stroke="none" stroke-width="0"></ellipse><path d="M194 386q-7 -4 -9 -12" fill="none" stroke="#9a93b7" stroke-width="2.1" stroke-linejoin="round" stroke-linecap="round"></path><path d="M196 327l-5 -6l-4 5l5 6Z" fill="#ae9ece" stroke="none" stroke-width="0" stroke-linejoin="round" stroke-linecap="round"></path><path d="M293 283Q304 289 314 282" fill="none" stroke="#b2a4cb" stroke-width="2.1" stroke-linejoin="round" stroke-linecap="round"></path><path d="M289 231Q297 227 304 229" fill="none" stroke="#ede8f1" stroke-width="2.5" stroke-linejoin="round" stroke-linecap="round"></path><ellipse cx="321" cy="292" rx="1.35" ry="1.35" fill="#7b6ca3" stroke="none" stroke-width="0"></ellipse><ellipse cx="325" cy="297" rx="1.35" ry="1.35" fill="#7b6ca3" stroke="none" stroke-width="0"></ellipse><ellipse cx="329" cy="292" rx="1.35" ry="1.35" fill="#7b6ca3" stroke="none" stroke-width="0"></ellipse><path d="M329 306q4 -2 7 -6" fill="none" stroke="#ded6ea" stroke-width="1.8" stroke-linejoin="round" stroke-linecap="round"></path><path d="M332 313q4 -2 7 -6" fill="none" stroke="#ded6ea" stroke-width="1.8" stroke-linejoin="round" stroke-linecap="round"></path><path d="M335 320q4 -2 7 -6" fill="none" stroke="#ded6ea" stroke-width="1.8" stroke-linejoin="round" stroke-linecap="round"></path><path d="M311 350q6 9 5 20" fill="none" stroke="#e5deed" stroke-width="3" stroke-linejoin="round" stroke-linecap="round"></path><path d="M301 407q9 -2 13 3" fill="none" stroke="#c4bad6" stroke-width="3" stroke-linejoin="round" stroke-linecap="round"></path><ellipse cx="295" cy="416" rx="2.2" ry="2.2" fill="#dcd5e5" stroke="none" stroke-width="0"></ellipse><path d="M318 386q7 -4 9 -12" fill="none" stroke="#9a93b7" stroke-width="2.1" stroke-linejoin="round" stroke-linecap="round"></path><path d="M316 327l5 -6l4 5l-5 6Z" fill="#ae9ece" stroke="none" stroke-width="0" stroke-linejoin="round" stroke-linecap="round"></path><path d="M240 364q-2 8 0 12q2 -6 0 -12Z" fill="#f8f6f6" stroke="none" stroke-width="0" stroke-linejoin="round" stroke-linecap="round"></path><path d="M236 400q4 3 8 0" fill="none" stroke="#cfc6de" stroke-width="1.8" stroke-linejoin="round" stroke-linecap="round"></path><path d="M253 364q-2 8 0 12q2 -6 0 -12Z" fill="#f8f6f6" stroke="none" stroke-width="0" stroke-linejoin="round" stroke-linecap="round"></path><path d="M253 400q4 3 8 0" fill="none" stroke="#cfc6de" stroke-width="1.8" stroke-linejoin="round" stroke-linecap="round"></path><path d="M266 364q-2 8 0 12q2 -6 0 -12Z" fill="#f8f6f6" stroke="none" stroke-width="0" stroke-linejoin="round" stroke-linecap="round"></path><path d="M270 400q4 3 8 0" fill="none" stroke="#cfc6de" stroke-width="1.8" stroke-linejoin="round" stroke-linecap="round"></path><path d="M218 173Q238 165 256 177Q277 163 295 172L292 199Q277 193 256 205Q236 193 220 198Z" fill="#ede9f1" stroke="#253646" stroke-width="4.4" stroke-linejoin="round" stroke-linecap="round"></path><path d="M257 177V202 M228 181L247 185 M267 184L285 180" fill="none" stroke="#8a76b3" stroke-width="2.7" stroke-linejoin="round" stroke-linecap="round"></path><path d="M191 337L223 324L254 345L285 324L320 337L298 363L271 353L254 376L235 353L209 365Z" fill="#8a76b3" stroke="#253646" stroke-width="3.8" stroke-linejoin="round" stroke-linecap="round"></path><path d="M221 331L254 354L285 331L273 349L254 369L235 350Z" fill="#ede9f1" stroke="#253646" stroke-width="2.2" stroke-linejoin="round" stroke-linecap="round"></path><path d="M256 339 L269.3 354.2 267.02 371.3 256 377 244.98 371.3 242.7 354.2Z" fill="#f3cb78" stroke="#253646" stroke-width="3.5" stroke-linejoin="round" stroke-linecap="round"></path><path d="M256 339 L257.9 363.32 269.3 354.2Z" fill="#f8e2b2" stroke="none" stroke-width="0" stroke-linejoin="round" stroke-linecap="round"></path><path d="M242.7 354.2 L256 362.75 269.3 354.2 M256 362.75 L256 377" fill="none" stroke="#c0a66c" stroke-width="2" stroke-linejoin="round" stroke-linecap="round"></path><ellipse cx="201.25" cy="214.0" rx="7.7" ry="7.15" fill="#eea0ac" stroke="#253646" stroke-width="2.5"></ellipse><ellipse cx="195.55" cy="221.85" rx="7.7" ry="7.15" fill="#eea0ac" stroke="#253646" stroke-width="2.5"></ellipse><ellipse cx="186.33" cy="218.85" rx="7.7" ry="7.15" fill="#eea0ac" stroke="#253646" stroke-width="2.5"></ellipse><ellipse cx="186.33" cy="209.15" rx="7.7" ry="7.15" fill="#eea0ac" stroke="#253646" stroke-width="2.5"></ellipse><ellipse cx="195.55" cy="206.15" rx="7.7" ry="7.15" fill="#eea0ac" stroke="#253646" stroke-width="2.5"></ellipse><ellipse cx="193" cy="214" rx="5.5" ry="5.5" fill="#ffe39c" stroke="#253646" stroke-width="2.2"></ellipse><ellipse cx="329.0" cy="212.0" rx="8.4" ry="7.8" fill="#eea0ac" stroke="#253646" stroke-width="2.5"></ellipse><ellipse cx="322.78" cy="220.56" rx="8.4" ry="7.8" fill="#eea0ac" stroke="#253646" stroke-width="2.5"></ellipse><ellipse cx="312.72" cy="217.29" rx="8.4" ry="7.8" fill="#eea0ac" stroke="#253646" stroke-width="2.5"></ellipse><ellipse cx="312.72" cy="206.71" rx="8.4" ry="7.8" fill="#eea0ac" stroke="#253646" stroke-width="2.5"></ellipse><ellipse cx="322.78" cy="203.44" rx="8.4" ry="7.8" fill="#eea0ac" stroke="#253646" stroke-width="2.5"></ellipse><ellipse cx="320" cy="212" rx="6.0" ry="6.0" fill="#ffe39c" stroke="#253646" stroke-width="2.2"></ellipse><path d="M365.0 163.0 L366.97 167.28 L371.66 167.84 L368.2 171.04 L369.11 175.66 L365.0 173.36 L360.89 175.66 L361.8 171.04 L358.34 167.84 L363.03 167.28Z" fill="#f3cb78" stroke="#253646" stroke-width="3.7" stroke-linejoin="round" stroke-linecap="round"></path><path d="M363.74 167.55L365 165.8L366.05 168.95" fill="none" stroke="#fbefd3" stroke-width="3" stroke-linejoin="round" stroke-linecap="round"></path><path d="M382.0 177.0 L384.26 181.89 L389.61 182.53 L385.65 186.19 L386.7 191.47 L382.0 188.84 L377.3 191.47 L378.35 186.19 L374.39 182.53 L379.74 181.89Z" fill="#f3cb78" stroke="#253646" stroke-width="3.7" stroke-linejoin="round" stroke-linecap="round"></path><path d="M380.56 182.2L382 180.2L383.2 183.8" fill="none" stroke="#fbefd3" stroke-width="3" stroke-linejoin="round" stroke-linecap="round"></path><path d="M399.0 191.0 L401.54 196.51 L407.56 197.22 L403.11 201.33 L404.29 207.28 L399.0 204.32 L393.71 207.28 L394.89 201.33 L390.44 197.22 L396.46 196.51Z" fill="#f3cb78" stroke="#253646" stroke-width="3.7" stroke-linejoin="round" stroke-linecap="round"></path><path d="M397.38 196.85L399 194.6L400.35 198.65" fill="none" stroke="#fbefd3" stroke-width="3" stroke-linejoin="round" stroke-linecap="round"></path><ellipse cx="171" cy="357" rx="25" ry="27" fill="#bdafd9" stroke="#253646" stroke-width="4.3" transform="rotate(28 171 357)"></ellipse><ellipse cx="171" cy="364" rx="10" ry="11" fill="#ede9f1" stroke="#253646" stroke-width="2.2"></ellipse><path d="M164 348l-1 6M173 347v7" fill="none" stroke="#807f9e" stroke-width="2" stroke-linejoin="round" stroke-linecap="round"></path><path d="M160 354q-3 7 1 12" fill="none" stroke="#e8e2ee" stroke-width="2.5" stroke-linejoin="round" stroke-linecap="round"></path><ellipse cx="174" cy="361" rx="2.0" ry="2.0" fill="#faf8f7" stroke="none" stroke-width="0"></ellipse><ellipse cx="341" cy="357" rx="25" ry="27" fill="#bdafd9" stroke="#253646" stroke-width="4.3" transform="rotate(-28 341 357)"></ellipse><ellipse cx="341" cy="364" rx="10" ry="11" fill="#ede9f1" stroke="#253646" stroke-width="2.2"></ellipse><path d="M334 348l-1 6M343 347v7" fill="none" stroke="#807f9e" stroke-width="2" stroke-linejoin="round" stroke-linecap="round"></path><path d="M330 354q-3 7 1 12" fill="none" stroke="#e8e2ee" stroke-width="2.5" stroke-linejoin="round" stroke-linecap="round"></path><ellipse cx="344" cy="361" rx="2.0" ry="2.0" fill="#faf8f7" stroke="none" stroke-width="0"></ellipse><path d="M270 381L257 395L266 396L256 410L276 391H267Z" fill="#8a76b3" stroke="#253646" stroke-width="2" stroke-linejoin="round" stroke-linecap="round"></path></g></svg>