<svg xmlns="http://www.w3.org/2000/svg" width="1024" height="1024" viewBox="54.482 46.368 455.263 455.263" role="img" aria-label="엘루나르" data-species="eluna" data-form="eluna-2" data-source="original-vector-paths" preserveAspectRatio="xMidYMid meet" data-safe-fraction=".12"><title>엘루나르</title><defs><linearGradient id="body" x1="0" y1="0" x2=".3" y2="1"><stop stop-color="#90c5b4"></stop><stop offset=".72" stop-color="#74b7a3"></stop><stop offset="1" stop-color="#95b993"></stop></linearGradient><linearGradient id="eye" x1="0" y1="0" x2="0" y2="1"><stop stop-color="#253646"></stop><stop offset=".55" stop-color="#978d63"></stop><stop offset="1" stop-color="#d5bc73"></stop></linearGradient></defs><g transform="translate(-4.1 0) scale(1.02 1)"><path d="M301 338 C352 312 399 341 390 375 C381 410 339 413 305 397 C338 407 378 420 410 393 C443 361 416 306 381 295 L354 316 L316 323Z" fill="#d5bc73" stroke="#253646" stroke-width="4.4" stroke-linejoin="round" stroke-linecap="round"></path><path d="M345 395q7 -9 6 -21" fill="none" stroke="#a99a68" stroke-width="2.7" stroke-linejoin="round" stroke-linecap="round"></path><path d="M362 392q7 -9 6 -21" fill="none" stroke="#a99a68" stroke-width="2.7" stroke-linejoin="round" stroke-linecap="round"></path><path d="M379 389q7 -9 6 -21" fill="none" stroke="#a99a68" stroke-width="2.7" stroke-linejoin="round" stroke-linecap="round"></path><path d="M195 291L158 394Q188 379 208 405L250 353L305 404Q336 377 356 391L312 288Z" fill="#d5bc73" stroke="#253646" stroke-width="4.4" stroke-linejoin="round" stroke-linecap="round"></path><path d="M185 322L173 371 M327 319L340 370" fill="none" stroke="#d9ebe3" stroke-width="4" stroke-linejoin="round" stroke-linecap="round"></path><ellipse cx="213" cy="421" rx="35" ry="18" fill="#d5bc73" stroke="#253646" stroke-width="4.3"></ellipse><path d="M225 420l-1 9 M213 421l-1 10" fill="none" stroke="#8f8661" stroke-width="2.6" stroke-linejoin="round" stroke-linecap="round"></path><ellipse cx="299" cy="421" rx="35" ry="18" fill="#d5bc73" stroke="#253646" stroke-width="4.3"></ellipse><path d="M287 420l-1 9 M299 421l-1 10" fill="none" stroke="#8f8661" stroke-width="2.6" stroke-linejoin="round" stroke-linecap="round"></path><path d="M183 287 C166 327 175 381 204 408 C228 428 294 427 316 405 C341 378 345 322 324 284Z" fill="url(#body)" stroke="#253646" stroke-width="4.4" stroke-linejoin="round" stroke-linecap="round"></path><path d="M225 323C209 345 213 377 233 391Q256 409 283 390C301 373 300 348 283 324Q254 307 225 323Z" fill="#d9ebe3" stroke="#253646" stroke-width="3.0" stroke-linejoin="round" stroke-linecap="round"></path><path d="M244 385Q257 391 269 383" fill="none" stroke="#d7d7b4" stroke-width="2.5" stroke-linejoin="round" stroke-linecap="round"></path><path d="M163 239C176 195 219 192 258 195C304 184 350 208 359 254C375 302 342 340 297 350C230 367 182 342 159 314C145 289 145 268 163 239Z" fill="url(#body)" stroke="#253646" stroke-width="4.4" stroke-linejoin="round" stroke-linecap="round"></path><g transform="rotate(5 205 272)"><ellipse cx="205" cy="272" rx="28" ry="31" fill="#fffefa" stroke="#253646" stroke-width="3.8"></ellipse><ellipse cx="204" cy="273" rx="21" ry="24" fill="url(#eye)" stroke="#253646" stroke-width="2.7"></ellipse><ellipse cx="203" cy="274" rx="11.27" ry="20.0" fill="#253646" stroke="none" stroke-width="0"></ellipse><ellipse cx="200" cy="259" rx="7.5" ry="10.2" fill="#fffefa" stroke="none" stroke-width="0"></ellipse><ellipse cx="212" cy="285" rx="4.2" ry="5.0" fill="#fffefa" stroke="none" stroke-width="0"></ellipse><path d="M176 261Q201 234 232 254" fill="none" stroke="#253646" stroke-width="5.4" stroke-linejoin="round" stroke-linecap="round"></path></g><ellipse cx="188" cy="309" rx="15" ry="5.5" fill="#eea0ac" stroke="none" stroke-width="0"></ellipse><g transform="rotate(-5 307 272)"><ellipse cx="307" cy="272" rx="28" ry="31" fill="#fffefa" stroke="#253646" stroke-width="3.8"></ellipse><ellipse cx="308" cy="273" rx="21" ry="24" fill="url(#eye)" stroke="#253646" stroke-width="2.7"></ellipse><ellipse cx="309" cy="274" rx="11.27" ry="20.0" fill="#253646" stroke="none" stroke-width="0"></ellipse><ellipse cx="302" cy="259" rx="7.5" ry="10.2" fill="#fffefa" stroke="none" stroke-width="0"></ellipse><ellipse cx="314" cy="285" rx="4.2" ry="5.0" fill="#fffefa" stroke="none" stroke-width="0"></ellipse><path d="M278 261Q303 234 334 254" fill="none" stroke="#253646" stroke-width="5.4" stroke-linejoin="round" stroke-linecap="round"></path></g><ellipse cx="324" cy="309" rx="15" ry="5.5" fill="#eea0ac" stroke="none" stroke-width="0"></ellipse><path d="M250 298Q257 294 263 298Q258 305 254 303Z" fill="#253646" stroke="#253646" stroke-width="2" stroke-linejoin="round" stroke-linecap="round"></path><path d="M240 309Q249 320 256 311Q264 320 274 307" fill="none" stroke="#253646" stroke-width="3.2" stroke-linejoin="round" stroke-linecap="round"></path><path d="M194 290Q205 296 215 289" fill="none" stroke="#e3d2a1" stroke-width="2.1" stroke-linejoin="round" stroke-linecap="round"></path><path d="M190 238Q198 234 205 236" fill="none" stroke="#d8eae2" stroke-width="2.5" stroke-linejoin="round" stroke-linecap="round"></path><ellipse cx="188" cy="299" rx="1.35" ry="1.35" fill="#bba86c" stroke="none" stroke-width="0"></ellipse><ellipse cx="184" cy="304" rx="1.35" ry="1.35" fill="#bba86c" stroke="none" stroke-width="0"></ellipse><ellipse cx="180" cy="299" rx="1.35" ry="1.35" fill="#bba86c" stroke="none" stroke-width="0"></ellipse><path d="M183 306q-4 -2 -7 -6" fill="none" stroke="#badace" stroke-width="1.8" stroke-linejoin="round" stroke-linecap="round"></path><path d="M180 313q-4 -2 -7 -6" fill="none" stroke="#badace" stroke-width="1.8" stroke-linejoin="round" stroke-linecap="round"></path><path d="M177 320q-4 -2 -7 -6" fill="none" stroke="#badace" stroke-width="1.8" stroke-linejoin="round" stroke-linecap="round"></path><path d="M201 350q-6 9 -5 20" fill="none" stroke="#c7e2d7" stroke-width="3" stroke-linejoin="round" stroke-linecap="round"></path><path d="M211 407q-9 -2 -13 3" fill="none" stroke="#eaddb6" stroke-width="3" stroke-linejoin="round" stroke-linecap="round"></path><ellipse cx="217" cy="416" rx="2.2" ry="2.2" fill="#f2ead2" stroke="none" stroke-width="0"></ellipse><path d="M194 386q-7 -4 -9 -12" fill="none" stroke="#62998e" stroke-width="2.1" stroke-linejoin="round" stroke-linecap="round"></path><path d="M198 332q-5 -8 -8 -6" fill="none" stroke="#9bb990" stroke-width="2.6" stroke-linejoin="round" stroke-linecap="round"></path><path d="M296 290Q307 296 317 289" fill="none" stroke="#e3d2a1" stroke-width="2.1" stroke-linejoin="round" stroke-linecap="round"></path><path d="M292 238Q300 234 307 236" fill="none" stroke="#d8eae2" stroke-width="2.5" stroke-linejoin="round" stroke-linecap="round"></path><ellipse cx="324" cy="299" rx="1.35" ry="1.35" fill="#bba86c" stroke="none" stroke-width="0"></ellipse><ellipse cx="328" cy="304" rx="1.35" ry="1.35" fill="#bba86c" stroke="none" stroke-width="0"></ellipse><ellipse cx="332" cy="299" rx="1.35" ry="1.35" fill="#bba86c" stroke="none" stroke-width="0"></ellipse><path d="M329 306q4 -2 7 -6" fill="none" stroke="#badace" stroke-width="1.8" stroke-linejoin="round" stroke-linecap="round"></path><path d="M332 313q4 -2 7 -6" fill="none" stroke="#badace" stroke-width="1.8" stroke-linejoin="round" stroke-linecap="round"></path><path d="M335 320q4 -2 7 -6" fill="none" stroke="#badace" stroke-width="1.8" stroke-linejoin="round" stroke-linecap="round"></path><path d="M311 350q6 9 5 20" fill="none" stroke="#c7e2d7" stroke-width="3" stroke-linejoin="round" stroke-linecap="round"></path><path d="M301 407q9 -2 13 3" fill="none" stroke="#eaddb6" stroke-width="3" stroke-linejoin="round" stroke-linecap="round"></path><ellipse cx="295" cy="416" rx="2.2" ry="2.2" fill="#f2ead2" stroke="none" stroke-width="0"></ellipse><path d="M318 386q7 -4 9 -12" fill="none" stroke="#62998e" stroke-width="2.1" stroke-linejoin="round" stroke-linecap="round"></path><path d="M314 332q5 -8 8 -6" fill="none" stroke="#9bb990" stroke-width="2.6" stroke-linejoin="round" stroke-linecap="round"></path><path d="M240 364q-2 8 0 12q2 -6 0 -12Z" fill="#f0f6f1" stroke="none" stroke-width="0" stroke-linejoin="round" stroke-linecap="round"></path><path d="M236 400q4 3 8 0" fill="none" stroke="#d8ddc1" stroke-width="1.8" stroke-linejoin="round" stroke-linecap="round"></path><path d="M253 364q-2 8 0 12q2 -6 0 -12Z" fill="#f0f6f1" stroke="none" stroke-width="0" stroke-linejoin="round" stroke-linecap="round"></path><path d="M253 400q4 3 8 0" fill="none" stroke="#d8ddc1" stroke-width="1.8" stroke-linejoin="round" stroke-linecap="round"></path><path d="M266 364q-2 8 0 12q2 -6 0 -12Z" fill="#f0f6f1" stroke="none" stroke-width="0" stroke-linejoin="round" stroke-linecap="round"></path><path d="M270 400q4 3 8 0" fill="none" stroke="#d8ddc1" stroke-width="1.8" stroke-linejoin="round" stroke-linecap="round"></path><g transform="translate(198 184) rotate(-26)"><path d="M0 0 C-17 -21.0 -10.71 -51.8 0 -70 C13.600000000000001 -49.0 14.62 -21.0 0 0Z" fill="#d5bc73" stroke="#253646" stroke-width="4.4" stroke-linejoin="round" stroke-linecap="round"></path><path d="M0 -7 Q9.350000000000001 -22.400000000000002 0 -61 L0 -7Z" fill="#b9a76c" stroke="none" stroke-width="0" stroke-linejoin="round" stroke-linecap="round"></path><path d="M0 -5 Q-3 -31.5 0 -56" fill="none" stroke="#968c63" stroke-width="2.2" stroke-linejoin="round" stroke-linecap="round"></path><path d="M-3.74 -19.6 Q-6.800000000000001 -39.2 -3 -52.5" fill="none" stroke="#ece0bd" stroke-width="3.5" stroke-linejoin="round" stroke-linecap="round"></path></g><ellipse cx="202.5" cy="175.0" rx="4.2" ry="3.9" fill="#f3cb78" stroke="#253646" stroke-width="2.5"></ellipse><ellipse cx="199.39" cy="179.28" rx="4.2" ry="3.9" fill="#f3cb78" stroke="#253646" stroke-width="2.5"></ellipse><ellipse cx="194.36" cy="177.65" rx="4.2" ry="3.9" fill="#f3cb78" stroke="#253646" stroke-width="2.5"></ellipse><ellipse cx="194.36" cy="172.35" rx="4.2" ry="3.9" fill="#f3cb78" stroke="#253646" stroke-width="2.5"></ellipse><ellipse cx="199.39" cy="170.72" rx="4.2" ry="3.9" fill="#f3cb78" stroke="#253646" stroke-width="2.5"></ellipse><ellipse cx="198" cy="175" rx="3.0" ry="3.0" fill="#ffe39c" stroke="#253646" stroke-width="2.2"></ellipse><g transform="translate(307 184) rotate(26)"><path d="M0 0 C-17 -21.0 -10.71 -51.8 0 -70 C13.600000000000001 -49.0 14.62 -21.0 0 0Z" fill="#d5bc73" stroke="#253646" stroke-width="4.4" stroke-linejoin="round" stroke-linecap="round"></path><path d="M0 -7 Q9.350000000000001 -22.400000000000002 0 -61 L0 -7Z" fill="#b9a76c" stroke="none" stroke-width="0" stroke-linejoin="round" stroke-linecap="round"></path><path d="M0 -5 Q-3 -31.5 0 -56" fill="none" stroke="#968c63" stroke-width="2.2" stroke-linejoin="round" stroke-linecap="round"></path><path d="M-3.74 -19.6 Q-6.800000000000001 -39.2 -3 -52.5" fill="none" stroke="#ece0bd" stroke-width="3.5" stroke-linejoin="round" stroke-linecap="round"></path></g><ellipse cx="311.5" cy="175.0" rx="4.2" ry="3.9" fill="#f3cb78" stroke="#253646" stroke-width="2.5"></ellipse><ellipse cx="308.39" cy="179.28" rx="4.2" ry="3.9" fill="#f3cb78" stroke="#253646" stroke-width="2.5"></ellipse><ellipse cx="303.36" cy="177.65" rx="4.2" ry="3.9" fill="#f3cb78" stroke="#253646" stroke-width="2.5"></ellipse><ellipse cx="303.36" cy="172.35" rx="4.2" ry="3.9" fill="#f3cb78" stroke="#253646" stroke-width="2.5"></ellipse><ellipse cx="308.39" cy="170.72" rx="4.2" ry="3.9" fill="#f3cb78" stroke="#253646" stroke-width="2.5"></ellipse><ellipse cx="307" cy="175" rx="3.0" ry="3.0" fill="#ffe39c" stroke="#253646" stroke-width="2.2"></ellipse><path d="M191 337L223 324L254 345L285 324L320 337L298 363L271 353L254 376L235 353L209 365Z" fill="#d5bc73" stroke="#253646" stroke-width="3.8" stroke-linejoin="round" stroke-linecap="round"></path><path d="M221 331L254 354L285 331L273 349L254 369L235 350Z" fill="#d9ebe3" stroke="#253646" stroke-width="2.2" stroke-linejoin="round" stroke-linecap="round"></path><path d="M256 339 L269.3 354.2 267.02 371.3 256 377 244.98 371.3 242.7 354.2Z" fill="#f3cb78" stroke="#253646" stroke-width="3.5" stroke-linejoin="round" stroke-linecap="round"></path><path d="M256 339 L257.9 363.32 269.3 354.2Z" fill="#f8e2b2" stroke="none" stroke-width="0" stroke-linejoin="round" stroke-linecap="round"></path><path d="M242.7 354.2 L256 362.75 269.3 354.2 M256 362.75 L256 377" fill="none" stroke="#c0a66c" stroke-width="2" stroke-linejoin="round" stroke-linecap="round"></path><path d="M219 153L215 122L237 135L256 109L275 135L299 121L294 154Z" fill="#f3cb78" stroke="#253646" stroke-width="4" stroke-linejoin="round" stroke-linecap="round"></path><path d="M225 147H287" fill="none" stroke="#d9ebe3" stroke-width="4" stroke-linejoin="round" stroke-linecap="round"></path><path d="M256 131 L261.6 137.4 260.64 144.6 256 147 251.36 144.6 250.4 137.4Z" fill="#d5bc73" stroke="#253646" stroke-width="3.5" stroke-linejoin="round" stroke-linecap="round"></path><path d="M256 131 L256.8 141.24 261.6 137.4Z" fill="#e8dab0" stroke="none" stroke-width="0" stroke-linejoin="round" stroke-linecap="round"></path><path d="M250.4 137.4 L256 141.0 261.6 137.4 M256 141.0 L256 147" fill="none" stroke="#a99a68" stroke-width="2" stroke-linejoin="round" stroke-linecap="round"></path><ellipse cx="171" cy="357" rx="25" ry="27" fill="#74b7a3" stroke="#253646" stroke-width="4.3" transform="rotate(28 171 357)"></ellipse><ellipse cx="171" cy="364" rx="10" ry="11" fill="#d9ebe3" stroke="#253646" stroke-width="2.2"></ellipse><path d="M164 348l-1 6M173 347v7" fill="none" stroke="#54837e" stroke-width="2" stroke-linejoin="round" stroke-linecap="round"></path><path d="M160 354q-3 7 1 12" fill="none" stroke="#cee5dc" stroke-width="2.5" stroke-linejoin="round" stroke-linecap="round"></path><ellipse cx="174" cy="361" rx="2.0" ry="2.0" fill="#f4f8f3" stroke="none" stroke-width="0"></ellipse><ellipse cx="341" cy="357" rx="25" ry="27" fill="#74b7a3" stroke="#253646" stroke-width="4.3" transform="rotate(-28 341 357)"></ellipse><ellipse cx="341" cy="364" rx="10" ry="11" fill="#d9ebe3" stroke="#253646" stroke-width="2.2"></ellipse><path d="M334 348l-1 6M343 347v7" fill="none" stroke="#54837e" stroke-width="2" stroke-linejoin="round" stroke-linecap="round"></path><path d="M330 354q-3 7 1 12" fill="none" stroke="#cee5dc" stroke-width="2.5" stroke-linejoin="round" stroke-linecap="round"></path><ellipse cx="344" cy="361" rx="2.0" ry="2.0" fill="#f4f8f3" stroke="none" stroke-width="0"></ellipse><ellipse cx="261.75" cy="394.0" rx="3.5" ry="3.25" fill="#d5bc73" stroke="#253646" stroke-width="2.5"></ellipse><ellipse cx="259.16" cy="397.57" rx="3.5" ry="3.25" fill="#d5bc73" stroke="#253646" stroke-width="2.5"></ellipse><ellipse cx="254.97" cy="396.2" rx="3.5" ry="3.25" fill="#d5bc73" stroke="#253646" stroke-width="2.5"></ellipse><ellipse cx="254.97" cy="391.8" rx="3.5" ry="3.25" fill="#d5bc73" stroke="#253646" stroke-width="2.5"></ellipse><ellipse cx="259.16" cy="390.43" rx="3.5" ry="3.25" fill="#d5bc73" stroke="#253646" stroke-width="2.5"></ellipse><ellipse cx="258" cy="394" rx="2.5" ry="2.5" fill="#ffe39c" stroke="#253646" stroke-width="2.2"></ellipse></g></svg>