<svg xmlns="http://www.w3.org/2000/svg" width="1024" height="1024" viewBox="57.020 95.000 400.000 400.000" role="img" aria-label="불빛램피" data-species="lampi" data-form="lampi-1" data-source="original-vector-paths" preserveAspectRatio="xMidYMid meet" data-safe-fraction=".12"><title>불빛램피</title><defs><linearGradient id="body" x1="0" y1="0" x2=".3" y2="1"><stop stop-color="#eedbab"></stop><stop offset=".72" stop-color="#ead297"></stop><stop offset="1" stop-color="#d0bca5"></stop></linearGradient><linearGradient id="eye" x1="0" y1="0" x2="0" y2="1"><stop stop-color="#253646"></stop><stop offset=".55" stop-color="#747196"></stop><stop offset="1" stop-color="#9f91c1"></stop></linearGradient></defs><g transform="translate(16.38 0) scale(0.94 1)"><path d="M186 286 L139 278 L126 338 L171 365Z" fill="#9f91c1" stroke="#253646" stroke-width="4.4" stroke-linejoin="round" stroke-linecap="round"></path><path d="M326 286 L373 278 L386 338 L341 365Z" fill="#9f91c1" stroke="#253646" stroke-width="4.4" stroke-linejoin="round" stroke-linecap="round"></path><ellipse cx="213" cy="421" rx="33" ry="18" fill="#9f91c1" stroke="#253646" stroke-width="4.3"></ellipse><path d="M225 420l-1 9 M213 421l-1 10" fill="none" stroke="#6e6d90" stroke-width="2.6" stroke-linejoin="round" stroke-linecap="round"></path><ellipse cx="299" cy="421" rx="33" ry="18" fill="#9f91c1" stroke="#253646" stroke-width="4.3"></ellipse><path d="M287 420l-1 9 M299 421l-1 10" fill="none" stroke="#6e6d90" stroke-width="2.6" stroke-linejoin="round" stroke-linecap="round"></path><path d="M188 287 C166 327 175 381 204 408 C228 428 294 427 316 405 C341 378 345 322 320 284Z" fill="url(#body)" stroke="#253646" stroke-width="4.4" stroke-linejoin="round" stroke-linecap="round"></path><path d="M225 323C209 345 213 377 233 391Q256 409 283 390C301 373 300 348 283 324Q254 307 225 323Z" fill="#f9f2df" stroke="#253646" stroke-width="3.0" stroke-linejoin="round" stroke-linecap="round"></path><path d="M244 385Q257 391 269 383" fill="none" stroke="#d3c9d2" stroke-width="2.5" stroke-linejoin="round" stroke-linecap="round"></path><path d="M190 208Q171 208 171 227L156 290Q151 331 189 344Q260 365 327 342Q366 328 356 288L336 221Q334 203 314 206Z" fill="url(#body)" stroke="#253646" stroke-width="4.4" stroke-linejoin="round" stroke-linecap="round"></path><path d="M179 203Q259 182 334 203L336 221Q252 234 175 219Z" fill="#9f91c1" stroke="#253646" stroke-width="4.4" stroke-linejoin="round" stroke-linecap="round"></path><path d="M194 207Q259 195 317 207" fill="none" stroke="#f9f2df" stroke-width="5" stroke-linejoin="round" stroke-linecap="round"></path><g transform="rotate(0 214 272)"><ellipse cx="214" cy="272" rx="26" ry="34" fill="#fffefa" stroke="#253646" stroke-width="3.8"></ellipse><ellipse cx="213" cy="273" rx="19" ry="27" fill="url(#eye)" stroke="#253646" stroke-width="2.7"></ellipse><ellipse cx="212" cy="274" rx="10.29" ry="22.4" fill="#253646" stroke="none" stroke-width="0"></ellipse><ellipse cx="209" cy="259" rx="7.5" ry="10.2" fill="#fffefa" stroke="none" stroke-width="0"></ellipse><ellipse cx="221" cy="285" rx="4.2" ry="5.0" fill="#fffefa" stroke="none" stroke-width="0"></ellipse><path d="M187 261Q210 231 239 254" fill="none" stroke="#253646" stroke-width="4.6" stroke-linejoin="round" stroke-linecap="round"></path></g><ellipse cx="197" cy="309" rx="15" ry="5.5" fill="#eea0ac" stroke="none" stroke-width="0"></ellipse><g transform="rotate(0 298 272)"><ellipse cx="298" cy="272" rx="26" ry="34" fill="#fffefa" stroke="#253646" stroke-width="3.8"></ellipse><ellipse cx="299" cy="273" rx="19" ry="27" fill="url(#eye)" stroke="#253646" stroke-width="2.7"></ellipse><ellipse cx="300" cy="274" rx="10.29" ry="22.4" fill="#253646" stroke="none" stroke-width="0"></ellipse><ellipse cx="293" cy="259" rx="7.5" ry="10.2" fill="#fffefa" stroke="none" stroke-width="0"></ellipse><ellipse cx="305" cy="285" rx="4.2" ry="5.0" fill="#fffefa" stroke="none" stroke-width="0"></ellipse><path d="M271 261Q294 231 323 254" fill="none" stroke="#253646" stroke-width="4.6" stroke-linejoin="round" stroke-linecap="round"></path></g><ellipse cx="315" cy="309" rx="15" ry="5.5" fill="#eea0ac" stroke="none" stroke-width="0"></ellipse><path d="M250 298Q257 294 263 298Q258 305 254 303Z" fill="#253646" stroke="#253646" stroke-width="2" stroke-linejoin="round" stroke-linecap="round"></path><path d="M240 309Q249 320 256 311Q264 320 274 307" fill="none" stroke="#253646" stroke-width="3.2" stroke-linejoin="round" stroke-linecap="round"></path><path d="M203 293Q214 299 224 292" fill="none" stroke="#c0b6d4" stroke-width="2.1" stroke-linejoin="round" stroke-linecap="round"></path><path d="M199 235Q207 231 214 233" fill="none" stroke="#f9f2de" stroke-width="2.5" stroke-linejoin="round" stroke-linecap="round"></path><ellipse cx="197" cy="299" rx="1.35" ry="1.35" fill="#8d83af" stroke="none" stroke-width="0"></ellipse><ellipse cx="193" cy="304" rx="1.35" ry="1.35" fill="#8d83af" stroke="none" stroke-width="0"></ellipse><ellipse cx="189" cy="299" rx="1.35" ry="1.35" fill="#8d83af" stroke="none" stroke-width="0"></ellipse><path d="M183 306q-4 -2 -7 -6" fill="none" stroke="#f4e8c8" stroke-width="1.8" stroke-linejoin="round" stroke-linecap="round"></path><path d="M180 313q-4 -2 -7 -6" fill="none" stroke="#f4e8c8" stroke-width="1.8" stroke-linejoin="round" stroke-linecap="round"></path><path d="M177 320q-4 -2 -7 -6" fill="none" stroke="#f4e8c8" stroke-width="1.8" stroke-linejoin="round" stroke-linecap="round"></path><path d="M201 350q-6 9 -5 20" fill="none" stroke="#f7ecd2" stroke-width="3" stroke-linejoin="round" stroke-linecap="round"></path><path d="M211 407q-9 -2 -13 3" fill="none" stroke="#cfc8de" stroke-width="3" stroke-linejoin="round" stroke-linecap="round"></path><ellipse cx="217" cy="416" rx="2.2" ry="2.2" fill="#e2dde9" stroke="none" stroke-width="0"></ellipse><path d="M194 386q-7 -4 -9 -12" fill="none" stroke="#bdae84" stroke-width="2.1" stroke-linejoin="round" stroke-linecap="round"></path><path d="M196 327l-5 -6l-4 5l5 6Z" fill="#d4bea4" stroke="none" stroke-width="0" stroke-linejoin="round" stroke-linecap="round"></path><path d="M287 293Q298 299 308 292" fill="none" stroke="#c0b6d4" stroke-width="2.1" stroke-linejoin="round" stroke-linecap="round"></path><path d="M283 235Q291 231 298 233" fill="none" stroke="#f9f2de" stroke-width="2.5" stroke-linejoin="round" stroke-linecap="round"></path><ellipse cx="315" cy="299" rx="1.35" ry="1.35" fill="#8d83af" stroke="none" stroke-width="0"></ellipse><ellipse cx="319" cy="304" rx="1.35" ry="1.35" fill="#8d83af" stroke="none" stroke-width="0"></ellipse><ellipse cx="323" cy="299" rx="1.35" ry="1.35" fill="#8d83af" stroke="none" stroke-width="0"></ellipse><path d="M329 306q4 -2 7 -6" fill="none" stroke="#f4e8c8" stroke-width="1.8" stroke-linejoin="round" stroke-linecap="round"></path><path d="M332 313q4 -2 7 -6" fill="none" stroke="#f4e8c8" stroke-width="1.8" stroke-linejoin="round" stroke-linecap="round"></path><path d="M335 320q4 -2 7 -6" fill="none" stroke="#f4e8c8" stroke-width="1.8" stroke-linejoin="round" stroke-linecap="round"></path><path d="M311 350q6 9 5 20" fill="none" stroke="#f7ecd2" stroke-width="3" stroke-linejoin="round" stroke-linecap="round"></path><path d="M301 407q9 -2 13 3" fill="none" stroke="#cfc8de" stroke-width="3" stroke-linejoin="round" stroke-linecap="round"></path><ellipse cx="295" cy="416" rx="2.2" ry="2.2" fill="#e2dde9" stroke="none" stroke-width="0"></ellipse><path d="M318 386q7 -4 9 -12" fill="none" stroke="#bdae84" stroke-width="2.1" stroke-linejoin="round" stroke-linecap="round"></path><path d="M316 327l5 -6l4 5l-5 6Z" fill="#d4bea4" stroke="none" stroke-width="0" stroke-linejoin="round" stroke-linecap="round"></path><path d="M240 364q-2 8 0 12q2 -6 0 -12Z" fill="#fdf9ef" stroke="none" stroke-width="0" stroke-linejoin="round" stroke-linecap="round"></path><path d="M236 400q4 3 8 0" fill="none" stroke="#ded5d6" stroke-width="1.8" stroke-linejoin="round" stroke-linecap="round"></path><path d="M253 364q-2 8 0 12q2 -6 0 -12Z" fill="#fdf9ef" stroke="none" stroke-width="0" stroke-linejoin="round" stroke-linecap="round"></path><path d="M253 400q4 3 8 0" fill="none" stroke="#ded5d6" stroke-width="1.8" stroke-linejoin="round" stroke-linecap="round"></path><path d="M266 364q-2 8 0 12q2 -6 0 -12Z" fill="#fdf9ef" stroke="none" stroke-width="0" stroke-linejoin="round" stroke-linecap="round"></path><path d="M270 400q4 3 8 0" fill="none" stroke="#ded5d6" stroke-width="1.8" stroke-linejoin="round" stroke-linecap="round"></path><path d="M234 181Q233 151 256 151Q280 153 280 181L291 195H221Z" fill="#f3cb78" stroke="#253646" stroke-width="4.4" stroke-linejoin="round" stroke-linecap="round"></path><ellipse cx="256" cy="197" rx="22" ry="7" fill="#9f91c1" stroke="#253646" stroke-width="2.7"></ellipse><ellipse cx="256" cy="204" rx="7" ry="7" fill="#f3cb78" stroke="#253646" stroke-width="2.2"></ellipse><path d="M191 337L223 324L254 345L285 324L320 337L298 363L271 353L254 376L235 353L209 365Z" fill="#9f91c1" stroke="#253646" stroke-width="3.8" stroke-linejoin="round" stroke-linecap="round"></path><path d="M221 331L254 354L285 331L273 349L254 369L235 350Z" fill="#f9f2df" stroke="#253646" stroke-width="2.2" stroke-linejoin="round" stroke-linecap="round"></path><path d="M256 342 L267.2 354.8 265.28 369.2 256 374 246.72 369.2 244.8 354.8Z" fill="#f3cb78" stroke="#253646" stroke-width="3.5" stroke-linejoin="round" stroke-linecap="round"></path><path d="M256 342 L257.6 362.48 267.2 354.8Z" fill="#f8e2b2" stroke="none" stroke-width="0" stroke-linejoin="round" stroke-linecap="round"></path><path d="M244.8 354.8 L256 362.0 267.2 354.8 M256 362.0 L256 374" fill="none" stroke="#c0a66c" stroke-width="2" stroke-linejoin="round" stroke-linecap="round"></path><ellipse cx="177" cy="357" rx="23" ry="27" fill="#ead297" stroke="#253646" stroke-width="4.3" transform="rotate(28 177 357)"></ellipse><ellipse cx="177" cy="364" rx="10" ry="11" fill="#f9f2df" stroke="#253646" stroke-width="2.2"></ellipse><path d="M170 348l-1 6M179 347v7" fill="none" stroke="#9b9477" stroke-width="2" stroke-linejoin="round" stroke-linecap="round"></path><path d="M166 354q-3 7 1 12" fill="none" stroke="#f8efd7" stroke-width="2.5" stroke-linejoin="round" stroke-linecap="round"></path><ellipse cx="180" cy="361" rx="2.0" ry="2.0" fill="#fdfaf2" stroke="none" stroke-width="0"></ellipse><ellipse cx="335" cy="357" rx="23" ry="27" fill="#ead297" stroke="#253646" stroke-width="4.3" transform="rotate(-28 335 357)"></ellipse><ellipse cx="335" cy="364" rx="10" ry="11" fill="#f9f2df" stroke="#253646" stroke-width="2.2"></ellipse><path d="M328 348l-1 6M337 347v7" fill="none" stroke="#9b9477" stroke-width="2" stroke-linejoin="round" stroke-linecap="round"></path><path d="M324 354q-3 7 1 12" fill="none" stroke="#f8efd7" stroke-width="2.5" stroke-linejoin="round" stroke-linecap="round"></path><ellipse cx="338" cy="361" rx="2.0" ry="2.0" fill="#fdfaf2" stroke="none" stroke-width="0"></ellipse><path d="M247 381L265 381L270 394Q261 407 255 408Q244 401 242 393Z" fill="#9f91c1" stroke="#253646" stroke-width="2.2" stroke-linejoin="round" stroke-linecap="round"></path><path d="M252 386L255 400L263 388" fill="none" stroke="#f9f2df" stroke-width="2" stroke-linejoin="round" stroke-linecap="round"></path></g></svg>