<svg xmlns="http://www.w3.org/2000/svg" width="1024" height="1024" viewBox="22.599 26.459 477.887 477.887" role="img" aria-label="모리콩" data-species="mori" data-form="mori-0" data-source="original-vector-paths" preserveAspectRatio="xMidYMid meet" data-safe-fraction=".12"><title>모리콩</title><defs><linearGradient id="body" x1="0" y1="0" x2=".3" y2="1"><stop stop-color="#b4d879"></stop><stop offset=".72" stop-color="#a1cf59"></stop><stop offset="1" stop-color="#80bb5b"></stop></linearGradient><linearGradient id="eye" x1="0" y1="0" x2="0" y2="1"><stop stop-color="#253646"></stop><stop offset=".55" stop-color="#367456"></stop><stop offset="1" stop-color="#3f955e"></stop></linearGradient></defs><g transform="translate(16.38 0) scale(0.94 1)"><ellipse cx="213" cy="421" rx="31" ry="18" fill="#3f955e" stroke="#253646" stroke-width="4.3"></ellipse><path d="M225 420l-1 9 M213 421l-1 10" fill="none" stroke="#356f54" stroke-width="2.6" stroke-linejoin="round" stroke-linecap="round"></path><ellipse cx="299" cy="421" rx="31" ry="18" fill="#3f955e" stroke="#253646" stroke-width="4.3"></ellipse><path d="M287 420l-1 9 M299 421l-1 10" fill="none" stroke="#356f54" stroke-width="2.6" stroke-linejoin="round" stroke-linecap="round"></path><path d="M193 287 C166 327 175 381 204 408 C228 428 294 427 316 405 C341 378 345 322 316 284Z" fill="url(#body)" stroke="#253646" stroke-width="4.4" stroke-linejoin="round" stroke-linecap="round"></path><path d="M225 323C209 345 213 377 233 391Q256 409 283 390C301 373 300 348 283 324Q254 307 225 323Z" fill="#e6f1cf" stroke="#253646" stroke-width="3.0" stroke-linejoin="round" stroke-linecap="round"></path><path d="M244 385Q257 391 269 383" fill="none" stroke="#a0caa0" stroke-width="2.5" stroke-linejoin="round" stroke-linecap="round"></path><path d="M181 217Q151 228 153 263L138 278L154 291L145 313L177 320Q189 352 256 357Q321 359 339 319L366 310L354 289L371 276L355 262Q357 229 327 215Q290 188 255 196Q205 186 181 217Z" fill="url(#body)" stroke="#253646" stroke-width="4.4" stroke-linejoin="round" stroke-linecap="round"></path><path d="M202 249Q183 274 191 309C204 350 311 354 325 308Q332 276 309 248L288 259L256 238L226 260Z" fill="#edf5b1" stroke="#253646" stroke-width="3.1" stroke-linejoin="round" stroke-linecap="round"></path><g transform="rotate(-3 214 272)"><ellipse cx="214" cy="272" rx="26" ry="36" fill="#fffefa" stroke="#253646" stroke-width="3.8"></ellipse><ellipse cx="213" cy="273" rx="19" ry="29" fill="url(#eye)" stroke="#253646" stroke-width="2.7"></ellipse><ellipse cx="212" cy="274" rx="10.29" ry="24.0" fill="#253646" stroke="none" stroke-width="0"></ellipse><ellipse cx="209" cy="259" rx="7.5" ry="10.2" fill="#fffefa" stroke="none" stroke-width="0"></ellipse><ellipse cx="221" cy="285" rx="4.2" ry="5.0" fill="#fffefa" stroke="none" stroke-width="0"></ellipse><path d="M187 261Q210 229 239 254" fill="none" stroke="#253646" stroke-width="4.6" stroke-linejoin="round" stroke-linecap="round"></path></g><ellipse cx="197" cy="309" rx="15" ry="5.5" fill="#eea0ac" stroke="none" stroke-width="0"></ellipse><path d="M208 227q6 -5 13 -2" fill="none" stroke="#3c8a5b" stroke-width="4" stroke-linejoin="round" stroke-linecap="round"></path><g transform="rotate(3 298 272)"><ellipse cx="298" cy="272" rx="26" ry="36" fill="#fffefa" stroke="#253646" stroke-width="3.8"></ellipse><ellipse cx="299" cy="273" rx="19" ry="29" fill="url(#eye)" stroke="#253646" stroke-width="2.7"></ellipse><ellipse cx="300" cy="274" rx="10.29" ry="24.0" fill="#253646" stroke="none" stroke-width="0"></ellipse><ellipse cx="293" cy="259" rx="7.5" ry="10.2" fill="#fffefa" stroke="none" stroke-width="0"></ellipse><ellipse cx="305" cy="285" rx="4.2" ry="5.0" fill="#fffefa" stroke="none" stroke-width="0"></ellipse><path d="M271 261Q294 229 323 254" fill="none" stroke="#253646" stroke-width="4.6" stroke-linejoin="round" stroke-linecap="round"></path></g><ellipse cx="315" cy="309" rx="15" ry="5.5" fill="#eea0ac" stroke="none" stroke-width="0"></ellipse><path d="M292 227q6 -5 13 -2" fill="none" stroke="#3c8a5b" stroke-width="4" stroke-linejoin="round" stroke-linecap="round"></path><path d="M250 298Q257 294 263 298Q258 305 254 303Z" fill="#253646" stroke="#253646" stroke-width="2" stroke-linejoin="round" stroke-linecap="round"></path><path d="M245 311Q257 315 268 309Q263 329 251 326Z" fill="#253646" stroke="#253646" stroke-width="2.4" stroke-linejoin="round" stroke-linecap="round"></path><path d="M252 322Q260 316 265 319L261 325Q256 329 252 322Z" fill="#eea0ac" stroke="none" stroke-width="0" stroke-linejoin="round" stroke-linecap="round"></path><path d="M203 295Q214 301 224 294" fill="none" stroke="#80b993" stroke-width="2.1" stroke-linejoin="round" stroke-linecap="round"></path><path d="M199 233Q207 229 214 231" fill="none" stroke="#e5f1cd" stroke-width="2.5" stroke-linejoin="round" stroke-linecap="round"></path><ellipse cx="197" cy="299" rx="1.35" ry="1.35" fill="#3b875a" stroke="none" stroke-width="0"></ellipse><ellipse cx="193" cy="304" rx="1.35" ry="1.35" fill="#3b875a" stroke="none" stroke-width="0"></ellipse><ellipse cx="189" cy="299" rx="1.35" ry="1.35" fill="#3b875a" stroke="none" stroke-width="0"></ellipse><path d="M183 306q-4 -2 -7 -6" fill="none" stroke="#d0e6aa" stroke-width="1.8" stroke-linejoin="round" stroke-linecap="round"></path><path d="M180 313q-4 -2 -7 -6" fill="none" stroke="#d0e6aa" stroke-width="1.8" stroke-linejoin="round" stroke-linecap="round"></path><path d="M177 320q-4 -2 -7 -6" fill="none" stroke="#d0e6aa" stroke-width="1.8" stroke-linejoin="round" stroke-linecap="round"></path><path d="M201 350q-6 9 -5 20" fill="none" stroke="#d9ebba" stroke-width="3" stroke-linejoin="round" stroke-linecap="round"></path><path d="M211 407q-9 -2 -13 3" fill="none" stroke="#9fcaac" stroke-width="3" stroke-linejoin="round" stroke-linecap="round"></path><ellipse cx="217" cy="416" rx="2.2" ry="2.2" fill="#c5decb" stroke="none" stroke-width="0"></ellipse><path d="M194 386q-7 -4 -9 -12" fill="none" stroke="#84ac55" stroke-width="2.1" stroke-linejoin="round" stroke-linecap="round"></path><path d="M196 327l-5 -6l-4 5l5 6Z" fill="#84be5a" stroke="none" stroke-width="0" stroke-linejoin="round" stroke-linecap="round"></path><path d="M287 295Q298 301 308 294" fill="none" stroke="#80b993" stroke-width="2.1" stroke-linejoin="round" stroke-linecap="round"></path><path d="M283 233Q291 229 298 231" fill="none" stroke="#e5f1cd" stroke-width="2.5" stroke-linejoin="round" stroke-linecap="round"></path><ellipse cx="315" cy="299" rx="1.35" ry="1.35" fill="#3b875a" stroke="none" stroke-width="0"></ellipse><ellipse cx="319" cy="304" rx="1.35" ry="1.35" fill="#3b875a" stroke="none" stroke-width="0"></ellipse><ellipse cx="323" cy="299" rx="1.35" ry="1.35" fill="#3b875a" stroke="none" stroke-width="0"></ellipse><path d="M329 306q4 -2 7 -6" fill="none" stroke="#d0e6aa" stroke-width="1.8" stroke-linejoin="round" stroke-linecap="round"></path><path d="M332 313q4 -2 7 -6" fill="none" stroke="#d0e6aa" stroke-width="1.8" stroke-linejoin="round" stroke-linecap="round"></path><path d="M335 320q4 -2 7 -6" fill="none" stroke="#d0e6aa" stroke-width="1.8" stroke-linejoin="round" stroke-linecap="round"></path><path d="M311 350q6 9 5 20" fill="none" stroke="#d9ebba" stroke-width="3" stroke-linejoin="round" stroke-linecap="round"></path><path d="M301 407q9 -2 13 3" fill="none" stroke="#9fcaac" stroke-width="3" stroke-linejoin="round" stroke-linecap="round"></path><ellipse cx="295" cy="416" rx="2.2" ry="2.2" fill="#c5decb" stroke="none" stroke-width="0"></ellipse><path d="M318 386q7 -4 9 -12" fill="none" stroke="#84ac55" stroke-width="2.1" stroke-linejoin="round" stroke-linecap="round"></path><path d="M316 327l5 -6l4 5l-5 6Z" fill="#84be5a" stroke="none" stroke-width="0" stroke-linejoin="round" stroke-linecap="round"></path><path d="M240 364q-2 8 0 12q2 -6 0 -12Z" fill="#f5f9e9" stroke="none" stroke-width="0" stroke-linejoin="round" stroke-linecap="round"></path><path d="M236 400q4 3 8 0" fill="none" stroke="#b4d5ad" stroke-width="1.8" stroke-linejoin="round" stroke-linecap="round"></path><path d="M253 364q-2 8 0 12q2 -6 0 -12Z" fill="#f5f9e9" stroke="none" stroke-width="0" stroke-linejoin="round" stroke-linecap="round"></path><path d="M253 400q4 3 8 0" fill="none" stroke="#b4d5ad" stroke-width="1.8" stroke-linejoin="round" stroke-linecap="round"></path><path d="M266 364q-2 8 0 12q2 -6 0 -12Z" fill="#f5f9e9" stroke="none" stroke-width="0" stroke-linejoin="round" stroke-linecap="round"></path><path d="M270 400q4 3 8 0" fill="none" stroke="#b4d5ad" stroke-width="1.8" stroke-linejoin="round" stroke-linecap="round"></path><g transform="translate(197 223) rotate(-60)"><path d="M0 0 C-29 -24.9 -18.27 -61.42 0 -83 C23.200000000000003 -58.099999999999994 24.94 -24.9 0 0Z" fill="#3f955e" stroke="#253646" stroke-width="4.4" stroke-linejoin="round" stroke-linecap="round"></path><path d="M0 -7 Q15.950000000000001 -26.560000000000002 0 -74 L0 -7Z" fill="#3b865a" stroke="none" stroke-width="0" stroke-linejoin="round" stroke-linecap="round"></path><path d="M0 -5 Q-3 -37.35 0 -69" fill="none" stroke="#367355" stroke-width="2.2" stroke-linejoin="round" stroke-linecap="round"></path><path d="M-6.38 -23.240000000000002 Q-11.600000000000001 -46.480000000000004 -3 -62.25" fill="none" stroke="#a9cfb4" stroke-width="3.5" stroke-linejoin="round" stroke-linecap="round"></path></g><g transform="translate(211 223) rotate(-36)"><path d="M0 0 C-30 -32.699999999999996 -18.9 -80.66 0 -109 C24.0 -76.3 25.8 -32.699999999999996 0 0Z" fill="#3f955e" stroke="#253646" stroke-width="4.4" stroke-linejoin="round" stroke-linecap="round"></path><path d="M0 -7 Q16.5 -34.88 0 -100 L0 -7Z" fill="#3b865a" stroke="none" stroke-width="0" stroke-linejoin="round" stroke-linecap="round"></path><path d="M0 -5 Q-3 -49.050000000000004 0 -95" fill="none" stroke="#367355" stroke-width="2.2" stroke-linejoin="round" stroke-linecap="round"></path><path d="M-6.6 -30.520000000000003 Q-12.0 -61.040000000000006 -3 -81.75" fill="none" stroke="#a9cfb4" stroke-width="3.5" stroke-linejoin="round" stroke-linecap="round"></path></g><g transform="translate(255 223) rotate(4)"><path d="M0 0 C-35 -39.0 -22.05 -96.2 0 -130 C28.0 -91.0 30.099999999999998 -39.0 0 0Z" fill="#3f955e" stroke="#253646" stroke-width="4.4" stroke-linejoin="round" stroke-linecap="round"></path><path d="M0 -7 Q19.25 -41.6 0 -121 L0 -7Z" fill="#3b865a" stroke="none" stroke-width="0" stroke-linejoin="round" stroke-linecap="round"></path><path d="M0 -5 Q-3 -58.5 0 -116" fill="none" stroke="#367355" stroke-width="2.2" stroke-linejoin="round" stroke-linecap="round"></path><path d="M-7.7 -36.400000000000006 Q-14.0 -72.80000000000001 -3 -97.5" fill="none" stroke="#a9cfb4" stroke-width="3.5" stroke-linejoin="round" stroke-linecap="round"></path></g><g transform="translate(290 223) rotate(30)"><path d="M0 0 C-31 -34.199999999999996 -19.53 -84.36 0 -114 C24.8 -79.8 26.66 -34.199999999999996 0 0Z" fill="#a1cf59" stroke="#253646" stroke-width="4.4" stroke-linejoin="round" stroke-linecap="round"></path><path d="M0 -7 Q17.05 -36.480000000000004 0 -105 L0 -7Z" fill="#8db756" stroke="none" stroke-width="0" stroke-linejoin="round" stroke-linecap="round"></path><path d="M0 -5 Q-3 -51.300000000000004 0 -100" fill="none" stroke="#749852" stroke-width="2.2" stroke-linejoin="round" stroke-linecap="round"></path><path d="M-6.82 -31.92 Q-12.4 -63.84 -3 -85.5" fill="none" stroke="#d5e9b2" stroke-width="3.5" stroke-linejoin="round" stroke-linecap="round"></path></g><g transform="translate(321 223) rotate(57)"><path d="M0 0 C-29 -26.7 -18.27 -65.86 0 -89 C23.200000000000003 -62.3 24.94 -26.7 0 0Z" fill="#3f955e" stroke="#253646" stroke-width="4.4" stroke-linejoin="round" stroke-linecap="round"></path><path d="M0 -7 Q15.950000000000001 -28.48 0 -80 L0 -7Z" fill="#3b865a" stroke="none" stroke-width="0" stroke-linejoin="round" stroke-linecap="round"></path><path d="M0 -5 Q-3 -40.050000000000004 0 -75" fill="none" stroke="#367355" stroke-width="2.2" stroke-linejoin="round" stroke-linecap="round"></path><path d="M-6.38 -24.92 Q-11.600000000000001 -49.84 -3 -66.75" fill="none" stroke="#a9cfb4" stroke-width="3.5" stroke-linejoin="round" stroke-linecap="round"></path></g><g transform="translate(263 192) rotate(3)"><path d="M0 0 C-25 -24.599999999999998 -15.75 -60.68 0 -82 C20.0 -57.4 21.5 -24.599999999999998 0 0Z" fill="#aad469" stroke="#253646" stroke-width="4.4" stroke-linejoin="round" stroke-linecap="round"></path><path d="M0 -7 Q13.750000000000002 -26.240000000000002 0 -73 L0 -7Z" fill="#95bb63" stroke="none" stroke-width="0" stroke-linejoin="round" stroke-linecap="round"></path><path d="M0 -5 Q-3 -36.9 0 -68" fill="none" stroke="#7a9b5c" stroke-width="2.2" stroke-linejoin="round" stroke-linecap="round"></path><path d="M-5.5 -22.96 Q-10.0 -45.92 -3 -61.5" fill="none" stroke="#d9ebb9" stroke-width="3.5" stroke-linejoin="round" stroke-linecap="round"></path></g><ellipse cx="210.88" cy="191.0" rx="4.55" ry="4.23" fill="#f3cb78" stroke="#253646" stroke-width="2.5"></ellipse><ellipse cx="207.51" cy="195.64" rx="4.55" ry="4.23" fill="#f3cb78" stroke="#253646" stroke-width="2.5"></ellipse><ellipse cx="202.06" cy="193.87" rx="4.55" ry="4.23" fill="#f3cb78" stroke="#253646" stroke-width="2.5"></ellipse><ellipse cx="202.06" cy="188.13" rx="4.55" ry="4.23" fill="#f3cb78" stroke="#253646" stroke-width="2.5"></ellipse><ellipse cx="207.51" cy="186.36" rx="4.55" ry="4.23" fill="#f3cb78" stroke="#253646" stroke-width="2.5"></ellipse><ellipse cx="206" cy="191" rx="3.25" ry="3.25" fill="#ffe39c" stroke="#253646" stroke-width="2.2"></ellipse><ellipse cx="312.88" cy="191.0" rx="4.55" ry="4.23" fill="#f3cb78" stroke="#253646" stroke-width="2.5"></ellipse><ellipse cx="309.51" cy="195.64" rx="4.55" ry="4.23" fill="#f3cb78" stroke="#253646" stroke-width="2.5"></ellipse><ellipse cx="304.06" cy="193.87" rx="4.55" ry="4.23" fill="#f3cb78" stroke="#253646" stroke-width="2.5"></ellipse><ellipse cx="304.06" cy="188.13" rx="4.55" ry="4.23" fill="#f3cb78" stroke="#253646" stroke-width="2.5"></ellipse><ellipse cx="309.51" cy="186.36" rx="4.55" ry="4.23" fill="#f3cb78" stroke="#253646" stroke-width="2.5"></ellipse><ellipse cx="308" cy="191" rx="3.25" ry="3.25" fill="#ffe39c" stroke="#253646" stroke-width="2.2"></ellipse><ellipse cx="183" cy="357" rx="21" ry="27" fill="#a1cf59" stroke="#253646" stroke-width="4.3" transform="rotate(28 183 357)"></ellipse><ellipse cx="183" cy="364" rx="10" ry="11" fill="#e6f1cf" stroke="#253646" stroke-width="2.2"></ellipse><path d="M176 348l-1 6M185 347v7" fill="none" stroke="#6f9251" stroke-width="2" stroke-linejoin="round" stroke-linecap="round"></path><path d="M172 354q-3 7 1 12" fill="none" stroke="#deeec2" stroke-width="2.5" stroke-linejoin="round" stroke-linecap="round"></path><ellipse cx="186" cy="361" rx="2.0" ry="2.0" fill="#f8faed" stroke="none" stroke-width="0"></ellipse><ellipse cx="329" cy="357" rx="21" ry="27" fill="#a1cf59" stroke="#253646" stroke-width="4.3" transform="rotate(-28 329 357)"></ellipse><ellipse cx="329" cy="364" rx="10" ry="11" fill="#e6f1cf" stroke="#253646" stroke-width="2.2"></ellipse><path d="M322 348l-1 6M331 347v7" fill="none" stroke="#6f9251" stroke-width="2" stroke-linejoin="round" stroke-linecap="round"></path><path d="M318 354q-3 7 1 12" fill="none" stroke="#deeec2" stroke-width="2.5" stroke-linejoin="round" stroke-linecap="round"></path><ellipse cx="332" cy="361" rx="2.0" ry="2.0" fill="#f8faed" stroke="none" stroke-width="0"></ellipse><path d="M247 381L265 381L270 394Q261 407 255 408Q244 401 242 393Z" fill="#3f955e" stroke="#253646" stroke-width="2.2" stroke-linejoin="round" stroke-linecap="round"></path><path d="M252 386L255 400L263 388" fill="none" stroke="#e6f1cf" stroke-width="2" stroke-linejoin="round" stroke-linecap="round"></path></g></svg>