<svg xmlns="http://www.w3.org/2000/svg" width="1024" height="1024" viewBox="14.839 45.420 489.160 489.160" role="img" aria-label="오르츄" data-species="orchu" data-form="orchu-0" data-source="original-vector-paths" preserveAspectRatio="xMidYMid meet" data-safe-fraction=".12"><title>오르츄</title><defs><linearGradient id="body" x1="0" y1="0" x2=".3" y2="1"><stop stop-color="#c9badd"></stop><stop offset=".72" stop-color="#bba9d6"></stop><stop offset="1" stop-color="#cbafbb"></stop></linearGradient><linearGradient id="eye" x1="0" y1="0" x2="0" y2="1"><stop stop-color="#253646"></stop><stop offset=".55" stop-color="#a48d71"></stop><stop offset="1" stop-color="#e9bc88"></stop></linearGradient></defs><g transform="translate(-16.38 0) scale(1.06 1)"><path d="M306 350 C345 353 338 309 354 277 C370 260 394 276 404 265 C395 303 409 322 395 345 C415 344 422 332 428 327 C422 388 376 419 321 410Z" fill="#e9bc88" stroke="#253646" stroke-width="4.4" stroke-linejoin="round" stroke-linecap="round"></path><path d="M364 280Q384 284 404 265Q395 303 403 321L381 306L365 315L371 291Z" fill="#ede7f0" stroke="#253646" stroke-width="2.8" stroke-linejoin="round" stroke-linecap="round"></path><g transform="translate(256 0) scale(-1 1) translate(-256 0)"><path d="M320 275 C350 189 407 165 414 190 C433 231 402 281 349 292 C395 284 415 313 396 343 C372 371 335 332 315 308Z" fill="#e9bc88" stroke="#253646" stroke-width="4.4" stroke-linejoin="round" stroke-linecap="round"></path><path d="M344 270 C371 218 396 200 404 205 C404 237 378 261 344 270Z" fill="#ede7f0" stroke="#253646" stroke-width="2.5" stroke-linejoin="round" stroke-linecap="round"></path><ellipse cx="373" cy="313" rx="15" ry="20" fill="#bba9d6" stroke="#253646" stroke-width="2.5"></ellipse><path d="M381 217 L389.4 226.6 387.96 237.4 381 241 374.04 237.4 372.6 226.6Z" fill="#f3cb78" stroke="#253646" stroke-width="3.5" stroke-linejoin="round" stroke-linecap="round"></path><path d="M381 217 L382.2 232.36 389.4 226.6Z" fill="#f8e2b2" stroke="none" stroke-width="0" stroke-linejoin="round" stroke-linecap="round"></path><path d="M372.6 226.6 L381 232.0 389.4 226.6 M381 232.0 L381 241" fill="none" stroke="#c0a66c" stroke-width="2" stroke-linejoin="round" stroke-linecap="round"></path></g><g transform="translate(256 0) scale(1 1) translate(-256 0)"><path d="M320 275 C350 189 407 165 414 190 C433 231 402 281 349 292 C395 284 415 313 396 343 C372 371 335 332 315 308Z" fill="#e9bc88" stroke="#253646" stroke-width="4.4" stroke-linejoin="round" stroke-linecap="round"></path><path d="M344 270 C371 218 396 200 404 205 C404 237 378 261 344 270Z" fill="#ede7f0" stroke="#253646" stroke-width="2.5" stroke-linejoin="round" stroke-linecap="round"></path><ellipse cx="373" cy="313" rx="15" ry="20" fill="#bba9d6" stroke="#253646" stroke-width="2.5"></ellipse><path d="M381 217 L389.4 226.6 387.96 237.4 381 241 374.04 237.4 372.6 226.6Z" fill="#f3cb78" stroke="#253646" stroke-width="3.5" stroke-linejoin="round" stroke-linecap="round"></path><path d="M381 217 L382.2 232.36 389.4 226.6Z" fill="#f8e2b2" stroke="none" stroke-width="0" stroke-linejoin="round" stroke-linecap="round"></path><path d="M372.6 226.6 L381 232.0 389.4 226.6 M381 232.0 L381 241" fill="none" stroke="#c0a66c" stroke-width="2" stroke-linejoin="round" stroke-linecap="round"></path></g><ellipse cx="213" cy="421" rx="31" ry="18" fill="#e9bc88" stroke="#253646" stroke-width="4.3"></ellipse><path d="M225 420l-1 9 M213 421l-1 10" fill="none" stroke="#9b866e" stroke-width="2.6" stroke-linejoin="round" stroke-linecap="round"></path><ellipse cx="299" cy="421" rx="31" ry="18" fill="#e9bc88" stroke="#253646" stroke-width="4.3"></ellipse><path d="M287 420l-1 9 M299 421l-1 10" fill="none" stroke="#9b866e" stroke-width="2.6" stroke-linejoin="round" stroke-linecap="round"></path><path d="M193 287 C166 327 175 381 204 408 C228 428 294 427 316 405 C341 378 345 322 316 284Z" fill="url(#body)" stroke="#253646" stroke-width="4.4" stroke-linejoin="round" stroke-linecap="round"></path><path d="M225 323C209 345 213 377 233 391Q256 409 283 390C301 373 300 348 283 324Q254 307 225 323Z" fill="#ede7f0" stroke="#253646" stroke-width="3.0" stroke-linejoin="round" stroke-linecap="round"></path><path d="M244 385Q257 391 269 383" fill="none" stroke="#ebd5c4" stroke-width="2.5" stroke-linejoin="round" stroke-linecap="round"></path><path d="M192 204L213 186L240 199L262 183L283 199L314 189L328 215Q355 224 361 260L354 280L369 294L352 304Q347 340 301 349L259 343L226 353Q175 344 163 316L147 307L162 291L155 269Q153 230 177 220Z" fill="url(#body)" stroke="#253646" stroke-width="4.4" stroke-linejoin="round" stroke-linecap="round"></path><path d="M198 268Q208 256 226 270Q253 281 281 269Q306 257 321 272Q339 289 327 312Q299 347 253 339Q201 343 181 315Q174 288 198 268Z" fill="#ede7f0" stroke="#253646" stroke-width="2.8" stroke-linejoin="round" stroke-linecap="round"></path><g transform="rotate(-3 205 272)"><ellipse cx="205" cy="272" rx="28" ry="36" fill="#fffefa" stroke="#253646" stroke-width="3.8"></ellipse><ellipse cx="204" cy="273" rx="21" ry="29" fill="url(#eye)" stroke="#253646" stroke-width="2.7"></ellipse><ellipse cx="203" cy="274" rx="11.27" ry="24.0" fill="#253646" stroke="none" stroke-width="0"></ellipse><ellipse cx="200" cy="259" rx="7.5" ry="10.2" fill="#fffefa" stroke="none" stroke-width="0"></ellipse><ellipse cx="212" cy="285" rx="4.2" ry="5.0" fill="#fffefa" stroke="none" stroke-width="0"></ellipse><path d="M176 261Q201 229 232 254" fill="none" stroke="#253646" stroke-width="4.6" stroke-linejoin="round" stroke-linecap="round"></path></g><ellipse cx="188" cy="309" rx="15" ry="5.5" fill="#eea0ac" stroke="none" stroke-width="0"></ellipse><path d="M199 227q6 -5 13 -2" fill="none" stroke="#d1ac80" stroke-width="4" stroke-linejoin="round" stroke-linecap="round"></path><g transform="rotate(3 307 272)"><ellipse cx="307" cy="272" rx="28" ry="36" fill="#fffefa" stroke="#253646" stroke-width="3.8"></ellipse><ellipse cx="308" cy="273" rx="21" ry="29" fill="url(#eye)" stroke="#253646" stroke-width="2.7"></ellipse><ellipse cx="309" cy="274" rx="11.27" ry="24.0" fill="#253646" stroke="none" stroke-width="0"></ellipse><ellipse cx="302" cy="259" rx="7.5" ry="10.2" fill="#fffefa" stroke="none" stroke-width="0"></ellipse><ellipse cx="314" cy="285" rx="4.2" ry="5.0" fill="#fffefa" stroke="none" stroke-width="0"></ellipse><path d="M278 261Q303 229 334 254" fill="none" stroke="#253646" stroke-width="4.6" stroke-linejoin="round" stroke-linecap="round"></path></g><ellipse cx="324" cy="309" rx="15" ry="5.5" fill="#eea0ac" stroke="none" stroke-width="0"></ellipse><path d="M301 227q6 -5 13 -2" fill="none" stroke="#d1ac80" stroke-width="4" stroke-linejoin="round" stroke-linecap="round"></path><path d="M250 298Q257 294 263 298Q258 305 254 303Z" fill="#253646" stroke="#253646" stroke-width="2" stroke-linejoin="round" stroke-linecap="round"></path><path d="M240 309Q249 320 256 311Q264 320 274 307" fill="none" stroke="#253646" stroke-width="3.2" stroke-linejoin="round" stroke-linecap="round"></path><path d="M194 295Q205 301 215 294" fill="none" stroke="#f0d2af" stroke-width="2.1" stroke-linejoin="round" stroke-linecap="round"></path><path d="M190 233Q198 229 205 231" fill="none" stroke="#ece6f0" stroke-width="2.5" stroke-linejoin="round" stroke-linecap="round"></path><ellipse cx="188" cy="299" rx="1.35" ry="1.35" fill="#cca87e" stroke="none" stroke-width="0"></ellipse><ellipse cx="184" cy="304" rx="1.35" ry="1.35" fill="#cca87e" stroke="none" stroke-width="0"></ellipse><ellipse cx="180" cy="299" rx="1.35" ry="1.35" fill="#cca87e" stroke="none" stroke-width="0"></ellipse><path d="M183 306q-4 -2 -7 -6" fill="none" stroke="#ddd4e8" stroke-width="1.8" stroke-linejoin="round" stroke-linecap="round"></path><path d="M180 313q-4 -2 -7 -6" fill="none" stroke="#ddd4e8" stroke-width="1.8" stroke-linejoin="round" stroke-linecap="round"></path><path d="M177 320q-4 -2 -7 -6" fill="none" stroke="#ddd4e8" stroke-width="1.8" stroke-linejoin="round" stroke-linecap="round"></path><path d="M201 350q-6 9 -5 20" fill="none" stroke="#e4dcec" stroke-width="3" stroke-linejoin="round" stroke-linecap="round"></path><path d="M211 407q-9 -2 -13 3" fill="none" stroke="#f4ddc1" stroke-width="3" stroke-linejoin="round" stroke-linecap="round"></path><ellipse cx="217" cy="416" rx="2.2" ry="2.2" fill="#f8ead8" stroke="none" stroke-width="0"></ellipse><path d="M194 386q-7 -4 -9 -12" fill="none" stroke="#988fb5" stroke-width="2.1" stroke-linejoin="round" stroke-linecap="round"></path><path d="M198 332q-5 -8 -8 -6" fill="none" stroke="#cdb1b7" stroke-width="2.6" stroke-linejoin="round" stroke-linecap="round"></path><path d="M296 295Q307 301 317 294" fill="none" stroke="#f0d2af" stroke-width="2.1" stroke-linejoin="round" stroke-linecap="round"></path><path d="M292 233Q300 229 307 231" fill="none" stroke="#ece6f0" stroke-width="2.5" stroke-linejoin="round" stroke-linecap="round"></path><ellipse cx="324" cy="299" rx="1.35" ry="1.35" fill="#cca87e" stroke="none" stroke-width="0"></ellipse><ellipse cx="328" cy="304" rx="1.35" ry="1.35" fill="#cca87e" stroke="none" stroke-width="0"></ellipse><ellipse cx="332" cy="299" rx="1.35" ry="1.35" fill="#cca87e" stroke="none" stroke-width="0"></ellipse><path d="M329 306q4 -2 7 -6" fill="none" stroke="#ddd4e8" stroke-width="1.8" stroke-linejoin="round" stroke-linecap="round"></path><path d="M332 313q4 -2 7 -6" fill="none" stroke="#ddd4e8" stroke-width="1.8" stroke-linejoin="round" stroke-linecap="round"></path><path d="M335 320q4 -2 7 -6" fill="none" stroke="#ddd4e8" stroke-width="1.8" stroke-linejoin="round" stroke-linecap="round"></path><path d="M311 350q6 9 5 20" fill="none" stroke="#e4dcec" stroke-width="3" stroke-linejoin="round" stroke-linecap="round"></path><path d="M301 407q9 -2 13 3" fill="none" stroke="#f4ddc1" stroke-width="3" stroke-linejoin="round" stroke-linecap="round"></path><ellipse cx="295" cy="416" rx="2.2" ry="2.2" fill="#f8ead8" stroke="none" stroke-width="0"></ellipse><path d="M318 386q7 -4 9 -12" fill="none" stroke="#988fb5" stroke-width="2.1" stroke-linejoin="round" stroke-linecap="round"></path><path d="M314 332q5 -8 8 -6" fill="none" stroke="#cdb1b7" stroke-width="2.6" stroke-linejoin="round" stroke-linecap="round"></path><path d="M240 364q-2 8 0 12q2 -6 0 -12Z" fill="#f8f5f6" stroke="none" stroke-width="0" stroke-linejoin="round" stroke-linecap="round"></path><path d="M236 400q4 3 8 0" fill="none" stroke="#ecdad1" stroke-width="1.8" stroke-linejoin="round" stroke-linecap="round"></path><path d="M253 364q-2 8 0 12q2 -6 0 -12Z" fill="#f8f5f6" stroke="none" stroke-width="0" stroke-linejoin="round" stroke-linecap="round"></path><path d="M253 400q4 3 8 0" fill="none" stroke="#ecdad1" stroke-width="1.8" stroke-linejoin="round" stroke-linecap="round"></path><path d="M266 364q-2 8 0 12q2 -6 0 -12Z" fill="#f8f5f6" stroke="none" stroke-width="0" stroke-linejoin="round" stroke-linecap="round"></path><path d="M270 400q4 3 8 0" fill="none" stroke="#ecdad1" stroke-width="1.8" stroke-linejoin="round" stroke-linecap="round"></path><path d="M260 152V194Q248 216 232 203Q223 188 244 187V148L284 141V181Q275 204 259 192Q251 175 272 175V155Z" fill="#e9bc88" stroke="#253646" stroke-width="3.2" stroke-linejoin="round" stroke-linecap="round"></path><ellipse cx="183" cy="357" rx="21" ry="27" fill="#bba9d6" stroke="#253646" stroke-width="4.3" transform="rotate(28 183 357)"></ellipse><ellipse cx="183" cy="364" rx="10" ry="11" fill="#ede7f0" stroke="#253646" stroke-width="2.2"></ellipse><path d="M176 348l-1 6M185 347v7" fill="none" stroke="#7f7b9c" stroke-width="2" stroke-linejoin="round" stroke-linecap="round"></path><path d="M172 354q-3 7 1 12" fill="none" stroke="#e7e0ed" stroke-width="2.5" stroke-linejoin="round" stroke-linecap="round"></path><ellipse cx="186" cy="361" rx="2.0" ry="2.0" fill="#faf7f7" stroke="none" stroke-width="0"></ellipse><ellipse cx="329" cy="357" rx="21" ry="27" fill="#bba9d6" stroke="#253646" stroke-width="4.3" transform="rotate(-28 329 357)"></ellipse><ellipse cx="329" cy="364" rx="10" ry="11" fill="#ede7f0" stroke="#253646" stroke-width="2.2"></ellipse><path d="M322 348l-1 6M331 347v7" fill="none" stroke="#7f7b9c" stroke-width="2" stroke-linejoin="round" stroke-linecap="round"></path><path d="M318 354q-3 7 1 12" fill="none" stroke="#e7e0ed" stroke-width="2.5" stroke-linejoin="round" stroke-linecap="round"></path><ellipse cx="332" cy="361" rx="2.0" ry="2.0" fill="#faf7f7" stroke="none" stroke-width="0"></ellipse><path d="M247 381L265 381L270 394Q261 407 255 408Q244 401 242 393Z" fill="#e9bc88" stroke="#253646" stroke-width="2.2" stroke-linejoin="round" stroke-linecap="round"></path><path d="M252 386L255 400L263 388" fill="none" stroke="#ede7f0" stroke-width="2" stroke-linejoin="round" stroke-linecap="round"></path></g></svg>