<svg xmlns="http://www.w3.org/2000/svg" width="1024" height="1024" viewBox="33.465 72.231 443.031 443.031" role="img" aria-label="팔리" data-species="palli" data-form="palli-0" data-source="original-vector-paths" preserveAspectRatio="xMidYMid meet" data-safe-fraction=".12"><title>팔리</title><defs><linearGradient id="body" x1="0" y1="0" x2=".3" y2="1"><stop stop-color="#eab3ca"></stop><stop offset=".72" stop-color="#e5a0be"></stop><stop offset="1" stop-color="#cca2c8"></stop></linearGradient><linearGradient id="eye" x1="0" y1="0" x2="0" y2="1"><stop stop-color="#253646"></stop><stop offset=".55" stop-color="#727ea8"></stop><stop offset="1" stop-color="#9ba5dc"></stop></linearGradient></defs><g transform="translate(4.1 0) scale(0.98 1)"><g transform="translate(256 0) scale(-1 1) translate(-256 0)"><path d="M320 275 C350 189 407 165 414 190 C433 231 402 281 349 292 C395 284 415 313 396 343 C372 371 335 332 315 308Z" fill="#9ba5dc" stroke="#253646" stroke-width="4.4" stroke-linejoin="round" stroke-linecap="round"></path><path d="M344 270 C371 218 396 200 404 205 C404 237 378 261 344 270Z" fill="#f8e5ea" stroke="#253646" stroke-width="2.5" stroke-linejoin="round" stroke-linecap="round"></path><ellipse cx="373" cy="313" rx="15" ry="20" fill="#e5a0be" stroke="#253646" stroke-width="2.5"></ellipse><path d="M381 217 L389.4 226.6 387.96 237.4 381 241 374.04 237.4 372.6 226.6Z" fill="#f3cb78" stroke="#253646" stroke-width="3.5" stroke-linejoin="round" stroke-linecap="round"></path><path d="M381 217 L382.2 232.36 389.4 226.6Z" fill="#f8e2b2" stroke="none" stroke-width="0" stroke-linejoin="round" stroke-linecap="round"></path><path d="M372.6 226.6 L381 232.0 389.4 226.6 M381 232.0 L381 241" fill="none" stroke="#c0a66c" stroke-width="2" stroke-linejoin="round" stroke-linecap="round"></path></g><g transform="translate(256 0) scale(1 1) translate(-256 0)"><path d="M320 275 C350 189 407 165 414 190 C433 231 402 281 349 292 C395 284 415 313 396 343 C372 371 335 332 315 308Z" fill="#9ba5dc" stroke="#253646" stroke-width="4.4" stroke-linejoin="round" stroke-linecap="round"></path><path d="M344 270 C371 218 396 200 404 205 C404 237 378 261 344 270Z" fill="#f8e5ea" stroke="#253646" stroke-width="2.5" stroke-linejoin="round" stroke-linecap="round"></path><ellipse cx="373" cy="313" rx="15" ry="20" fill="#e5a0be" stroke="#253646" stroke-width="2.5"></ellipse><path d="M381 217 L389.4 226.6 387.96 237.4 381 241 374.04 237.4 372.6 226.6Z" fill="#f3cb78" stroke="#253646" stroke-width="3.5" stroke-linejoin="round" stroke-linecap="round"></path><path d="M381 217 L382.2 232.36 389.4 226.6Z" fill="#f8e2b2" stroke="none" stroke-width="0" stroke-linejoin="round" stroke-linecap="round"></path><path d="M372.6 226.6 L381 232.0 389.4 226.6 M381 232.0 L381 241" fill="none" stroke="#c0a66c" stroke-width="2" stroke-linejoin="round" stroke-linecap="round"></path></g><ellipse cx="213" cy="421" rx="31" ry="18" fill="#9ba5dc" stroke="#253646" stroke-width="4.3"></ellipse><path d="M225 420l-1 9 M213 421l-1 10" fill="none" stroke="#6c79a0" stroke-width="2.6" stroke-linejoin="round" stroke-linecap="round"></path><ellipse cx="299" cy="421" rx="31" ry="18" fill="#9ba5dc" stroke="#253646" stroke-width="4.3"></ellipse><path d="M287 420l-1 9 M299 421l-1 10" fill="none" stroke="#6c79a0" stroke-width="2.6" stroke-linejoin="round" stroke-linecap="round"></path><path d="M193 287 C166 327 175 381 204 408 C228 428 294 427 316 405 C341 378 345 322 316 284Z" fill="url(#body)" stroke="#253646" stroke-width="4.4" stroke-linejoin="round" stroke-linecap="round"></path><path d="M225 323C209 345 213 377 233 391Q256 409 283 390C301 373 300 348 283 324Q254 307 225 323Z" fill="#f8e5ea" stroke="#253646" stroke-width="3.0" stroke-linejoin="round" stroke-linecap="round"></path><path d="M244 385Q257 391 269 383" fill="none" stroke="#d1cae4" stroke-width="2.5" stroke-linejoin="round" stroke-linecap="round"></path><path d="M163 239C176 195 219 192 258 195C304 184 350 208 359 254C375 302 342 340 297 350C230 367 182 342 159 314C145 289 145 268 163 239Z" fill="url(#body)" stroke="#253646" stroke-width="4.4" stroke-linejoin="round" stroke-linecap="round"></path><g transform="rotate(-3 214 272)"><ellipse cx="214" cy="272" rx="26" ry="36" fill="#fffefa" stroke="#253646" stroke-width="3.8"></ellipse><ellipse cx="213" cy="273" rx="19" ry="29" fill="url(#eye)" stroke="#253646" stroke-width="2.7"></ellipse><ellipse cx="212" cy="274" rx="10.29" ry="24.0" fill="#253646" stroke="none" stroke-width="0"></ellipse><ellipse cx="209" cy="259" rx="7.5" ry="10.2" fill="#fffefa" stroke="none" stroke-width="0"></ellipse><ellipse cx="221" cy="285" rx="4.2" ry="5.0" fill="#fffefa" stroke="none" stroke-width="0"></ellipse><path d="M187 261Q210 229 239 254" fill="none" stroke="#253646" stroke-width="4.6" stroke-linejoin="round" stroke-linecap="round"></path></g><ellipse cx="197" cy="309" rx="15" ry="5.5" fill="#eea0ac" stroke="none" stroke-width="0"></ellipse><path d="M208 227q6 -5 13 -2" fill="none" stroke="#8d98ca" stroke-width="4" stroke-linejoin="round" stroke-linecap="round"></path><g transform="rotate(3 298 272)"><ellipse cx="298" cy="272" rx="26" ry="36" fill="#fffefa" stroke="#253646" stroke-width="3.8"></ellipse><ellipse cx="299" cy="273" rx="19" ry="29" fill="url(#eye)" stroke="#253646" stroke-width="2.7"></ellipse><ellipse cx="300" cy="274" rx="10.29" ry="24.0" fill="#253646" stroke="none" stroke-width="0"></ellipse><ellipse cx="293" cy="259" rx="7.5" ry="10.2" fill="#fffefa" stroke="none" stroke-width="0"></ellipse><ellipse cx="305" cy="285" rx="4.2" ry="5.0" fill="#fffefa" stroke="none" stroke-width="0"></ellipse><path d="M271 261Q294 229 323 254" fill="none" stroke="#253646" stroke-width="4.6" stroke-linejoin="round" stroke-linecap="round"></path></g><ellipse cx="315" cy="309" rx="15" ry="5.5" fill="#eea0ac" stroke="none" stroke-width="0"></ellipse><path d="M292 227q6 -5 13 -2" fill="none" stroke="#8d98ca" stroke-width="4" stroke-linejoin="round" stroke-linecap="round"></path><path d="M250 298Q257 294 263 298Q258 305 254 303Z" fill="#253646" stroke="#253646" stroke-width="2" stroke-linejoin="round" stroke-linecap="round"></path><path d="M245 311Q257 315 268 309Q263 329 251 326Z" fill="#253646" stroke="#253646" stroke-width="2.4" stroke-linejoin="round" stroke-linecap="round"></path><path d="M252 322Q260 316 265 319L261 325Q256 329 252 322Z" fill="#eea0ac" stroke="none" stroke-width="0" stroke-linejoin="round" stroke-linecap="round"></path><path d="M203 295Q214 301 224 294" fill="none" stroke="#bdc3e6" stroke-width="2.1" stroke-linejoin="round" stroke-linecap="round"></path><path d="M199 233Q207 229 214 231" fill="none" stroke="#f8e4e9" stroke-width="2.5" stroke-linejoin="round" stroke-linecap="round"></path><ellipse cx="197" cy="299" rx="1.35" ry="1.35" fill="#8994c6" stroke="none" stroke-width="0"></ellipse><ellipse cx="193" cy="304" rx="1.35" ry="1.35" fill="#8994c6" stroke="none" stroke-width="0"></ellipse><ellipse cx="189" cy="299" rx="1.35" ry="1.35" fill="#8994c6" stroke="none" stroke-width="0"></ellipse><path d="M183 306q-4 -2 -7 -6" fill="none" stroke="#f2cfdc" stroke-width="1.8" stroke-linejoin="round" stroke-linecap="round"></path><path d="M180 313q-4 -2 -7 -6" fill="none" stroke="#f2cfdc" stroke-width="1.8" stroke-linejoin="round" stroke-linecap="round"></path><path d="M177 320q-4 -2 -7 -6" fill="none" stroke="#f2cfdc" stroke-width="1.8" stroke-linejoin="round" stroke-linecap="round"></path><path d="M201 350q-6 9 -5 20" fill="none" stroke="#f5d8e2" stroke-width="3" stroke-linejoin="round" stroke-linecap="round"></path><path d="M211 407q-9 -2 -13 3" fill="none" stroke="#cdd2eb" stroke-width="3" stroke-linejoin="round" stroke-linecap="round"></path><ellipse cx="217" cy="416" rx="2.2" ry="2.2" fill="#e1e3f1" stroke="none" stroke-width="0"></ellipse><path d="M194 386q-7 -4 -9 -12" fill="none" stroke="#b988a2" stroke-width="2.1" stroke-linejoin="round" stroke-linecap="round"></path><path d="M196 327l-5 -6l-4 5l5 6Z" fill="#cfa2c7" stroke="none" stroke-width="0" stroke-linejoin="round" stroke-linecap="round"></path><path d="M287 295Q298 301 308 294" fill="none" stroke="#bdc3e6" stroke-width="2.1" stroke-linejoin="round" stroke-linecap="round"></path><path d="M283 233Q291 229 298 231" fill="none" stroke="#f8e4e9" stroke-width="2.5" stroke-linejoin="round" stroke-linecap="round"></path><ellipse cx="315" cy="299" rx="1.35" ry="1.35" fill="#8994c6" stroke="none" stroke-width="0"></ellipse><ellipse cx="319" cy="304" rx="1.35" ry="1.35" fill="#8994c6" stroke="none" stroke-width="0"></ellipse><ellipse cx="323" cy="299" rx="1.35" ry="1.35" fill="#8994c6" stroke="none" stroke-width="0"></ellipse><path d="M329 306q4 -2 7 -6" fill="none" stroke="#f2cfdc" stroke-width="1.8" stroke-linejoin="round" stroke-linecap="round"></path><path d="M332 313q4 -2 7 -6" fill="none" stroke="#f2cfdc" stroke-width="1.8" stroke-linejoin="round" stroke-linecap="round"></path><path d="M335 320q4 -2 7 -6" fill="none" stroke="#f2cfdc" stroke-width="1.8" stroke-linejoin="round" stroke-linecap="round"></path><path d="M311 350q6 9 5 20" fill="none" stroke="#f5d8e2" stroke-width="3" stroke-linejoin="round" stroke-linecap="round"></path><path d="M301 407q9 -2 13 3" fill="none" stroke="#cdd2eb" stroke-width="3" stroke-linejoin="round" stroke-linecap="round"></path><ellipse cx="295" cy="416" rx="2.2" ry="2.2" fill="#e1e3f1" stroke="none" stroke-width="0"></ellipse><path d="M318 386q7 -4 9 -12" fill="none" stroke="#b988a2" stroke-width="2.1" stroke-linejoin="round" stroke-linecap="round"></path><path d="M316 327l5 -6l4 5l-5 6Z" fill="#cfa2c7" stroke="none" stroke-width="0" stroke-linejoin="round" stroke-linecap="round"></path><path d="M240 364q-2 8 0 12q2 -6 0 -12Z" fill="#fcf4f4" stroke="none" stroke-width="0" stroke-linejoin="round" stroke-linecap="round"></path><path d="M236 400q4 3 8 0" fill="none" stroke="#dcd2e6" stroke-width="1.8" stroke-linejoin="round" stroke-linecap="round"></path><path d="M253 364q-2 8 0 12q2 -6 0 -12Z" fill="#fcf4f4" stroke="none" stroke-width="0" stroke-linejoin="round" stroke-linecap="round"></path><path d="M253 400q4 3 8 0" fill="none" stroke="#dcd2e6" stroke-width="1.8" stroke-linejoin="round" stroke-linecap="round"></path><path d="M266 364q-2 8 0 12q2 -6 0 -12Z" fill="#fcf4f4" stroke="none" stroke-width="0" stroke-linejoin="round" stroke-linecap="round"></path><path d="M270 400q4 3 8 0" fill="none" stroke="#dcd2e6" stroke-width="1.8" stroke-linejoin="round" stroke-linecap="round"></path><path d="M224 195Q214 165 244 153C270 140 301 157 294 180Q289 188 275 187Q263 186 267 201Q243 213 224 195Z" fill="#f8e5ea" stroke="#253646" stroke-width="4.4" stroke-linejoin="round" stroke-linecap="round"></path><ellipse cx="238" cy="168" rx="5" ry="5" fill="#9ba5dc" stroke="#253646" stroke-width="1.3"></ellipse><ellipse cx="257" cy="158" rx="5" ry="5" fill="#eea0ac" stroke="#253646" stroke-width="1.3"></ellipse><ellipse cx="278" cy="168" rx="5" ry="5" fill="#86c4d2" stroke="#253646" stroke-width="1.3"></ellipse><ellipse cx="183" cy="357" rx="21" ry="27" fill="#e5a0be" stroke="#253646" stroke-width="4.3" transform="rotate(28 183 357)"></ellipse><ellipse cx="183" cy="364" rx="10" ry="11" fill="#f8e5ea" stroke="#253646" stroke-width="2.2"></ellipse><path d="M176 348l-1 6M185 347v7" fill="none" stroke="#98768e" stroke-width="2" stroke-linejoin="round" stroke-linecap="round"></path><path d="M172 354q-3 7 1 12" fill="none" stroke="#f6dde5" stroke-width="2.5" stroke-linejoin="round" stroke-linecap="round"></path><ellipse cx="186" cy="361" rx="2.0" ry="2.0" fill="#fdf6f5" stroke="none" stroke-width="0"></ellipse><ellipse cx="329" cy="357" rx="21" ry="27" fill="#e5a0be" stroke="#253646" stroke-width="4.3" transform="rotate(-28 329 357)"></ellipse><ellipse cx="329" cy="364" rx="10" ry="11" fill="#f8e5ea" stroke="#253646" stroke-width="2.2"></ellipse><path d="M322 348l-1 6M331 347v7" fill="none" stroke="#98768e" stroke-width="2" stroke-linejoin="round" stroke-linecap="round"></path><path d="M318 354q-3 7 1 12" fill="none" stroke="#f6dde5" stroke-width="2.5" stroke-linejoin="round" stroke-linecap="round"></path><ellipse cx="332" cy="361" rx="2.0" ry="2.0" fill="#fdf6f5" stroke="none" stroke-width="0"></ellipse><path d="M270 381L257 395L266 396L256 410L276 391H267Z" fill="#9ba5dc" stroke="#253646" stroke-width="2" stroke-linejoin="round" stroke-linecap="round"></path></g></svg>