<svg xmlns="http://www.w3.org/2000/svg" width="1024" height="1024" viewBox="27.858 46.368 455.263 455.263" role="img" aria-label="스크리디온" data-species="scripo" data-form="scripo-2" data-source="original-vector-paths" preserveAspectRatio="xMidYMid meet" data-safe-fraction=".12"><title>스크리디온</title><defs><linearGradient id="body" x1="0" y1="0" x2=".3" y2="1"><stop stop-color="#c5ccd4"></stop><stop offset=".72" stop-color="#b6bfca"></stop><stop offset="1" stop-color="#b2aec5"></stop></linearGradient><linearGradient id="eye" x1="0" y1="0" x2="0" y2="1"><stop stop-color="#253646"></stop><stop offset=".55" stop-color="#7b6e91"></stop><stop offset="1" stop-color="#a98cba"></stop></linearGradient></defs><g transform="translate(12.29 0) scale(0.95 1)"><path d="M195 291L158 394Q188 379 208 405L250 353L305 404Q336 377 356 391L312 288Z" fill="#a98cba" stroke="#253646" stroke-width="4.4" stroke-linejoin="round" stroke-linecap="round"></path><path d="M185 322L173 371 M327 319L340 370" fill="none" stroke="#ebeded" stroke-width="4" stroke-linejoin="round" stroke-linecap="round"></path><ellipse cx="213" cy="421" rx="35" ry="18" fill="#a98cba" stroke="#253646" stroke-width="4.3"></ellipse><path d="M225 420l-1 9 M213 421l-1 10" fill="none" stroke="#746a8c" stroke-width="2.6" stroke-linejoin="round" stroke-linecap="round"></path><ellipse cx="299" cy="421" rx="35" ry="18" fill="#a98cba" stroke="#253646" stroke-width="4.3"></ellipse><path d="M287 420l-1 9 M299 421l-1 10" fill="none" stroke="#746a8c" stroke-width="2.6" stroke-linejoin="round" stroke-linecap="round"></path><path d="M195 306Q183 313 185 339L190 390Q191 416 219 416L298 416Q320 412 322 391L326 325Q325 303 303 303Z" fill="url(#body)" stroke="#253646" stroke-width="4.4" stroke-linejoin="round" stroke-linecap="round"></path><path d="M195 388Q236 404 320 377L318 398Q303 418 216 413Z" fill="#b2aec5" stroke="none" stroke-width="0" stroke-linejoin="round" stroke-linecap="round"></path><path d="M225 323C209 345 213 377 233 391Q256 409 283 390C301 373 300 348 283 324Q254 307 225 323Z" fill="#ebeded" stroke="#253646" stroke-width="3.0" stroke-linejoin="round" stroke-linecap="round"></path><path d="M244 385Q257 391 269 383" fill="none" stroke="#cfc4d8" stroke-width="2.5" stroke-linejoin="round" stroke-linecap="round"></path><path d="M173 200Q151 203 151 226L153 305Q153 337 187 341L321 341Q355 336 356 306L360 225Q360 201 329 196L192 194Z" fill="url(#body)" stroke="#253646" stroke-width="4.4" stroke-linejoin="round" stroke-linecap="round"></path><path d="M174 227Q167 230 169 245L172 292Q172 312 190 315L321 315Q341 311 341 291L339 240Q338 223 321 223Z" fill="#ebeded" stroke="#253646" stroke-width="3.7" stroke-linejoin="round" stroke-linecap="round"></path><ellipse cx="159" cy="212" rx="7" ry="7" fill="#a98cba" stroke="#253646" stroke-width="2"></ellipse><path d="M156 212h6" fill="none" stroke="#ebeded" stroke-width="2" stroke-linejoin="round" stroke-linecap="round"></path><ellipse cx="349" cy="212" rx="7" ry="7" fill="#a98cba" stroke="#253646" stroke-width="2"></ellipse><path d="M346 212h6" fill="none" stroke="#ebeded" stroke-width="2" stroke-linejoin="round" stroke-linecap="round"></path><g transform="rotate(5 208 272)"><ellipse cx="208" cy="272" rx="27" ry="31" fill="#fffefa" stroke="#253646" stroke-width="3.8"></ellipse><ellipse cx="207" cy="273" rx="20" ry="24" fill="url(#eye)" stroke="#253646" stroke-width="2.7"></ellipse><ellipse cx="206" cy="274" rx="10.78" ry="20.0" fill="#253646" stroke="none" stroke-width="0"></ellipse><ellipse cx="203" cy="259" rx="7.5" ry="10.2" fill="#fffefa" stroke="none" stroke-width="0"></ellipse><ellipse cx="215" cy="285" rx="4.2" ry="5.0" fill="#fffefa" stroke="none" stroke-width="0"></ellipse><path d="M180 261Q204 234 234 254" fill="none" stroke="#253646" stroke-width="5.4" stroke-linejoin="round" stroke-linecap="round"></path></g><ellipse cx="191" cy="309" rx="15" ry="5.5" fill="#eea0ac" stroke="none" stroke-width="0"></ellipse><g transform="rotate(-5 304 272)"><ellipse cx="304" cy="272" rx="27" ry="31" fill="#fffefa" stroke="#253646" stroke-width="3.8"></ellipse><ellipse cx="305" cy="273" rx="20" ry="24" fill="url(#eye)" stroke="#253646" stroke-width="2.7"></ellipse><ellipse cx="306" cy="274" rx="10.78" ry="20.0" fill="#253646" stroke="none" stroke-width="0"></ellipse><ellipse cx="299" cy="259" rx="7.5" ry="10.2" fill="#fffefa" stroke="none" stroke-width="0"></ellipse><ellipse cx="311" cy="285" rx="4.2" ry="5.0" fill="#fffefa" stroke="none" stroke-width="0"></ellipse><path d="M276 261Q300 234 330 254" fill="none" stroke="#253646" stroke-width="5.4" stroke-linejoin="round" stroke-linecap="round"></path></g><ellipse cx="321" cy="309" rx="15" ry="5.5" fill="#eea0ac" stroke="none" stroke-width="0"></ellipse><path d="M250 298Q257 294 263 298Q258 305 254 303Z" fill="#253646" stroke="#253646" stroke-width="2" stroke-linejoin="round" stroke-linecap="round"></path><path d="M240 309Q249 320 256 311Q264 320 274 307" fill="none" stroke="#253646" stroke-width="3.2" stroke-linejoin="round" stroke-linecap="round"></path><path d="M197 290Q208 296 218 289" fill="none" stroke="#c6b3d0" stroke-width="2.1" stroke-linejoin="round" stroke-linecap="round"></path><path d="M193 238Q201 234 208 236" fill="none" stroke="#ebeced" stroke-width="2.5" stroke-linejoin="round" stroke-linecap="round"></path><ellipse cx="191" cy="299" rx="1.35" ry="1.35" fill="#957fa9" stroke="none" stroke-width="0"></ellipse><ellipse cx="187" cy="304" rx="1.35" ry="1.35" fill="#957fa9" stroke="none" stroke-width="0"></ellipse><ellipse cx="183" cy="299" rx="1.35" ry="1.35" fill="#957fa9" stroke="none" stroke-width="0"></ellipse><path d="M183 306q-4 -2 -7 -6" fill="none" stroke="#dadee2" stroke-width="1.8" stroke-linejoin="round" stroke-linecap="round"></path><path d="M180 313q-4 -2 -7 -6" fill="none" stroke="#dadee2" stroke-width="1.8" stroke-linejoin="round" stroke-linecap="round"></path><path d="M177 320q-4 -2 -7 -6" fill="none" stroke="#dadee2" stroke-width="1.8" stroke-linejoin="round" stroke-linecap="round"></path><path d="M201 350q-6 9 -5 20" fill="none" stroke="#e2e5e7" stroke-width="3" stroke-linejoin="round" stroke-linecap="round"></path><path d="M211 407q-9 -2 -13 3" fill="none" stroke="#d4c5da" stroke-width="3" stroke-linejoin="round" stroke-linecap="round"></path><ellipse cx="217" cy="416" rx="2.2" ry="2.2" fill="#e5dce7" stroke="none" stroke-width="0"></ellipse><path d="M194 386q-7 -4 -9 -12" fill="none" stroke="#959fac" stroke-width="2.1" stroke-linejoin="round" stroke-linecap="round"></path><ellipse cx="196" cy="328" rx="3.5" ry="5.2" fill="#b2afc5" stroke="none" stroke-width="0"></ellipse><path d="M293 290Q304 296 314 289" fill="none" stroke="#c6b3d0" stroke-width="2.1" stroke-linejoin="round" stroke-linecap="round"></path><path d="M289 238Q297 234 304 236" fill="none" stroke="#ebeced" stroke-width="2.5" stroke-linejoin="round" stroke-linecap="round"></path><ellipse cx="321" cy="299" rx="1.35" ry="1.35" fill="#957fa9" stroke="none" stroke-width="0"></ellipse><ellipse cx="325" cy="304" rx="1.35" ry="1.35" fill="#957fa9" stroke="none" stroke-width="0"></ellipse><ellipse cx="329" cy="299" rx="1.35" ry="1.35" fill="#957fa9" stroke="none" stroke-width="0"></ellipse><path d="M329 306q4 -2 7 -6" fill="none" stroke="#dadee2" stroke-width="1.8" stroke-linejoin="round" stroke-linecap="round"></path><path d="M332 313q4 -2 7 -6" fill="none" stroke="#dadee2" stroke-width="1.8" stroke-linejoin="round" stroke-linecap="round"></path><path d="M335 320q4 -2 7 -6" fill="none" stroke="#dadee2" stroke-width="1.8" stroke-linejoin="round" stroke-linecap="round"></path><path d="M311 350q6 9 5 20" fill="none" stroke="#e2e5e7" stroke-width="3" stroke-linejoin="round" stroke-linecap="round"></path><path d="M301 407q9 -2 13 3" fill="none" stroke="#d4c5da" stroke-width="3" stroke-linejoin="round" stroke-linecap="round"></path><ellipse cx="295" cy="416" rx="2.2" ry="2.2" fill="#e5dce7" stroke="none" stroke-width="0"></ellipse><path d="M318 386q7 -4 9 -12" fill="none" stroke="#959fac" stroke-width="2.1" stroke-linejoin="round" stroke-linecap="round"></path><ellipse cx="316" cy="328" rx="3.5" ry="5.2" fill="#b2afc5" stroke="none" stroke-width="0"></ellipse><path d="M240 364q-2 8 0 12q2 -6 0 -12Z" fill="#f7f7f5" stroke="none" stroke-width="0" stroke-linejoin="round" stroke-linecap="round"></path><path d="M236 400q4 3 8 0" fill="none" stroke="#d7d0de" stroke-width="1.8" stroke-linejoin="round" stroke-linecap="round"></path><path d="M253 364q-2 8 0 12q2 -6 0 -12Z" fill="#f7f7f5" stroke="none" stroke-width="0" stroke-linejoin="round" stroke-linecap="round"></path><path d="M253 400q4 3 8 0" fill="none" stroke="#d7d0de" stroke-width="1.8" stroke-linejoin="round" stroke-linecap="round"></path><path d="M266 364q-2 8 0 12q2 -6 0 -12Z" fill="#f7f7f5" stroke="none" stroke-width="0" stroke-linejoin="round" stroke-linecap="round"></path><path d="M270 400q4 3 8 0" fill="none" stroke="#d7d0de" stroke-width="1.8" stroke-linejoin="round" stroke-linecap="round"></path><path d="M206 174h20v18h-20Z" fill="#ebeded" stroke="#253646" stroke-width="2.7" stroke-linejoin="round" stroke-linecap="round"></path><path d="M232 174h20v18h-20Z" fill="#ebeded" stroke="#253646" stroke-width="2.7" stroke-linejoin="round" stroke-linecap="round"></path><path d="M258 174h20v18h-20Z" fill="#ebeded" stroke="#253646" stroke-width="2.7" stroke-linejoin="round" stroke-linecap="round"></path><path d="M284 174h20v18h-20Z" fill="#ebeded" stroke="#253646" stroke-width="2.7" stroke-linejoin="round" stroke-linecap="round"></path><path d="M191 337L223 324L254 345L285 324L320 337L298 363L271 353L254 376L235 353L209 365Z" fill="#a98cba" stroke="#253646" stroke-width="3.8" stroke-linejoin="round" stroke-linecap="round"></path><path d="M221 331L254 354L285 331L273 349L254 369L235 350Z" fill="#ebeded" stroke="#253646" stroke-width="2.2" stroke-linejoin="round" stroke-linecap="round"></path><path d="M256 339 L269.3 354.2 267.02 371.3 256 377 244.98 371.3 242.7 354.2Z" fill="#f3cb78" stroke="#253646" stroke-width="3.5" stroke-linejoin="round" stroke-linecap="round"></path><path d="M256 339 L257.9 363.32 269.3 354.2Z" fill="#f8e2b2" stroke="none" stroke-width="0" stroke-linejoin="round" stroke-linecap="round"></path><path d="M242.7 354.2 L256 362.75 269.3 354.2 M256 362.75 L256 377" fill="none" stroke="#c0a66c" stroke-width="2" stroke-linejoin="round" stroke-linecap="round"></path><path d="M219 153L215 122L237 135L256 109L275 135L299 121L294 154Z" fill="#f3cb78" stroke="#253646" stroke-width="4" stroke-linejoin="round" stroke-linecap="round"></path><path d="M225 147H287" fill="none" stroke="#ebeded" stroke-width="4" stroke-linejoin="round" stroke-linecap="round"></path><path d="M256 131 L261.6 137.4 260.64 144.6 256 147 251.36 144.6 250.4 137.4Z" fill="#a98cba" stroke="#253646" stroke-width="3.5" stroke-linejoin="round" stroke-linecap="round"></path><path d="M256 131 L256.8 141.24 261.6 137.4Z" fill="#d0bfd7" stroke="none" stroke-width="0" stroke-linejoin="round" stroke-linecap="round"></path><path d="M250.4 137.4 L256 141.0 261.6 137.4 M256 141.0 L256 147" fill="none" stroke="#88769d" stroke-width="2" stroke-linejoin="round" stroke-linecap="round"></path><ellipse cx="171" cy="357" rx="25" ry="27" fill="#b6bfca" stroke="#253646" stroke-width="4.3" transform="rotate(28 171 357)"></ellipse><ellipse cx="171" cy="364" rx="10" ry="11" fill="#ebeded" stroke="#253646" stroke-width="2.2"></ellipse><path d="M164 348l-1 6M173 347v7" fill="none" stroke="#7c8895" stroke-width="2" stroke-linejoin="round" stroke-linecap="round"></path><path d="M160 354q-3 7 1 12" fill="none" stroke="#e5e8e9" stroke-width="2.5" stroke-linejoin="round" stroke-linecap="round"></path><ellipse cx="174" cy="361" rx="2.0" ry="2.0" fill="#f9f9f6" stroke="none" stroke-width="0"></ellipse><ellipse cx="341" cy="357" rx="25" ry="27" fill="#b6bfca" stroke="#253646" stroke-width="4.3" transform="rotate(-28 341 357)"></ellipse><ellipse cx="341" cy="364" rx="10" ry="11" fill="#ebeded" stroke="#253646" stroke-width="2.2"></ellipse><path d="M334 348l-1 6M343 347v7" fill="none" stroke="#7c8895" stroke-width="2" stroke-linejoin="round" stroke-linecap="round"></path><path d="M330 354q-3 7 1 12" fill="none" stroke="#e5e8e9" stroke-width="2.5" stroke-linejoin="round" stroke-linecap="round"></path><ellipse cx="344" cy="361" rx="2.0" ry="2.0" fill="#f9f9f6" stroke="none" stroke-width="0"></ellipse><ellipse cx="261.75" cy="394.0" rx="3.5" ry="3.25" fill="#a98cba" stroke="#253646" stroke-width="2.5"></ellipse><ellipse cx="259.16" cy="397.57" rx="3.5" ry="3.25" fill="#a98cba" stroke="#253646" stroke-width="2.5"></ellipse><ellipse cx="254.97" cy="396.2" rx="3.5" ry="3.25" fill="#a98cba" stroke="#253646" stroke-width="2.5"></ellipse><ellipse cx="254.97" cy="391.8" rx="3.5" ry="3.25" fill="#a98cba" stroke="#253646" stroke-width="2.5"></ellipse><ellipse cx="259.16" cy="390.43" rx="3.5" ry="3.25" fill="#a98cba" stroke="#253646" stroke-width="2.5"></ellipse><ellipse cx="258" cy="394" rx="2.5" ry="2.5" fill="#ffe39c" stroke="#253646" stroke-width="2.2"></ellipse></g></svg>