<svg xmlns="http://www.w3.org/2000/svg" width="1024" height="1024" viewBox="77.664 113.474 386.053 386.053" role="img" aria-label="도장새룬" data-species="sealun" data-form="sealun-1" data-source="original-vector-paths" preserveAspectRatio="xMidYMid meet" data-safe-fraction=".12"><title>도장새룬</title><defs><linearGradient id="body" x1="0" y1="0" x2=".3" y2="1"><stop stop-color="#b9d5cc"></stop><stop offset=".72" stop-color="#a8cbc0"></stop><stop offset="1" stop-color="#b4b9a8"></stop></linearGradient><linearGradient id="eye" x1="0" y1="0" x2="0" y2="1"><stop stop-color="#253646"></stop><stop offset=".55" stop-color="#907466"></stop><stop offset="1" stop-color="#ca9578"></stop></linearGradient></defs><g transform="translate(12.29 0) scale(0.95 1)"><path d="M300 365 C345 375 347 327 379 325 C377 298 404 294 418 302 C416 329 403 346 381 350 C376 398 339 429 302 416Z" fill="#ca9578" stroke="#253646" stroke-width="4.4" stroke-linejoin="round" stroke-linecap="round"></path><path d="M379 345 Q404 330 415 307 Q405 342 388 351Z" fill="#e8f0ea" stroke="none" stroke-width="0" stroke-linejoin="round" stroke-linecap="round"></path><path d="M186 286 L139 278 L126 338 L171 365Z" fill="#ca9578" stroke="#253646" stroke-width="4.4" stroke-linejoin="round" stroke-linecap="round"></path><path d="M326 286 L373 278 L386 338 L341 365Z" fill="#ca9578" stroke="#253646" stroke-width="4.4" stroke-linejoin="round" stroke-linecap="round"></path><ellipse cx="213" cy="421" rx="33" ry="18" fill="#ca9578" stroke="#253646" stroke-width="4.3"></ellipse><path d="M225 420l-1 9 M213 421l-1 10" fill="none" stroke="#886f64" stroke-width="2.6" stroke-linejoin="round" stroke-linecap="round"></path><ellipse cx="299" cy="421" rx="33" ry="18" fill="#ca9578" stroke="#253646" stroke-width="4.3"></ellipse><path d="M287 420l-1 9 M299 421l-1 10" fill="none" stroke="#886f64" stroke-width="2.6" stroke-linejoin="round" stroke-linecap="round"></path><path d="M188 287 C166 327 175 381 204 408 C228 428 294 427 316 405 C341 378 345 322 320 284Z" fill="url(#body)" stroke="#253646" stroke-width="4.4" stroke-linejoin="round" stroke-linecap="round"></path><path d="M225 323C209 345 213 377 233 391Q256 409 283 390C301 373 300 348 283 324Q254 307 225 323Z" fill="#e8f0ea" stroke="#253646" stroke-width="3.0" stroke-linejoin="round" stroke-linecap="round"></path><path d="M244 385Q257 391 269 383" fill="none" stroke="#dbcaba" stroke-width="2.5" stroke-linejoin="round" stroke-linecap="round"></path><path d="M155 230C168 193 213 185 254 196C305 184 343 204 358 242C377 282 359 324 323 339C275 364 205 348 175 334C145 321 130 281 155 230Z" fill="url(#body)" stroke="#253646" stroke-width="4.4" stroke-linejoin="round" stroke-linecap="round"></path><path d="M185 270C199 255 214 268 229 278Q256 267 279 279C297 263 314 259 330 274Q354 329 297 341Q227 358 188 328Z" fill="#e8f0ea" stroke="#253646" stroke-width="2.7" stroke-linejoin="round" stroke-linecap="round"></path><g transform="rotate(0 205 272)"><ellipse cx="205" cy="272" rx="27" ry="34" fill="#fffefa" stroke="#253646" stroke-width="3.8"></ellipse><ellipse cx="204" cy="273" rx="20" ry="27" fill="url(#eye)" stroke="#253646" stroke-width="2.7"></ellipse><ellipse cx="203" cy="274" rx="10.78" ry="22.4" fill="#253646" stroke="none" stroke-width="0"></ellipse><ellipse cx="200" cy="259" rx="7.5" ry="10.2" fill="#fffefa" stroke="none" stroke-width="0"></ellipse><ellipse cx="212" cy="285" rx="4.2" ry="5.0" fill="#fffefa" stroke="none" stroke-width="0"></ellipse><path d="M177 261Q201 231 231 254" fill="none" stroke="#253646" stroke-width="4.6" stroke-linejoin="round" stroke-linecap="round"></path></g><ellipse cx="188" cy="309" rx="15" ry="5.5" fill="#eea0ac" stroke="none" stroke-width="0"></ellipse><g transform="rotate(0 307 272)"><ellipse cx="307" cy="272" rx="27" ry="34" fill="#fffefa" stroke="#253646" stroke-width="3.8"></ellipse><ellipse cx="308" cy="273" rx="20" ry="27" fill="url(#eye)" stroke="#253646" stroke-width="2.7"></ellipse><ellipse cx="309" cy="274" rx="10.78" ry="22.4" fill="#253646" stroke="none" stroke-width="0"></ellipse><ellipse cx="302" cy="259" rx="7.5" ry="10.2" fill="#fffefa" stroke="none" stroke-width="0"></ellipse><ellipse cx="314" cy="285" rx="4.2" ry="5.0" fill="#fffefa" stroke="none" stroke-width="0"></ellipse><path d="M279 261Q303 231 333 254" fill="none" stroke="#253646" stroke-width="4.6" stroke-linejoin="round" stroke-linecap="round"></path></g><ellipse cx="324" cy="309" rx="15" ry="5.5" fill="#eea0ac" stroke="none" stroke-width="0"></ellipse><path d="M250 298Q257 294 263 298Q258 305 254 303Z" fill="#253646" stroke="#253646" stroke-width="2" stroke-linejoin="round" stroke-linecap="round"></path><path d="M240 309Q249 320 256 311Q264 320 274 307" fill="none" stroke="#253646" stroke-width="3.2" stroke-linejoin="round" stroke-linecap="round"></path><path d="M194 293Q205 299 215 292" fill="none" stroke="#dcb9a4" stroke-width="2.1" stroke-linejoin="round" stroke-linecap="round"></path><path d="M190 235Q198 231 205 233" fill="none" stroke="#e7f0ea" stroke-width="2.5" stroke-linejoin="round" stroke-linecap="round"></path><ellipse cx="188" cy="299" rx="1.35" ry="1.35" fill="#b18770" stroke="none" stroke-width="0"></ellipse><ellipse cx="184" cy="304" rx="1.35" ry="1.35" fill="#b18770" stroke="none" stroke-width="0"></ellipse><ellipse cx="180" cy="299" rx="1.35" ry="1.35" fill="#b18770" stroke="none" stroke-width="0"></ellipse><path d="M183 306q-4 -2 -7 -6" fill="none" stroke="#d4e4dd" stroke-width="1.8" stroke-linejoin="round" stroke-linecap="round"></path><path d="M180 313q-4 -2 -7 -6" fill="none" stroke="#d4e4dd" stroke-width="1.8" stroke-linejoin="round" stroke-linecap="round"></path><path d="M177 320q-4 -2 -7 -6" fill="none" stroke="#d4e4dd" stroke-width="1.8" stroke-linejoin="round" stroke-linecap="round"></path><path d="M201 350q-6 9 -5 20" fill="none" stroke="#dceae3" stroke-width="3" stroke-linejoin="round" stroke-linecap="round"></path><path d="M211 407q-9 -2 -13 3" fill="none" stroke="#e4cab9" stroke-width="3" stroke-linejoin="round" stroke-linecap="round"></path><ellipse cx="217" cy="416" rx="2.2" ry="2.2" fill="#efded3" stroke="none" stroke-width="0"></ellipse><path d="M194 386q-7 -4 -9 -12" fill="none" stroke="#8aa9a4" stroke-width="2.1" stroke-linejoin="round" stroke-linecap="round"></path><ellipse cx="196" cy="328" rx="3.5" ry="5.2" fill="#b3baa9" stroke="none" stroke-width="0"></ellipse><path d="M296 293Q307 299 317 292" fill="none" stroke="#dcb9a4" stroke-width="2.1" stroke-linejoin="round" stroke-linecap="round"></path><path d="M292 235Q300 231 307 233" fill="none" stroke="#e7f0ea" stroke-width="2.5" stroke-linejoin="round" stroke-linecap="round"></path><ellipse cx="324" cy="299" rx="1.35" ry="1.35" fill="#b18770" stroke="none" stroke-width="0"></ellipse><ellipse cx="328" cy="304" rx="1.35" ry="1.35" fill="#b18770" stroke="none" stroke-width="0"></ellipse><ellipse cx="332" cy="299" rx="1.35" ry="1.35" fill="#b18770" stroke="none" stroke-width="0"></ellipse><path d="M329 306q4 -2 7 -6" fill="none" stroke="#d4e4dd" stroke-width="1.8" stroke-linejoin="round" stroke-linecap="round"></path><path d="M332 313q4 -2 7 -6" fill="none" stroke="#d4e4dd" stroke-width="1.8" stroke-linejoin="round" stroke-linecap="round"></path><path d="M335 320q4 -2 7 -6" fill="none" stroke="#d4e4dd" stroke-width="1.8" stroke-linejoin="round" stroke-linecap="round"></path><path d="M311 350q6 9 5 20" fill="none" stroke="#dceae3" stroke-width="3" stroke-linejoin="round" stroke-linecap="round"></path><path d="M301 407q9 -2 13 3" fill="none" stroke="#e4cab9" stroke-width="3" stroke-linejoin="round" stroke-linecap="round"></path><ellipse cx="295" cy="416" rx="2.2" ry="2.2" fill="#efded3" stroke="none" stroke-width="0"></ellipse><path d="M318 386q7 -4 9 -12" fill="none" stroke="#8aa9a4" stroke-width="2.1" stroke-linejoin="round" stroke-linecap="round"></path><ellipse cx="316" cy="328" rx="3.5" ry="5.2" fill="#b3baa9" stroke="none" stroke-width="0"></ellipse><path d="M240 364q-2 8 0 12q2 -6 0 -12Z" fill="#f6f8f4" stroke="none" stroke-width="0" stroke-linejoin="round" stroke-linecap="round"></path><path d="M236 400q4 3 8 0" fill="none" stroke="#dfd5c8" stroke-width="1.8" stroke-linejoin="round" stroke-linecap="round"></path><path d="M253 364q-2 8 0 12q2 -6 0 -12Z" fill="#f6f8f4" stroke="none" stroke-width="0" stroke-linejoin="round" stroke-linecap="round"></path><path d="M253 400q4 3 8 0" fill="none" stroke="#dfd5c8" stroke-width="1.8" stroke-linejoin="round" stroke-linecap="round"></path><path d="M266 364q-2 8 0 12q2 -6 0 -12Z" fill="#f6f8f4" stroke="none" stroke-width="0" stroke-linejoin="round" stroke-linecap="round"></path><path d="M270 400q4 3 8 0" fill="none" stroke="#dfd5c8" stroke-width="1.8" stroke-linejoin="round" stroke-linecap="round"></path><ellipse cx="182" cy="218" rx="14" ry="11" fill="#a8cbc0" stroke="#253646" stroke-width="3.1"></ellipse><ellipse cx="182" cy="219" rx="7" ry="5" fill="#e8f0ea" stroke="#253646" stroke-width="1.6"></ellipse><ellipse cx="330" cy="218" rx="14" ry="11" fill="#a8cbc0" stroke="#253646" stroke-width="3.1"></ellipse><ellipse cx="330" cy="219" rx="7" ry="5" fill="#e8f0ea" stroke="#253646" stroke-width="1.6"></ellipse><path d="M239 174L273 174L288 198L256 219L225 198Z" fill="#ca9578" stroke="#253646" stroke-width="4.4" stroke-linejoin="round" stroke-linecap="round"></path><path d="M244 182L262 184L267 195L251 201L244 192" fill="none" stroke="#f3cb78" stroke-width="3" stroke-linejoin="round" stroke-linecap="round"></path><path d="M191 337L223 324L254 345L285 324L320 337L298 363L271 353L254 376L235 353L209 365Z" fill="#ca9578" stroke="#253646" stroke-width="3.8" stroke-linejoin="round" stroke-linecap="round"></path><path d="M221 331L254 354L285 331L273 349L254 369L235 350Z" fill="#e8f0ea" stroke="#253646" stroke-width="2.2" stroke-linejoin="round" stroke-linecap="round"></path><path d="M256 342 L267.2 354.8 265.28 369.2 256 374 246.72 369.2 244.8 354.8Z" fill="#f3cb78" stroke="#253646" stroke-width="3.5" stroke-linejoin="round" stroke-linecap="round"></path><path d="M256 342 L257.6 362.48 267.2 354.8Z" fill="#f8e2b2" stroke="none" stroke-width="0" stroke-linejoin="round" stroke-linecap="round"></path><path d="M244.8 354.8 L256 362.0 267.2 354.8 M256 362.0 L256 374" fill="none" stroke="#c0a66c" stroke-width="2" stroke-linejoin="round" stroke-linecap="round"></path><ellipse cx="177" cy="357" rx="23" ry="27" fill="#a8cbc0" stroke="#253646" stroke-width="4.3" transform="rotate(28 177 357)"></ellipse><ellipse cx="177" cy="364" rx="10" ry="11" fill="#e8f0ea" stroke="#253646" stroke-width="2.2"></ellipse><path d="M170 348l-1 6M179 347v7" fill="none" stroke="#748f8f" stroke-width="2" stroke-linejoin="round" stroke-linecap="round"></path><path d="M166 354q-3 7 1 12" fill="none" stroke="#e1ece6" stroke-width="2.5" stroke-linejoin="round" stroke-linecap="round"></path><ellipse cx="180" cy="361" rx="2.0" ry="2.0" fill="#f8faf5" stroke="none" stroke-width="0"></ellipse><ellipse cx="335" cy="357" rx="23" ry="27" fill="#a8cbc0" stroke="#253646" stroke-width="4.3" transform="rotate(-28 335 357)"></ellipse><ellipse cx="335" cy="364" rx="10" ry="11" fill="#e8f0ea" stroke="#253646" stroke-width="2.2"></ellipse><path d="M328 348l-1 6M337 347v7" fill="none" stroke="#748f8f" stroke-width="2" stroke-linejoin="round" stroke-linecap="round"></path><path d="M324 354q-3 7 1 12" fill="none" stroke="#e1ece6" stroke-width="2.5" stroke-linejoin="round" stroke-linecap="round"></path><ellipse cx="338" cy="361" rx="2.0" ry="2.0" fill="#f8faf5" stroke="none" stroke-width="0"></ellipse><path d="M247 381L265 381L270 394Q261 407 255 408Q244 401 242 393Z" fill="#ca9578" stroke="#253646" stroke-width="2.2" stroke-linejoin="round" stroke-linecap="round"></path><path d="M252 386L255 400L263 388" fill="none" stroke="#e8f0ea" stroke-width="2" stroke-linejoin="round" stroke-linecap="round"></path></g></svg>