<svg xmlns="http://www.w3.org/2000/svg" width="1024" height="1024" viewBox="11.387 16.237 489.503 489.503" role="img" aria-label="세리풀" data-species="serin" data-form="serin-0" data-source="original-vector-paths" preserveAspectRatio="xMidYMid meet" data-safe-fraction=".12"><title>세리풀</title><defs><linearGradient id="body" x1="0" y1="0" x2=".3" y2="1"><stop stop-color="#c7e0a5"></stop><stop offset=".72" stop-color="#b9d990"></stop><stop offset="1" stop-color="#a1ca7e"></stop></linearGradient><linearGradient id="eye" x1="0" y1="0" x2="0" y2="1"><stop stop-color="#253646"></stop><stop offset=".55" stop-color="#568354"></stop><stop offset="1" stop-color="#71ac5c"></stop></linearGradient></defs><g transform="translate(-16.38 0) scale(1.06 1)"><ellipse cx="213" cy="421" rx="31" ry="18" fill="#71ac5c" stroke="#253646" stroke-width="4.3"></ellipse><path d="M225 420l-1 9 M213 421l-1 10" fill="none" stroke="#537d53" stroke-width="2.6" stroke-linejoin="round" stroke-linecap="round"></path><ellipse cx="299" cy="421" rx="31" ry="18" fill="#71ac5c" stroke="#253646" stroke-width="4.3"></ellipse><path d="M287 420l-1 9 M299 421l-1 10" fill="none" stroke="#537d53" stroke-width="2.6" stroke-linejoin="round" stroke-linecap="round"></path><path d="M193 287 C166 327 175 381 204 408 C228 428 294 427 316 405 C341 378 345 322 316 284Z" fill="url(#body)" stroke="#253646" stroke-width="4.4" stroke-linejoin="round" stroke-linecap="round"></path><path d="M225 323C209 345 213 377 233 391Q256 409 283 390C301 373 300 348 283 324Q254 307 225 323Z" fill="#ecf4dd" stroke="#253646" stroke-width="3.0" stroke-linejoin="round" stroke-linecap="round"></path><path d="M244 385Q257 391 269 383" fill="none" stroke="#b8d6a7" stroke-width="2.5" stroke-linejoin="round" stroke-linecap="round"></path><g transform="translate(256 0) scale(-1 1) translate(-256 0)"><path d="M177 217 C148 203 139 162 152 91 Q162 72 178 98 C198 142 205 183 199 213Z" fill="#b9d990" stroke="#253646" stroke-width="4.4" stroke-linejoin="round" stroke-linecap="round"></path><path d="M175 198 Q153 161 162 105Q185 147 187 191Z" fill="#eea0ac" stroke="#253646" stroke-width="2.8" stroke-linejoin="round" stroke-linecap="round"></path></g><g transform="translate(256 0) scale(1 1) translate(-256 0)"><path d="M177 217 C148 203 139 162 152 91 Q162 72 178 98 C198 142 205 183 199 213Z" fill="#b9d990" stroke="#253646" stroke-width="4.4" stroke-linejoin="round" stroke-linecap="round"></path><path d="M175 198 Q153 161 162 105Q185 147 187 191Z" fill="#eea0ac" stroke="#253646" stroke-width="2.8" stroke-linejoin="round" stroke-linecap="round"></path></g><path d="M182 218C213 193 294 193 328 216Q359 241 352 273L368 289L350 298L359 315L337 317Q315 347 257 353Q201 353 177 326L153 327L163 311L147 300L164 286Q151 245 182 218Z" fill="url(#body)" stroke="#253646" stroke-width="4.4" stroke-linejoin="round" stroke-linecap="round"></path><path d="M178 278L216 288L244 265L265 276L287 266L316 287L341 276Q349 318 309 339Q255 364 208 340Q173 321 178 278Z" fill="#ecf4dd" stroke="#253646" stroke-width="2.7" stroke-linejoin="round" stroke-linecap="round"></path><g transform="rotate(-3 211 272)"><ellipse cx="211" cy="272" rx="28" ry="36" fill="#fffefa" stroke="#253646" stroke-width="3.8"></ellipse><ellipse cx="210" cy="273" rx="21" ry="29" fill="url(#eye)" stroke="#253646" stroke-width="2.7"></ellipse><ellipse cx="209" cy="274" rx="11.27" ry="24.0" fill="#253646" stroke="none" stroke-width="0"></ellipse><ellipse cx="206" cy="259" rx="7.5" ry="10.2" fill="#fffefa" stroke="none" stroke-width="0"></ellipse><ellipse cx="218" cy="285" rx="4.2" ry="5.0" fill="#fffefa" stroke="none" stroke-width="0"></ellipse><path d="M182 261Q207 229 238 254" fill="none" stroke="#253646" stroke-width="4.6" stroke-linejoin="round" stroke-linecap="round"></path></g><ellipse cx="194" cy="309" rx="15" ry="5.5" fill="#eea0ac" stroke="none" stroke-width="0"></ellipse><path d="M205 227q6 -5 13 -2" fill="none" stroke="#689e59" stroke-width="4" stroke-linejoin="round" stroke-linecap="round"></path><g transform="rotate(3 301 272)"><ellipse cx="301" cy="272" rx="28" ry="36" fill="#fffefa" stroke="#253646" stroke-width="3.8"></ellipse><ellipse cx="302" cy="273" rx="21" ry="29" fill="url(#eye)" stroke="#253646" stroke-width="2.7"></ellipse><ellipse cx="303" cy="274" rx="11.27" ry="24.0" fill="#253646" stroke="none" stroke-width="0"></ellipse><ellipse cx="296" cy="259" rx="7.5" ry="10.2" fill="#fffefa" stroke="none" stroke-width="0"></ellipse><ellipse cx="308" cy="285" rx="4.2" ry="5.0" fill="#fffefa" stroke="none" stroke-width="0"></ellipse><path d="M272 261Q297 229 328 254" fill="none" stroke="#253646" stroke-width="4.6" stroke-linejoin="round" stroke-linecap="round"></path></g><ellipse cx="318" cy="309" rx="15" ry="5.5" fill="#eea0ac" stroke="none" stroke-width="0"></ellipse><path d="M295 227q6 -5 13 -2" fill="none" stroke="#689e59" stroke-width="4" stroke-linejoin="round" stroke-linecap="round"></path><path d="M250 298Q257 294 263 298Q258 305 254 303Z" fill="#253646" stroke="#253646" stroke-width="2" stroke-linejoin="round" stroke-linecap="round"></path><path d="M240 309Q249 320 256 311Q264 320 274 307" fill="none" stroke="#253646" stroke-width="3.2" stroke-linejoin="round" stroke-linecap="round"></path><path d="M200 295Q211 301 221 294" fill="none" stroke="#a1c892" stroke-width="2.1" stroke-linejoin="round" stroke-linecap="round"></path><path d="M196 233Q204 229 211 231" fill="none" stroke="#ebf4dc" stroke-width="2.5" stroke-linejoin="round" stroke-linecap="round"></path><ellipse cx="194" cy="299" rx="1.35" ry="1.35" fill="#669a59" stroke="none" stroke-width="0"></ellipse><ellipse cx="190" cy="304" rx="1.35" ry="1.35" fill="#669a59" stroke="none" stroke-width="0"></ellipse><ellipse cx="186" cy="299" rx="1.35" ry="1.35" fill="#669a59" stroke="none" stroke-width="0"></ellipse><path d="M183 306q-4 -2 -7 -6" fill="none" stroke="#dcecc5" stroke-width="1.8" stroke-linejoin="round" stroke-linecap="round"></path><path d="M180 313q-4 -2 -7 -6" fill="none" stroke="#dcecc5" stroke-width="1.8" stroke-linejoin="round" stroke-linecap="round"></path><path d="M177 320q-4 -2 -7 -6" fill="none" stroke="#dcecc5" stroke-width="1.8" stroke-linejoin="round" stroke-linecap="round"></path><path d="M201 350q-6 9 -5 20" fill="none" stroke="#e3efd0" stroke-width="3" stroke-linejoin="round" stroke-linecap="round"></path><path d="M211 407q-9 -2 -13 3" fill="none" stroke="#b8d5ab" stroke-width="3" stroke-linejoin="round" stroke-linecap="round"></path><ellipse cx="217" cy="416" rx="2.2" ry="2.2" fill="#d4e5cb" stroke="none" stroke-width="0"></ellipse><path d="M194 386q-7 -4 -9 -12" fill="none" stroke="#97b47f" stroke-width="2.1" stroke-linejoin="round" stroke-linecap="round"></path><path d="M198 332q-5 -8 -8 -6" fill="none" stroke="#9cc77b" stroke-width="2.6" stroke-linejoin="round" stroke-linecap="round"></path><path d="M290 295Q301 301 311 294" fill="none" stroke="#a1c892" stroke-width="2.1" stroke-linejoin="round" stroke-linecap="round"></path><path d="M286 233Q294 229 301 231" fill="none" stroke="#ebf4dc" stroke-width="2.5" stroke-linejoin="round" stroke-linecap="round"></path><ellipse cx="318" cy="299" rx="1.35" ry="1.35" fill="#669a59" stroke="none" stroke-width="0"></ellipse><ellipse cx="322" cy="304" rx="1.35" ry="1.35" fill="#669a59" stroke="none" stroke-width="0"></ellipse><ellipse cx="326" cy="299" rx="1.35" ry="1.35" fill="#669a59" stroke="none" stroke-width="0"></ellipse><path d="M329 306q4 -2 7 -6" fill="none" stroke="#dcecc5" stroke-width="1.8" stroke-linejoin="round" stroke-linecap="round"></path><path d="M332 313q4 -2 7 -6" fill="none" stroke="#dcecc5" stroke-width="1.8" stroke-linejoin="round" stroke-linecap="round"></path><path d="M335 320q4 -2 7 -6" fill="none" stroke="#dcecc5" stroke-width="1.8" stroke-linejoin="round" stroke-linecap="round"></path><path d="M311 350q6 9 5 20" fill="none" stroke="#e3efd0" stroke-width="3" stroke-linejoin="round" stroke-linecap="round"></path><path d="M301 407q9 -2 13 3" fill="none" stroke="#b8d5ab" stroke-width="3" stroke-linejoin="round" stroke-linecap="round"></path><ellipse cx="295" cy="416" rx="2.2" ry="2.2" fill="#d4e5cb" stroke="none" stroke-width="0"></ellipse><path d="M318 386q7 -4 9 -12" fill="none" stroke="#97b47f" stroke-width="2.1" stroke-linejoin="round" stroke-linecap="round"></path><path d="M314 332q5 -8 8 -6" fill="none" stroke="#9cc77b" stroke-width="2.6" stroke-linejoin="round" stroke-linecap="round"></path><path d="M240 364q-2 8 0 12q2 -6 0 -12Z" fill="#f7faee" stroke="none" stroke-width="0" stroke-linejoin="round" stroke-linecap="round"></path><path d="M236 400q4 3 8 0" fill="none" stroke="#c7deb6" stroke-width="1.8" stroke-linejoin="round" stroke-linecap="round"></path><path d="M253 364q-2 8 0 12q2 -6 0 -12Z" fill="#f7faee" stroke="none" stroke-width="0" stroke-linejoin="round" stroke-linecap="round"></path><path d="M253 400q4 3 8 0" fill="none" stroke="#c7deb6" stroke-width="1.8" stroke-linejoin="round" stroke-linecap="round"></path><path d="M266 364q-2 8 0 12q2 -6 0 -12Z" fill="#f7faee" stroke="none" stroke-width="0" stroke-linejoin="round" stroke-linecap="round"></path><path d="M270 400q4 3 8 0" fill="none" stroke="#c7deb6" stroke-width="1.8" stroke-linejoin="round" stroke-linecap="round"></path><g transform="translate(243 214) rotate(-20)"><path d="M0 0 C-24 -21.599999999999998 -15.120000000000001 -53.28 0 -72 C19.200000000000003 -50.4 20.64 -21.599999999999998 0 0Z" fill="#71ac5c" stroke="#253646" stroke-width="4.4" stroke-linejoin="round" stroke-linecap="round"></path><path d="M0 -7 Q13.200000000000001 -23.04 0 -63 L0 -7Z" fill="#659958" stroke="none" stroke-width="0" stroke-linejoin="round" stroke-linecap="round"></path><path d="M0 -5 Q-3 -32.4 0 -58" fill="none" stroke="#568254" stroke-width="2.2" stroke-linejoin="round" stroke-linecap="round"></path><path d="M-5.28 -20.160000000000004 Q-9.600000000000001 -40.32000000000001 -3 -54.0" fill="none" stroke="#bfd9b3" stroke-width="3.5" stroke-linejoin="round" stroke-linecap="round"></path></g><g transform="translate(264 213) rotate(24)"><path d="M0 0 C-25 -20.7 -15.75 -51.06 0 -69 C20.0 -48.3 21.5 -20.7 0 0Z" fill="#b9d990" stroke="#253646" stroke-width="4.4" stroke-linejoin="round" stroke-linecap="round"></path><path d="M0 -7 Q13.750000000000002 -22.080000000000002 0 -60 L0 -7Z" fill="#a1bf84" stroke="none" stroke-width="0" stroke-linejoin="round" stroke-linecap="round"></path><path d="M0 -5 Q-3 -31.05 0 -55" fill="none" stroke="#849e75" stroke-width="2.2" stroke-linejoin="round" stroke-linecap="round"></path><path d="M-5.5 -19.32 Q-10.0 -38.64 -3 -51.75" fill="none" stroke="#e0edca" stroke-width="3.5" stroke-linejoin="round" stroke-linecap="round"></path></g><ellipse cx="289.0" cy="184.0" rx="5.6" ry="5.2" fill="#f3cb78" stroke="#253646" stroke-width="2.5"></ellipse><ellipse cx="284.85" cy="189.71" rx="5.6" ry="5.2" fill="#f3cb78" stroke="#253646" stroke-width="2.5"></ellipse><ellipse cx="278.15" cy="187.53" rx="5.6" ry="5.2" fill="#f3cb78" stroke="#253646" stroke-width="2.5"></ellipse><ellipse cx="278.15" cy="180.47" rx="5.6" ry="5.2" fill="#f3cb78" stroke="#253646" stroke-width="2.5"></ellipse><ellipse cx="284.85" cy="178.29" rx="5.6" ry="5.2" fill="#f3cb78" stroke="#253646" stroke-width="2.5"></ellipse><ellipse cx="283" cy="184" rx="4.0" ry="4.0" fill="#ffe39c" stroke="#253646" stroke-width="2.2"></ellipse><ellipse cx="183" cy="357" rx="21" ry="27" fill="#b9d990" stroke="#253646" stroke-width="4.3" transform="rotate(28 183 357)"></ellipse><ellipse cx="183" cy="364" rx="10" ry="11" fill="#ecf4dd" stroke="#253646" stroke-width="2.2"></ellipse><path d="M176 348l-1 6M185 347v7" fill="none" stroke="#7e9872" stroke-width="2" stroke-linejoin="round" stroke-linecap="round"></path><path d="M172 354q-3 7 1 12" fill="none" stroke="#e6f1d5" stroke-width="2.5" stroke-linejoin="round" stroke-linecap="round"></path><ellipse cx="186" cy="361" rx="2.0" ry="2.0" fill="#f9fbf1" stroke="none" stroke-width="0"></ellipse><ellipse cx="329" cy="357" rx="21" ry="27" fill="#b9d990" stroke="#253646" stroke-width="4.3" transform="rotate(-28 329 357)"></ellipse><ellipse cx="329" cy="364" rx="10" ry="11" fill="#ecf4dd" stroke="#253646" stroke-width="2.2"></ellipse><path d="M322 348l-1 6M331 347v7" fill="none" stroke="#7e9872" stroke-width="2" stroke-linejoin="round" stroke-linecap="round"></path><path d="M318 354q-3 7 1 12" fill="none" stroke="#e6f1d5" stroke-width="2.5" stroke-linejoin="round" stroke-linecap="round"></path><ellipse cx="332" cy="361" rx="2.0" ry="2.0" fill="#f9fbf1" stroke="none" stroke-width="0"></ellipse><ellipse cx="261.75" cy="394.0" rx="3.5" ry="3.25" fill="#71ac5c" stroke="#253646" stroke-width="2.5"></ellipse><ellipse cx="259.16" cy="397.57" rx="3.5" ry="3.25" fill="#71ac5c" stroke="#253646" stroke-width="2.5"></ellipse><ellipse cx="254.97" cy="396.2" rx="3.5" ry="3.25" fill="#71ac5c" stroke="#253646" stroke-width="2.5"></ellipse><ellipse cx="254.97" cy="391.8" rx="3.5" ry="3.25" fill="#71ac5c" stroke="#253646" stroke-width="2.5"></ellipse><ellipse cx="259.16" cy="390.43" rx="3.5" ry="3.25" fill="#71ac5c" stroke="#253646" stroke-width="2.5"></ellipse><ellipse cx="258" cy="394" rx="2.5" ry="2.5" fill="#ffe39c" stroke="#253646" stroke-width="2.2"></ellipse></g></svg>