<svg xmlns="http://www.w3.org/2000/svg" width="1024" height="1024" viewBox="55.370 92.096 403.300 403.300" role="img" aria-label="빠르기템포" data-species="tempo" data-form="tempo-1" data-source="original-vector-paths" preserveAspectRatio="xMidYMid meet" data-safe-fraction=".12"><title>빠르기템포</title><defs><linearGradient id="body" x1="0" y1="0" x2=".3" y2="1"><stop stop-color="#b8ced8"></stop><stop offset=".72" stop-color="#a6c2d0"></stop><stop offset="1" stop-color="#b5bab0"></stop></linearGradient><linearGradient id="eye" x1="0" y1="0" x2="0" y2="1"><stop stop-color="#253646"></stop><stop offset=".55" stop-color="#958263"></stop><stop offset="1" stop-color="#d1ab72"></stop></linearGradient></defs><g transform="translate(-4.1 0) scale(1.02 1)"><path d="M186 286 L139 278 L126 338 L171 365Z" fill="#d1ab72" stroke="#253646" stroke-width="4.4" stroke-linejoin="round" stroke-linecap="round"></path><path d="M326 286 L373 278 L386 338 L341 365Z" fill="#d1ab72" stroke="#253646" stroke-width="4.4" stroke-linejoin="round" stroke-linecap="round"></path><ellipse cx="213" cy="421" rx="33" ry="18" fill="#d1ab72" stroke="#253646" stroke-width="4.3"></ellipse><path d="M225 420l-1 9 M213 421l-1 10" fill="none" stroke="#8c7c60" stroke-width="2.6" stroke-linejoin="round" stroke-linecap="round"></path><ellipse cx="299" cy="421" rx="33" ry="18" fill="#d1ab72" stroke="#253646" stroke-width="4.3"></ellipse><path d="M287 420l-1 9 M299 421l-1 10" fill="none" stroke="#8c7c60" stroke-width="2.6" stroke-linejoin="round" stroke-linecap="round"></path><path d="M188 287 C166 327 175 381 204 408 C228 428 294 427 316 405 C341 378 345 322 320 284Z" fill="url(#body)" stroke="#253646" stroke-width="4.4" stroke-linejoin="round" stroke-linecap="round"></path><path d="M225 323C209 345 213 377 233 391Q256 409 283 390C301 373 300 348 283 324Q254 307 225 323Z" fill="#e7eeef" stroke="#253646" stroke-width="3.0" stroke-linejoin="round" stroke-linecap="round"></path><path d="M244 385Q257 391 269 383" fill="none" stroke="#ded2ba" stroke-width="2.5" stroke-linejoin="round" stroke-linecap="round"></path><path d="M174 211L183 182L219 191L252 174L279 191L326 185L336 218Q370 254 354 305L367 320L345 325Q324 354 257 357Q193 357 169 330L148 321L160 304Q143 250 174 211Z" fill="url(#body)" stroke="#253646" stroke-width="4.4" stroke-linejoin="round" stroke-linecap="round"></path><path d="M181 247C185 209 223 209 252 253C277 211 317 209 330 244C345 286 316 330 260 336C204 341 173 303 181 247Z" fill="#e7eeef" stroke="#253646" stroke-width="2.7" stroke-linejoin="round" stroke-linecap="round"></path><g transform="rotate(0 214 272)"><ellipse cx="214" cy="272" rx="28" ry="34" fill="#fffefa" stroke="#253646" stroke-width="3.8"></ellipse><ellipse cx="213" cy="273" rx="21" ry="27" fill="url(#eye)" stroke="#253646" stroke-width="2.7"></ellipse><ellipse cx="212" cy="274" rx="11.27" ry="22.4" fill="#253646" stroke="none" stroke-width="0"></ellipse><ellipse cx="209" cy="259" rx="7.5" ry="10.2" fill="#fffefa" stroke="none" stroke-width="0"></ellipse><ellipse cx="221" cy="285" rx="4.2" ry="5.0" fill="#fffefa" stroke="none" stroke-width="0"></ellipse><path d="M185 261Q210 231 241 254" fill="none" stroke="#253646" stroke-width="4.6" stroke-linejoin="round" stroke-linecap="round"></path></g><ellipse cx="197" cy="309" rx="15" ry="5.5" fill="#eea0ac" stroke="none" stroke-width="0"></ellipse><g transform="rotate(0 298 272)"><ellipse cx="298" cy="272" rx="28" ry="34" fill="#fffefa" stroke="#253646" stroke-width="3.8"></ellipse><ellipse cx="299" cy="273" rx="21" ry="27" fill="url(#eye)" stroke="#253646" stroke-width="2.7"></ellipse><ellipse cx="300" cy="274" rx="11.27" ry="22.4" fill="#253646" stroke="none" stroke-width="0"></ellipse><ellipse cx="293" cy="259" rx="7.5" ry="10.2" fill="#fffefa" stroke="none" stroke-width="0"></ellipse><ellipse cx="305" cy="285" rx="4.2" ry="5.0" fill="#fffefa" stroke="none" stroke-width="0"></ellipse><path d="M269 261Q294 231 325 254" fill="none" stroke="#253646" stroke-width="4.6" stroke-linejoin="round" stroke-linecap="round"></path></g><ellipse cx="315" cy="309" rx="15" ry="5.5" fill="#eea0ac" stroke="none" stroke-width="0"></ellipse><path d="M245 298Q256 292 268 298L256 313Z" fill="#f3cb78" stroke="#253646" stroke-width="3.0" stroke-linejoin="round" stroke-linecap="round"></path><path d="M203 293Q214 299 224 292" fill="none" stroke="#e1c7a0" stroke-width="2.1" stroke-linejoin="round" stroke-linecap="round"></path><path d="M199 235Q207 231 214 233" fill="none" stroke="#e6edee" stroke-width="2.5" stroke-linejoin="round" stroke-linecap="round"></path><ellipse cx="197" cy="299" rx="1.35" ry="1.35" fill="#b7996b" stroke="none" stroke-width="0"></ellipse><ellipse cx="193" cy="304" rx="1.35" ry="1.35" fill="#b7996b" stroke="none" stroke-width="0"></ellipse><ellipse cx="189" cy="299" rx="1.35" ry="1.35" fill="#b7996b" stroke="none" stroke-width="0"></ellipse><path d="M183 306q-4 -2 -7 -6" fill="none" stroke="#d2e0e5" stroke-width="1.8" stroke-linejoin="round" stroke-linecap="round"></path><path d="M180 313q-4 -2 -7 -6" fill="none" stroke="#d2e0e5" stroke-width="1.8" stroke-linejoin="round" stroke-linecap="round"></path><path d="M177 320q-4 -2 -7 -6" fill="none" stroke="#d2e0e5" stroke-width="1.8" stroke-linejoin="round" stroke-linecap="round"></path><path d="M201 350q-6 9 -5 20" fill="none" stroke="#dbe6e9" stroke-width="3" stroke-linejoin="round" stroke-linecap="round"></path><path d="M211 407q-9 -2 -13 3" fill="none" stroke="#e8d4b6" stroke-width="3" stroke-linejoin="round" stroke-linecap="round"></path><ellipse cx="217" cy="416" rx="2.2" ry="2.2" fill="#f1e5d1" stroke="none" stroke-width="0"></ellipse><path d="M194 386q-7 -4 -9 -12" fill="none" stroke="#88a2b0" stroke-width="2.1" stroke-linejoin="round" stroke-linecap="round"></path><path d="M198 332q-5 -8 -8 -6" fill="none" stroke="#b7b9aa" stroke-width="2.6" stroke-linejoin="round" stroke-linecap="round"></path><path d="M287 293Q298 299 308 292" fill="none" stroke="#e1c7a0" stroke-width="2.1" stroke-linejoin="round" stroke-linecap="round"></path><path d="M283 235Q291 231 298 233" fill="none" stroke="#e6edee" stroke-width="2.5" stroke-linejoin="round" stroke-linecap="round"></path><ellipse cx="315" cy="299" rx="1.35" ry="1.35" fill="#b7996b" stroke="none" stroke-width="0"></ellipse><ellipse cx="319" cy="304" rx="1.35" ry="1.35" fill="#b7996b" stroke="none" stroke-width="0"></ellipse><ellipse cx="323" cy="299" rx="1.35" ry="1.35" fill="#b7996b" stroke="none" stroke-width="0"></ellipse><path d="M329 306q4 -2 7 -6" fill="none" stroke="#d2e0e5" stroke-width="1.8" stroke-linejoin="round" stroke-linecap="round"></path><path d="M332 313q4 -2 7 -6" fill="none" stroke="#d2e0e5" stroke-width="1.8" stroke-linejoin="round" stroke-linecap="round"></path><path d="M335 320q4 -2 7 -6" fill="none" stroke="#d2e0e5" stroke-width="1.8" stroke-linejoin="round" stroke-linecap="round"></path><path d="M311 350q6 9 5 20" fill="none" stroke="#dbe6e9" stroke-width="3" stroke-linejoin="round" stroke-linecap="round"></path><path d="M301 407q9 -2 13 3" fill="none" stroke="#e8d4b6" stroke-width="3" stroke-linejoin="round" stroke-linecap="round"></path><ellipse cx="295" cy="416" rx="2.2" ry="2.2" fill="#f1e5d1" stroke="none" stroke-width="0"></ellipse><path d="M318 386q7 -4 9 -12" fill="none" stroke="#88a2b0" stroke-width="2.1" stroke-linejoin="round" stroke-linecap="round"></path><path d="M314 332q5 -8 8 -6" fill="none" stroke="#b7b9aa" stroke-width="2.6" stroke-linejoin="round" stroke-linecap="round"></path><path d="M240 364q-2 8 0 12q2 -6 0 -12Z" fill="#f5f8f6" stroke="none" stroke-width="0" stroke-linejoin="round" stroke-linecap="round"></path><path d="M236 400q4 3 8 0" fill="none" stroke="#e0daca" stroke-width="1.8" stroke-linejoin="round" stroke-linecap="round"></path><path d="M253 364q-2 8 0 12q2 -6 0 -12Z" fill="#f5f8f6" stroke="none" stroke-width="0" stroke-linejoin="round" stroke-linecap="round"></path><path d="M253 400q4 3 8 0" fill="none" stroke="#e0daca" stroke-width="1.8" stroke-linejoin="round" stroke-linecap="round"></path><path d="M266 364q-2 8 0 12q2 -6 0 -12Z" fill="#f5f8f6" stroke="none" stroke-width="0" stroke-linejoin="round" stroke-linecap="round"></path><path d="M270 400q4 3 8 0" fill="none" stroke="#e0daca" stroke-width="1.8" stroke-linejoin="round" stroke-linecap="round"></path><path d="M224 195Q214 165 244 153C270 140 301 157 294 180Q289 188 275 187Q263 186 267 201Q243 213 224 195Z" fill="#e7eeef" stroke="#253646" stroke-width="4.4" stroke-linejoin="round" stroke-linecap="round"></path><ellipse cx="238" cy="168" rx="5" ry="5" fill="#d1ab72" stroke="#253646" stroke-width="1.3"></ellipse><ellipse cx="257" cy="158" rx="5" ry="5" fill="#eea0ac" stroke="#253646" stroke-width="1.3"></ellipse><ellipse cx="278" cy="168" rx="5" ry="5" fill="#86c4d2" stroke="#253646" stroke-width="1.3"></ellipse><path d="M191 337L223 324L254 345L285 324L320 337L298 363L271 353L254 376L235 353L209 365Z" fill="#d1ab72" stroke="#253646" stroke-width="3.8" stroke-linejoin="round" stroke-linecap="round"></path><path d="M221 331L254 354L285 331L273 349L254 369L235 350Z" fill="#e7eeef" stroke="#253646" stroke-width="2.2" stroke-linejoin="round" stroke-linecap="round"></path><path d="M256 342 L267.2 354.8 265.28 369.2 256 374 246.72 369.2 244.8 354.8Z" fill="#f3cb78" stroke="#253646" stroke-width="3.5" stroke-linejoin="round" stroke-linecap="round"></path><path d="M256 342 L257.6 362.48 267.2 354.8Z" fill="#f8e2b2" stroke="none" stroke-width="0" stroke-linejoin="round" stroke-linecap="round"></path><path d="M244.8 354.8 L256 362.0 267.2 354.8 M256 362.0 L256 374" fill="none" stroke="#c0a66c" stroke-width="2" stroke-linejoin="round" stroke-linecap="round"></path><ellipse cx="177" cy="357" rx="23" ry="27" fill="#a6c2d0" stroke="#253646" stroke-width="4.3" transform="rotate(28 177 357)"></ellipse><ellipse cx="177" cy="364" rx="10" ry="11" fill="#e7eeef" stroke="#253646" stroke-width="2.2"></ellipse><path d="M170 348l-1 6M179 347v7" fill="none" stroke="#728a99" stroke-width="2" stroke-linejoin="round" stroke-linecap="round"></path><path d="M166 354q-3 7 1 12" fill="none" stroke="#e0e9eb" stroke-width="2.5" stroke-linejoin="round" stroke-linecap="round"></path><ellipse cx="180" cy="361" rx="2.0" ry="2.0" fill="#f8f9f7" stroke="none" stroke-width="0"></ellipse><ellipse cx="335" cy="357" rx="23" ry="27" fill="#a6c2d0" stroke="#253646" stroke-width="4.3" transform="rotate(-28 335 357)"></ellipse><ellipse cx="335" cy="364" rx="10" ry="11" fill="#e7eeef" stroke="#253646" stroke-width="2.2"></ellipse><path d="M328 348l-1 6M337 347v7" fill="none" stroke="#728a99" stroke-width="2" stroke-linejoin="round" stroke-linecap="round"></path><path d="M324 354q-3 7 1 12" fill="none" stroke="#e0e9eb" stroke-width="2.5" stroke-linejoin="round" stroke-linecap="round"></path><ellipse cx="338" cy="361" rx="2.0" ry="2.0" fill="#f8f9f7" stroke="none" stroke-width="0"></ellipse><path d="M247 381L265 381L270 394Q261 407 255 408Q244 401 242 393Z" fill="#d1ab72" stroke="#253646" stroke-width="2.2" stroke-linejoin="round" stroke-linecap="round"></path><path d="M252 386L255 400L263 388" fill="none" stroke="#e7eeef" stroke-width="2" stroke-linejoin="round" stroke-linecap="round"></path></g></svg>