<svg xmlns="http://www.w3.org/2000/svg" width="1024" height="1024" viewBox="-9.388 24.632 528.737 528.737" role="img" aria-label="베코" data-species="veko" data-form="veko-0" data-source="original-vector-paths" preserveAspectRatio="xMidYMid meet" data-safe-fraction=".12"><title>베코</title><defs><linearGradient id="body" x1="0" y1="0" x2=".3" y2="1"><stop stop-color="#b6dcd7"></stop><stop offset=".72" stop-color="#a4d4ce"></stop><stop offset="1" stop-color="#b7c9ac"></stop></linearGradient><linearGradient id="eye" x1="0" y1="0" x2="0" y2="1"><stop stop-color="#253646"></stop><stop offset=".55" stop-color="#9b875e"></stop><stop offset="1" stop-color="#dbb36b"></stop></linearGradient></defs><g transform="translate(-16.38 0) scale(1.06 1)"><g transform="translate(256 0) scale(-1 1) translate(-256 0)"><path d="M323 267C358 218 414 238 438 203C437 287 406 356 328 353L309 305Z" fill="#dbb36b" stroke="#253646" stroke-width="4.4" stroke-linejoin="round" stroke-linecap="round"></path><path d="M428 228Q383 253 335 322" fill="none" stroke="#e6f3ee" stroke-width="5" stroke-linejoin="round" stroke-linecap="round"></path></g><g transform="translate(256 0) scale(1 1) translate(-256 0)"><path d="M323 267C358 218 414 238 438 203C437 287 406 356 328 353L309 305Z" fill="#dbb36b" stroke="#253646" stroke-width="4.4" stroke-linejoin="round" stroke-linecap="round"></path><path d="M428 228Q383 253 335 322" fill="none" stroke="#e6f3ee" stroke-width="5" stroke-linejoin="round" stroke-linecap="round"></path></g><ellipse cx="213" cy="421" rx="31" ry="18" fill="#dbb36b" stroke="#253646" stroke-width="4.3"></ellipse><path d="M225 420l-1 9 M213 421l-1 10" fill="none" stroke="#92815c" stroke-width="2.6" stroke-linejoin="round" stroke-linecap="round"></path><ellipse cx="299" cy="421" rx="31" ry="18" fill="#dbb36b" stroke="#253646" stroke-width="4.3"></ellipse><path d="M287 420l-1 9 M299 421l-1 10" fill="none" stroke="#92815c" stroke-width="2.6" stroke-linejoin="round" stroke-linecap="round"></path><path d="M153 285C127 337 157 390 209 404C260 430 332 409 356 381Q390 333 354 281Z" fill="url(#body)" stroke="#253646" stroke-width="4.4" stroke-linejoin="round" stroke-linecap="round"></path><path d="M225 323C209 345 213 377 233 391Q256 409 283 390C301 373 300 348 283 324Q254 307 225 323Z" fill="#e6f3ee" stroke="#253646" stroke-width="3.0" stroke-linejoin="round" stroke-linecap="round"></path><path d="M244 385Q257 391 269 383" fill="none" stroke="#e1d8b7" stroke-width="2.5" stroke-linejoin="round" stroke-linecap="round"></path><path d="M155 230C168 193 213 185 254 196C305 184 343 204 358 242C377 282 359 324 323 339C275 364 205 348 175 334C145 321 130 281 155 230Z" fill="url(#body)" stroke="#253646" stroke-width="4.4" stroke-linejoin="round" stroke-linecap="round"></path><path d="M185 270C199 255 214 268 229 278Q256 267 279 279C297 263 314 259 330 274Q354 329 297 341Q227 358 188 328Z" fill="#e6f3ee" stroke="#253646" stroke-width="2.7" stroke-linejoin="round" stroke-linecap="round"></path><g transform="rotate(-3 214 272)"><ellipse cx="214" cy="272" rx="28" ry="36" fill="#fffefa" stroke="#253646" stroke-width="3.8"></ellipse><ellipse cx="213" cy="273" rx="21" ry="29" fill="url(#eye)" stroke="#253646" stroke-width="2.7"></ellipse><ellipse cx="212" cy="274" rx="11.27" ry="24.0" fill="#253646" stroke="none" stroke-width="0"></ellipse><ellipse cx="209" cy="259" rx="7.5" ry="10.2" fill="#fffefa" stroke="none" stroke-width="0"></ellipse><ellipse cx="221" cy="285" rx="4.2" ry="5.0" fill="#fffefa" stroke="none" stroke-width="0"></ellipse><path d="M185 261Q210 229 241 254" fill="none" stroke="#253646" stroke-width="4.6" stroke-linejoin="round" stroke-linecap="round"></path></g><ellipse cx="197" cy="309" rx="15" ry="5.5" fill="#eea0ac" stroke="none" stroke-width="0"></ellipse><path d="M208 227q6 -5 13 -2" fill="none" stroke="#c5a467" stroke-width="4" stroke-linejoin="round" stroke-linecap="round"></path><g transform="rotate(3 298 272)"><ellipse cx="298" cy="272" rx="28" ry="36" fill="#fffefa" stroke="#253646" stroke-width="3.8"></ellipse><ellipse cx="299" cy="273" rx="21" ry="29" fill="url(#eye)" stroke="#253646" stroke-width="2.7"></ellipse><ellipse cx="300" cy="274" rx="11.27" ry="24.0" fill="#253646" stroke="none" stroke-width="0"></ellipse><ellipse cx="293" cy="259" rx="7.5" ry="10.2" fill="#fffefa" stroke="none" stroke-width="0"></ellipse><ellipse cx="305" cy="285" rx="4.2" ry="5.0" fill="#fffefa" stroke="none" stroke-width="0"></ellipse><path d="M269 261Q294 229 325 254" fill="none" stroke="#253646" stroke-width="4.6" stroke-linejoin="round" stroke-linecap="round"></path></g><ellipse cx="315" cy="309" rx="15" ry="5.5" fill="#eea0ac" stroke="none" stroke-width="0"></ellipse><path d="M292 227q6 -5 13 -2" fill="none" stroke="#c5a467" stroke-width="4" stroke-linejoin="round" stroke-linecap="round"></path><path d="M250 298Q257 294 263 298Q258 305 254 303Z" fill="#253646" stroke="#253646" stroke-width="2" stroke-linejoin="round" stroke-linecap="round"></path><path d="M245 311Q257 315 268 309Q263 329 251 326Z" fill="#253646" stroke="#253646" stroke-width="2.4" stroke-linejoin="round" stroke-linecap="round"></path><path d="M252 322Q260 316 265 319L261 325Q256 329 252 322Z" fill="#eea0ac" stroke="none" stroke-width="0" stroke-linejoin="round" stroke-linecap="round"></path><path d="M203 295Q214 301 224 294" fill="none" stroke="#e7cc9c" stroke-width="2.1" stroke-linejoin="round" stroke-linecap="round"></path><path d="M199 233Q207 229 214 231" fill="none" stroke="#e6f2ee" stroke-width="2.5" stroke-linejoin="round" stroke-linecap="round"></path><ellipse cx="197" cy="299" rx="1.35" ry="1.35" fill="#c0a065" stroke="none" stroke-width="0"></ellipse><ellipse cx="193" cy="304" rx="1.35" ry="1.35" fill="#c0a065" stroke="none" stroke-width="0"></ellipse><ellipse cx="189" cy="299" rx="1.35" ry="1.35" fill="#c0a065" stroke="none" stroke-width="0"></ellipse><path d="M183 306q-4 -2 -7 -6" fill="none" stroke="#d2e9e4" stroke-width="1.8" stroke-linejoin="round" stroke-linecap="round"></path><path d="M180 313q-4 -2 -7 -6" fill="none" stroke="#d2e9e4" stroke-width="1.8" stroke-linejoin="round" stroke-linecap="round"></path><path d="M177 320q-4 -2 -7 -6" fill="none" stroke="#d2e9e4" stroke-width="1.8" stroke-linejoin="round" stroke-linecap="round"></path><path d="M201 350q-6 9 -5 20" fill="none" stroke="#dbede8" stroke-width="3" stroke-linejoin="round" stroke-linecap="round"></path><path d="M211 407q-9 -2 -13 3" fill="none" stroke="#edd8b2" stroke-width="3" stroke-linejoin="round" stroke-linecap="round"></path><ellipse cx="217" cy="416" rx="2.2" ry="2.2" fill="#f4e8cf" stroke="none" stroke-width="0"></ellipse><path d="M194 386q-7 -4 -9 -12" fill="none" stroke="#87b0af" stroke-width="2.1" stroke-linejoin="round" stroke-linecap="round"></path><path d="M198 332q-5 -8 -8 -6" fill="none" stroke="#bac7a6" stroke-width="2.6" stroke-linejoin="round" stroke-linecap="round"></path><path d="M287 295Q298 301 308 294" fill="none" stroke="#e7cc9c" stroke-width="2.1" stroke-linejoin="round" stroke-linecap="round"></path><path d="M283 233Q291 229 298 231" fill="none" stroke="#e6f2ee" stroke-width="2.5" stroke-linejoin="round" stroke-linecap="round"></path><ellipse cx="315" cy="299" rx="1.35" ry="1.35" fill="#c0a065" stroke="none" stroke-width="0"></ellipse><ellipse cx="319" cy="304" rx="1.35" ry="1.35" fill="#c0a065" stroke="none" stroke-width="0"></ellipse><ellipse cx="323" cy="299" rx="1.35" ry="1.35" fill="#c0a065" stroke="none" stroke-width="0"></ellipse><path d="M329 306q4 -2 7 -6" fill="none" stroke="#d2e9e4" stroke-width="1.8" stroke-linejoin="round" stroke-linecap="round"></path><path d="M332 313q4 -2 7 -6" fill="none" stroke="#d2e9e4" stroke-width="1.8" stroke-linejoin="round" stroke-linecap="round"></path><path d="M335 320q4 -2 7 -6" fill="none" stroke="#d2e9e4" stroke-width="1.8" stroke-linejoin="round" stroke-linecap="round"></path><path d="M311 350q6 9 5 20" fill="none" stroke="#dbede8" stroke-width="3" stroke-linejoin="round" stroke-linecap="round"></path><path d="M301 407q9 -2 13 3" fill="none" stroke="#edd8b2" stroke-width="3" stroke-linejoin="round" stroke-linecap="round"></path><ellipse cx="295" cy="416" rx="2.2" ry="2.2" fill="#f4e8cf" stroke="none" stroke-width="0"></ellipse><path d="M318 386q7 -4 9 -12" fill="none" stroke="#87b0af" stroke-width="2.1" stroke-linejoin="round" stroke-linecap="round"></path><path d="M314 332q5 -8 8 -6" fill="none" stroke="#bac7a6" stroke-width="2.6" stroke-linejoin="round" stroke-linecap="round"></path><path d="M240 364q-2 8 0 12q2 -6 0 -12Z" fill="#f5faf5" stroke="none" stroke-width="0" stroke-linejoin="round" stroke-linecap="round"></path><path d="M236 400q4 3 8 0" fill="none" stroke="#e3e0c7" stroke-width="1.8" stroke-linejoin="round" stroke-linecap="round"></path><path d="M253 364q-2 8 0 12q2 -6 0 -12Z" fill="#f5faf5" stroke="none" stroke-width="0" stroke-linejoin="round" stroke-linecap="round"></path><path d="M253 400q4 3 8 0" fill="none" stroke="#e3e0c7" stroke-width="1.8" stroke-linejoin="round" stroke-linecap="round"></path><path d="M266 364q-2 8 0 12q2 -6 0 -12Z" fill="#f5faf5" stroke="none" stroke-width="0" stroke-linejoin="round" stroke-linecap="round"></path><path d="M270 400q4 3 8 0" fill="none" stroke="#e3e0c7" stroke-width="1.8" stroke-linejoin="round" stroke-linecap="round"></path><path d="M255 139L267 168L299 181L267 193L256 224L244 192L213 180L244 170Z" fill="#f3cb78" stroke="#253646" stroke-width="4.4" stroke-linejoin="round" stroke-linecap="round"></path><path d="M255 141L255 181L298 181L267 168Z" fill="#e6f3ee" stroke="#253646" stroke-width="2.2" stroke-linejoin="round" stroke-linecap="round"></path><ellipse cx="256" cy="181" rx="9" ry="9" fill="#dbb36b" stroke="#253646" stroke-width="2.5"></ellipse><ellipse cx="183" cy="357" rx="21" ry="27" fill="#a4d4ce" stroke="#253646" stroke-width="4.3" transform="rotate(28 183 357)"></ellipse><ellipse cx="183" cy="364" rx="10" ry="11" fill="#e6f3ee" stroke="#253646" stroke-width="2.2"></ellipse><path d="M176 348l-1 6M185 347v7" fill="none" stroke="#719598" stroke-width="2" stroke-linejoin="round" stroke-linecap="round"></path><path d="M172 354q-3 7 1 12" fill="none" stroke="#dfefeb" stroke-width="2.5" stroke-linejoin="round" stroke-linecap="round"></path><ellipse cx="186" cy="361" rx="2.0" ry="2.0" fill="#f8fbf6" stroke="none" stroke-width="0"></ellipse><ellipse cx="329" cy="357" rx="21" ry="27" fill="#a4d4ce" stroke="#253646" stroke-width="4.3" transform="rotate(-28 329 357)"></ellipse><ellipse cx="329" cy="364" rx="10" ry="11" fill="#e6f3ee" stroke="#253646" stroke-width="2.2"></ellipse><path d="M322 348l-1 6M331 347v7" fill="none" stroke="#719598" stroke-width="2" stroke-linejoin="round" stroke-linecap="round"></path><path d="M318 354q-3 7 1 12" fill="none" stroke="#dfefeb" stroke-width="2.5" stroke-linejoin="round" stroke-linecap="round"></path><ellipse cx="332" cy="361" rx="2.0" ry="2.0" fill="#f8fbf6" stroke="none" stroke-width="0"></ellipse><path d="M270 381L257 395L266 396L256 410L276 391H267Z" fill="#dbb36b" stroke="#253646" stroke-width="2" stroke-linejoin="round" stroke-linecap="round"></path></g></svg>